<?xml version="1.0" standalone="no"?>
<!DOCTYPE svg PUBLIC "-//W3C//DTD SVG 20010904//EN"
 "http://www.w3.org/TR/2001/REC-SVG-20010904/DTD/svg10.dtd">
<svg version="1.0" xmlns="http://www.w3.org/2000/svg"
 width="1680.000000pt" height="1680.000000pt" viewBox="0 0 1680.000000 1680.000000"
 preserveAspectRatio="xMidYMid meet">
<metadata>
Created by potrace 1.14, written by Peter Selinger 2001-2017
</metadata>
<g transform="translate(0.000000,1680.000000) scale(0.100000,-0.100000)"
fill="#000000" stroke="none">
<path d="M2839 16796 c-2 -2 -42 -7 -89 -10 -112 -10 -340 -49 -465 -81 -117
-30 -355 -109 -405 -135 -19 -10 -39 -18 -43 -18 -4 0 -64 -28 -132 -61 -425
-208 -798 -514 -1079 -886 -42 -55 -80 -105 -85 -111 -4 -5 -14 -21 -21 -35
-7 -13 -16 -26 -20 -29 -3 -3 -24 -34 -46 -70 -250 -415 -391 -833 -441 -1310
-11 -99 -10 -11203 0 -11300 42 -397 146 -752 317 -1085 194 -380 467 -720
779 -971 13 -10 28 -24 35 -30 22 -21 203 -152 232 -168 16 -9 58 -35 94 -58
271 -173 644 -315 1015 -387 266 -51 -40 -49 5955 -47 3072 1 5599 5 5615 8
17 3 59 9 95 13 64 7 80 10 130 20 14 2 41 7 60 10 63 10 303 74 390 103 184
63 372 147 525 235 75 43 292 184 311 201 6 6 22 18 34 26 12 8 31 22 41 32
11 9 39 31 61 50 151 121 340 318 473 494 41 54 79 104 84 110 4 5 14 21 21
35 7 13 16 26 19 29 7 5 51 76 94 150 37 62 128 243 154 305 34 80 45 108 49
120 2 6 22 62 43 125 59 171 110 380 126 510 3 30 8 62 10 70 2 8 8 51 12 95
10 103 10 11194 0 11300 -4 44 -10 94 -12 110 -3 17 -7 46 -9 65 -38 272 -153
634 -284 895 -28 57 -92 169 -167 293 -80 132 -281 379 -420 516 -123 121
-382 330 -470 380 -16 9 -66 39 -110 67 -95 59 -245 137 -335 173 -36 15 -74
31 -85 36 -92 40 -314 112 -420 135 -22 5 -121 26 -143 30 -13 2 -31 6 -40 9
-9 3 -39 7 -67 11 -104 12 -141 17 -165 23 -26 7 -11213 15 -11221 8z"/>
</g>
</svg>
