<svg width="66" height="65" viewBox="0 0 66 65" fill="none" xmlns="http://www.w3.org/2000/svg">
<g clip-path="url(#clip0_308_359)">
<path d="M33.2581 -3.23057e-05C33.7316 0.20354 34.166 0.456114 34.6069 0.722014C34.799 0.834257 34.799 0.834257 34.9949 0.948769C35.3905 1.18059 35.7843 1.4153 36.178 1.65036C36.4053 1.78428 36.6328 1.91802 36.8603 2.05155C37.3148 2.31867 37.7685 2.58707 38.2216 2.85641C39.0645 3.35701 39.9103 3.85267 40.7562 4.34811C40.913 4.43998 41.0698 4.53185 41.2267 4.62371C41.5438 4.80949 41.8609 4.99525 42.1781 5.18099C42.8736 5.58836 43.5689 5.99603 44.2642 6.40368C44.6474 6.62833 45.0306 6.85297 45.4138 7.0776C45.5672 7.16753 45.7206 7.25745 45.874 7.34738C45.95 7.39189 46.0259 7.43641 46.1041 7.48227C57.8394 14.3615 57.8393 14.3615 58.0694 14.4964C58.223 14.5864 58.3765 14.6764 58.5301 14.7664C58.9112 14.9898 59.2923 15.2133 59.6732 15.437C60.3918 15.8589 61.1111 16.2797 61.8325 16.6969C62.1732 16.8941 62.5136 17.0918 62.8539 17.2896C63.0163 17.3837 63.1788 17.4775 63.3415 17.5711C63.567 17.7008 63.792 17.8315 64.0169 17.9623C64.1451 18.0364 64.2732 18.1104 64.4052 18.1867C64.7469 18.4111 64.9907 18.6 65.2502 18.916C65.3139 19.2707 65.3139 19.2707 65.3141 19.6888C65.3155 19.8483 65.3168 20.0077 65.3182 20.172C65.3171 20.3493 65.3159 20.5266 65.3147 20.7039C65.3153 20.892 65.3161 21.08 65.3171 21.2681C65.3192 21.7856 65.3182 22.3031 65.3166 22.8206C65.3155 23.3785 65.3172 23.9363 65.3186 24.4941C65.3209 25.5872 65.3204 26.6803 65.3189 27.7734C65.3178 28.6616 65.3176 29.5497 65.3182 30.4379C65.3183 30.5642 65.3184 30.6904 65.3184 30.8205C65.3186 31.077 65.3187 31.3335 65.3189 31.59C65.3204 33.9968 65.3187 36.4036 65.316 38.8104C65.3137 40.8768 65.3141 42.9431 65.3164 45.0095C65.3192 47.4075 65.3202 49.8055 65.3187 52.2035C65.3185 52.4591 65.3184 52.7147 65.3182 52.9703C65.3181 53.096 65.318 53.2218 65.3179 53.3513C65.3175 54.2387 65.3183 55.1261 65.3195 56.0135C65.3209 57.0945 65.3205 58.1755 65.3178 59.2565C65.3165 59.8083 65.3159 60.3601 65.3176 60.912C65.3191 61.4168 65.3183 61.9215 65.3156 62.4263C65.315 62.6093 65.3153 62.7923 65.3165 62.9752C65.3181 63.2233 65.3162 63.4713 65.3141 63.7193C65.3141 63.8573 65.314 63.9953 65.3139 64.1374C65.2348 64.5781 65.0915 64.7281 64.7424 65C64.4342 65.0653 64.4342 65.0653 64.0868 65.0677C63.9563 65.0697 63.8259 65.0717 63.6914 65.0738C63.5512 65.0732 63.411 65.0725 63.2666 65.0719C63.122 65.0727 62.9774 65.0734 62.8284 65.0743C62.5228 65.0752 62.2171 65.0748 61.9115 65.0731C61.4433 65.0714 60.9755 65.0757 60.5074 65.0806C60.2105 65.0807 59.9136 65.0804 59.6167 65.0798C59.4064 65.0823 59.4064 65.0823 59.1919 65.0849C59.0614 65.0833 58.9309 65.0817 58.7965 65.0801C58.6818 65.08 58.5672 65.0798 58.4491 65.0797C57.9906 64.9611 57.8801 64.7665 57.6331 64.3652C57.56 63.9652 57.5667 63.5716 57.572 63.1659C57.5715 63.0448 57.5711 62.9238 57.5707 62.7991C57.5698 62.392 57.5726 61.9849 57.5754 61.5778C57.5756 61.2815 57.5755 60.9853 57.5752 60.6891C57.5751 59.895 57.578 59.101 57.5816 58.3069C57.5845 57.5621 57.5846 56.8172 57.585 56.0724C57.5877 53.8934 57.5948 51.7145 57.6013 49.5355C57.6118 44.6679 57.6223 39.8002 57.6331 34.7851C41.2104 34.7851 24.7877 34.7851 7.86743 34.7851C7.88754 44.4914 7.88754 44.4914 7.91317 54.1976C7.91547 56.0724 7.91547 56.0724 7.91589 56.9493C7.91637 57.5634 7.91828 58.1775 7.92104 58.7916C7.92451 59.5743 7.92557 60.3569 7.92485 61.1395C7.925 61.4272 7.92601 61.7149 7.92797 62.0025C7.93048 62.3904 7.92989 62.7781 7.92849 63.1659C7.92997 63.2791 7.93145 63.3923 7.93298 63.509C7.92792 64.0303 7.90816 64.299 7.62897 64.7526C7.29865 65.056 7.14778 65.0796 6.70402 65.0801C6.57353 65.0817 6.44304 65.0833 6.30859 65.0849C6.16841 65.0832 6.02822 65.0815 5.88378 65.0798C5.73918 65.0801 5.59457 65.0804 5.44558 65.0807C5.13995 65.0806 4.83432 65.0789 4.52871 65.0757C4.06055 65.0714 3.5927 65.0731 3.12454 65.0756C2.82765 65.0747 2.53076 65.0735 2.23388 65.0719C2.09369 65.0725 1.95351 65.0731 1.80907 65.0738C1.61334 65.0708 1.61334 65.0708 1.41364 65.0677C1.29903 65.0669 1.18441 65.0661 1.06632 65.0653C0.649388 64.9769 0.514662 64.8235 0.250238 64.4922C0.186439 64.1311 0.186438 64.1311 0.185979 63.7038C0.184577 63.5409 0.183174 63.378 0.181729 63.2101C0.182739 63.0289 0.183797 62.8477 0.184898 62.6666C0.184223 62.4744 0.183328 62.2822 0.182229 62.0901C0.179857 61.5612 0.180665 61.0324 0.181993 60.5035C0.182878 59.9335 0.180854 59.3634 0.179203 58.7934C0.176452 57.6763 0.17647 56.5593 0.177502 55.4422C0.178301 54.5345 0.178161 53.6268 0.177343 52.7191C0.177229 52.59 0.177113 52.461 0.176995 52.328C0.17676 52.0658 0.176524 51.8037 0.176286 51.5415C0.17418 49.0816 0.175288 46.6216 0.177425 44.1617C0.179291 41.9099 0.177437 39.6581 0.173775 37.4063C0.170046 35.0956 0.168649 32.7849 0.169862 30.4742C0.169992 30.2129 0.170119 29.9517 0.170242 29.6904C0.170302 29.5619 0.170362 29.4333 0.170424 29.3009C0.170699 28.3941 0.169452 27.4873 0.167603 26.5806C0.165383 25.4757 0.165387 24.3709 0.168281 23.2661C0.169699 22.7021 0.17009 22.1382 0.167735 21.5743C0.165609 21.0583 0.166399 20.5423 0.169541 20.0263C0.170163 19.8394 0.16971 19.6525 0.168084 19.4656C0.166037 19.212 0.168265 18.9583 0.170715 18.7047C0.170749 18.5637 0.17078 18.4227 0.170815 18.2774C0.276038 17.7779 0.500485 17.5897 0.885004 17.2656C1.19042 17.0682 1.19042 17.0682 1.51084 16.9006C1.63119 16.8367 1.75153 16.7728 1.87552 16.707C2.06862 16.6064 2.06862 16.6064 2.26562 16.5039C2.54213 16.3572 2.81852 16.2102 3.09478 16.063C3.23487 15.9885 3.37495 15.914 3.51928 15.8373C4.14401 15.501 4.75998 15.1499 5.37597 14.7979C6.56335 14.1217 7.7627 13.4699 8.96708 12.8245C10.0239 12.2579 11.0739 11.6804 12.1205 11.0952C12.7678 10.7335 13.4161 10.3736 14.0643 10.0134C14.2097 9.93263 14.355 9.85187 14.5047 9.76866C16.0289 8.92195 17.5558 8.08001 19.0828 7.23834C19.7747 6.85697 20.4664 6.47527 21.1581 6.09359C21.5415 5.88203 21.9249 5.67049 22.3083 5.45895C22.4617 5.37432 22.6151 5.28968 22.7685 5.20505C23.689 4.69723 23.689 4.69723 23.919 4.5703C24.0725 4.4856 24.226 4.40091 24.3795 4.31622C24.7615 4.1055 25.1434 3.8948 25.5253 3.68412C26.2345 3.29289 26.9437 2.90155 27.6526 2.50981C27.982 2.32783 28.3114 2.14591 28.6408 1.96399C28.7955 1.87852 28.9502 1.79302 29.1049 1.70748C29.4608 1.51068 29.817 1.31449 30.174 1.11967C30.4613 0.960866 30.7466 0.798176 31.0299 0.632316C32.4304 -0.170439 32.4304 -0.170439 33.2581 -3.23057e-05ZM31.9226 2.785C31.7763 2.86617 31.63 2.94734 31.4792 3.03097C31.3184 3.12089 31.1575 3.21082 30.9967 3.30075C30.8301 3.39338 30.6635 3.48594 30.4968 3.57846C30.1501 3.77098 29.8036 3.96375 29.4571 4.15669C28.7483 4.55115 28.0379 4.94261 27.3275 5.33404C26.945 5.54481 26.5627 5.7558 26.1804 5.96676C26.027 6.0514 25.8736 6.13604 25.7202 6.22067C25.6443 6.26257 25.5683 6.30446 25.4901 6.34762C20.3512 9.18291 15.2122 12.0182 10.0732 14.8535C9.95936 14.9163 9.95936 14.9163 9.84318 14.9804C9.68962 15.0651 9.53607 15.1499 9.38251 15.2346C9.00136 15.4449 8.62023 15.6551 8.23911 15.8655C7.52069 16.2619 6.80218 16.6582 6.08337 17.054C5.74409 17.2408 5.40485 17.4277 5.06562 17.6146C4.904 17.7036 4.74236 17.7926 4.58069 17.8815C4.35642 18.0049 4.13225 18.1284 3.90808 18.252C3.71685 18.3572 3.71685 18.3572 3.52176 18.4646C3.34772 18.5624 3.34772 18.5624 3.17016 18.6621C3.05978 18.714 2.94941 18.7658 2.83568 18.8193C2.505 19.0158 2.505 19.0158 2.45656 19.3703C2.4568 19.5028 2.45704 19.6353 2.45729 19.7718C2.45602 19.9247 2.45476 20.0776 2.45346 20.2351C2.45527 20.4056 2.45714 20.5762 2.45906 20.7467C2.45878 20.9272 2.45823 21.1076 2.45742 21.2881C2.45599 21.7852 2.45854 22.2822 2.46172 22.7793C2.46446 23.3149 2.46353 23.8505 2.46305 24.3861C2.46272 25.3144 2.46471 26.2427 2.46828 27.1711C2.47343 28.5133 2.47509 29.8555 2.47589 31.1977C2.47728 33.3753 2.48151 35.5528 2.48751 37.7303C2.49333 39.8459 2.49783 41.9615 2.50053 44.0771C2.50069 44.2074 2.50086 44.3378 2.50103 44.4721C2.50186 45.126 2.50266 45.7799 2.50345 46.4338C2.51003 51.8608 2.52126 57.2878 2.53539 62.7148C3.54086 62.7148 4.54633 62.7148 5.58227 62.7148C5.58301 62.2391 5.58376 61.7633 5.58453 61.2732C5.59153 56.9126 5.60041 52.552 5.61134 48.1915C5.61277 47.6202 5.61418 47.0489 5.61559 46.4776C5.61587 46.3639 5.61615 46.2501 5.61644 46.133C5.62093 44.2904 5.62408 42.4478 5.62675 40.6052C5.62951 38.7151 5.6337 36.825 5.63923 34.935C5.6426 33.7683 5.64485 32.6016 5.64566 31.435C5.64633 30.6354 5.64839 29.8358 5.65154 29.0363C5.65333 28.5746 5.65449 28.1131 5.654 27.6515C5.65349 27.1513 5.6559 26.6512 5.6586 26.1511C5.65768 25.9316 5.65768 25.9316 5.65674 25.7076C5.65854 25.5067 5.65854 25.5067 5.66038 25.3018C5.66062 25.1863 5.66086 25.0709 5.66111 24.9519C5.72035 24.5541 5.85062 24.3153 6.09008 23.9941C6.53056 23.8473 6.87192 23.8509 7.33686 23.8505C7.42585 23.8502 7.51483 23.8499 7.60652 23.8497C7.90695 23.849 8.20737 23.8491 8.5078 23.8493C8.72447 23.849 8.94114 23.8486 9.15781 23.8482C9.75497 23.8472 10.3521 23.8469 10.9493 23.8468C11.5926 23.8466 12.236 23.8456 12.8793 23.8448C14.2868 23.8431 15.6943 23.8423 17.1018 23.8417C17.9801 23.8414 18.8584 23.8409 19.7367 23.8403C22.167 23.8387 24.5974 23.8374 27.0277 23.837C27.2611 23.837 27.2611 23.837 27.4992 23.8369C27.7332 23.8369 27.7332 23.8369 27.9719 23.8368C28.288 23.8368 28.6042 23.8367 28.9203 23.8367C29.1555 23.8366 29.1555 23.8366 29.3954 23.8366C31.9374 23.8361 34.4794 23.8339 37.0215 23.8309C39.6294 23.8279 42.2374 23.8263 44.8453 23.8262C46.3103 23.826 47.7754 23.8253 49.2404 23.823C50.4877 23.8211 51.7349 23.8204 52.9822 23.8215C53.6189 23.8219 54.2556 23.8218 54.8923 23.82C55.4747 23.8184 56.0572 23.8186 56.6396 23.8201C56.8507 23.8204 57.0618 23.82 57.2729 23.8189C57.5592 23.8175 57.8454 23.8184 58.1317 23.8199C58.3705 23.8198 58.3705 23.8198 58.6141 23.8197C59.0672 23.8715 59.3072 23.9678 59.6643 24.248C59.7905 24.6265 59.8077 24.8754 59.8089 25.2705C59.8096 25.404 59.8102 25.5374 59.811 25.6749C59.8111 25.8955 59.8111 25.8955 59.8113 26.1206C59.812 26.2764 59.8126 26.4323 59.8132 26.5928C59.8149 27.0262 59.8159 27.4596 59.8167 27.893C59.8177 28.36 59.8195 28.8271 59.8211 29.2941C59.8239 30.1036 59.8262 30.913 59.8282 31.7225C59.8311 32.8929 59.8346 34.0632 59.8384 35.2335C59.8444 37.1323 59.8499 39.031 59.8551 40.9297C59.8601 42.7743 59.8653 44.619 59.8709 46.4637C59.8713 46.5773 59.8716 46.691 59.872 46.8081C59.8737 47.3783 59.8755 47.9485 59.8772 48.5187C59.8917 53.2507 59.9052 57.9828 59.9182 62.7148C60.9237 62.7148 61.9291 62.7148 62.9651 62.7148C62.9651 48.6382 62.9651 34.5617 62.9651 20.0586C62.0853 19.5558 61.2055 19.0531 60.2991 18.5351C59.7399 18.2061 59.1817 17.8762 58.6249 17.5433C57.4819 16.8629 56.3345 16.1908 55.1813 15.5279C54.0697 14.8889 52.9624 14.2435 51.8595 13.5897C50.9055 13.0242 49.9493 12.4624 48.9923 11.9018C48.9148 11.8564 48.8374 11.811 48.7575 11.7643C48.3619 11.5325 47.9662 11.3007 47.5705 11.0689C46.875 10.6616 46.1797 10.2539 45.4843 9.84626C45.1011 9.6216 44.7179 9.39697 44.3347 9.17233C44.1813 9.08241 44.0279 8.99248 43.8745 8.90256C43.7986 8.85804 43.7226 8.81353 43.6444 8.76767C42.9541 8.363 42.9541 8.363 42.724 8.22812C42.5706 8.13818 42.4171 8.04824 42.2637 7.95831C41.8806 7.73372 41.4975 7.50912 41.1144 7.28446C40.4196 6.87705 39.7247 6.46982 39.0294 6.06343C38.7169 5.88079 38.4044 5.69805 38.092 5.51526C37.9383 5.42537 37.7847 5.3355 37.631 5.24565C36.7918 4.75486 35.9551 4.26044 35.1232 3.75748C35.0489 3.71264 34.9747 3.6678 34.8982 3.6216C34.5451 3.40832 34.1926 3.19434 33.8406 2.97934C33.7173 2.90457 33.5939 2.8298 33.4668 2.75277C33.3586 2.68672 33.2504 2.62068 33.1389 2.55264C32.6398 2.28461 32.3893 2.52484 31.9226 2.785ZM7.86743 26.0254C7.86743 26.6957 7.86743 27.366 7.86743 28.0566C24.2901 28.0566 40.7127 28.0566 57.6331 28.0566C57.6331 27.3863 57.6331 26.716 57.6331 26.0254C41.2104 26.0254 24.7877 26.0254 7.86743 26.0254ZM7.86743 30.3418C7.86743 31.054 7.86743 31.7662 7.86743 32.5C24.2901 32.5 40.7127 32.5 57.6331 32.5C57.6331 31.7878 57.6331 31.0756 57.6331 30.3418C41.2104 30.3418 24.7877 30.3418 7.86743 30.3418Z" fill="white"/>
<path d="M41.4517 36.7807C41.5698 36.7792 41.688 36.7778 41.8098 36.7763C42.0039 36.7759 42.0039 36.7759 42.2019 36.7754C42.4066 36.7735 42.4066 36.7735 42.6155 36.7716C43.0679 36.7679 43.5202 36.7662 43.9726 36.7648C44.2865 36.7633 44.6004 36.7618 44.9142 36.7604C45.5727 36.7577 46.2312 36.7562 46.8897 36.7553C47.734 36.754 48.5782 36.7479 49.4225 36.7406C50.071 36.7359 50.7194 36.7346 51.3679 36.7342C51.6791 36.7334 51.9904 36.7314 52.3017 36.728C52.737 36.7237 53.172 36.7242 53.6073 36.7258C53.8007 36.7223 53.8007 36.7223 53.9979 36.7188C54.1168 36.7202 54.2357 36.7216 54.3582 36.723C54.461 36.7227 54.5639 36.7223 54.6698 36.7219C55.1309 36.8685 55.3799 37.1639 55.6017 37.5781C55.688 37.9465 55.6865 38.3003 55.6806 38.6775C55.6814 38.7866 55.6822 38.8957 55.6831 39.008C55.685 39.3727 55.6824 39.7371 55.6798 40.1018C55.6803 40.3635 55.681 40.6253 55.6819 40.887C55.6838 41.5973 55.6816 42.3076 55.6786 43.0179C55.6761 43.761 55.6768 44.5042 55.6771 45.2474C55.6771 46.4953 55.6746 47.7432 55.6705 48.9911C55.6658 50.4343 55.6647 51.8774 55.6656 53.3206C55.6664 54.7085 55.665 56.0965 55.6626 57.4844C55.6615 58.0753 55.6612 58.6662 55.6614 59.257C55.6615 59.9526 55.6597 60.6481 55.6564 61.3437C55.6555 61.5991 55.6552 61.8545 55.6557 62.11C55.6561 62.4583 55.6543 62.8066 55.6518 63.1549C55.6525 63.2563 55.6531 63.3576 55.6538 63.4621C55.6468 64.0378 55.581 64.4164 55.2208 64.873C54.8115 65.0777 54.3639 65.0192 53.9141 65.0195C53.8039 65.02 53.6937 65.0206 53.5802 65.0212C53.2088 65.0229 52.8373 65.0236 52.4659 65.0244C52.2005 65.0254 51.9351 65.0265 51.6697 65.0276C50.7962 65.0309 49.9227 65.0328 49.0492 65.0347C48.7489 65.0353 48.4486 65.036 48.1483 65.0367C46.8995 65.0394 45.6507 65.0418 44.4018 65.0433C42.6101 65.0453 40.8183 65.0495 39.0265 65.0568C37.7678 65.0617 36.509 65.0642 35.2502 65.0648C34.4979 65.0653 33.7455 65.0668 32.9932 65.0709C32.2855 65.0747 31.5779 65.0756 30.8703 65.0741C30.6103 65.074 30.3504 65.0751 30.0905 65.0773C29.736 65.0802 29.3817 65.0791 29.0271 65.0771C28.9239 65.0789 28.8207 65.0807 28.7144 65.0825C28.208 65.0753 27.9548 65.0215 27.5447 64.7154C27.2804 64.3503 27.2117 64.2034 27.2114 63.7621C27.2098 63.6445 27.2082 63.5268 27.2065 63.4056C27.208 63.2781 27.2095 63.1506 27.211 63.0192C27.2101 62.8838 27.2092 62.7483 27.2083 62.6087C27.2061 62.1611 27.2086 61.7138 27.2113 61.2662C27.2112 60.9553 27.2109 60.6443 27.2104 60.3333C27.21 59.6818 27.2119 59.0303 27.2154 58.3788C27.2197 57.543 27.2189 56.7073 27.2166 55.8715C27.2152 55.2295 27.2164 54.5875 27.2183 53.9455C27.2189 53.6373 27.2189 53.3291 27.2181 53.0208C27.2174 52.5905 27.22 52.1602 27.2234 51.7298C27.2226 51.6021 27.2218 51.4743 27.2209 51.3427C27.2328 50.4796 27.2328 50.4796 27.5334 50.0713C28.0791 49.704 28.5607 49.7486 29.2005 49.7512C29.3194 49.7511 29.4383 49.7511 29.5608 49.7511C29.9551 49.7512 30.3494 49.7522 30.7437 49.7532C31.0166 49.7534 31.2895 49.7536 31.5623 49.7537C32.2816 49.7542 33.0008 49.7554 33.72 49.7568C34.4535 49.7581 35.187 49.7587 35.9205 49.7594C37.3605 49.7607 38.8004 49.7629 40.2404 49.7656C40.2398 49.614 40.2393 49.4624 40.2387 49.3063C40.2335 47.8791 40.2297 46.4519 40.2272 45.0247C40.2259 44.291 40.2241 43.5572 40.2212 42.8234C40.2185 42.1155 40.2169 41.4076 40.2163 40.6997C40.2158 40.4294 40.2149 40.1591 40.2135 39.8888C40.2117 39.5107 40.2114 39.1326 40.2116 38.7545C40.2106 38.6424 40.2097 38.5302 40.2088 38.4147C40.2091 38.3114 40.2095 38.2082 40.2098 38.1018C40.2096 38.0124 40.2094 37.923 40.2091 37.8309C40.2468 37.5262 40.3312 37.33 40.4943 37.0702C40.8954 36.8029 40.9932 36.7841 41.4517 36.7807ZM42.5255 39.1015C42.5255 42.6206 42.5255 46.1398 42.5255 49.7656C46.0866 49.7656 49.6476 49.7656 53.3166 49.7656C53.3166 46.2464 53.3166 42.7273 53.3166 39.1015C52.6462 39.1015 51.9759 39.1015 51.2853 39.1015C51.276 39.4479 51.276 39.4479 51.2665 39.8012C51.2569 40.1049 51.2473 40.4086 51.2377 40.7122C51.2338 40.8643 51.2298 41.0164 51.2258 41.1732C51.2209 41.32 51.216 41.4669 51.2109 41.6182C51.2049 41.8207 51.2049 41.8207 51.1988 42.0272C51.1474 42.5041 51.0876 42.8865 50.7043 43.2016C50.2342 43.3381 49.7671 43.3271 49.2818 43.3247C49.1738 43.3249 49.0659 43.3252 48.9546 43.3254C48.7267 43.3256 48.4988 43.3251 48.2708 43.3241C47.9223 43.3227 47.5738 43.324 47.2253 43.3257C47.0036 43.3255 46.7819 43.3252 46.5603 43.3247C46.4041 43.3254 46.4041 43.3254 46.2449 43.3262C45.2973 43.3184 45.2973 43.3184 44.9376 43.037C44.6449 42.623 44.6452 42.227 44.6312 41.7298C44.6263 41.5768 44.6214 41.4238 44.6163 41.2661C44.6124 41.1069 44.6084 40.9477 44.6044 40.7836C44.5995 40.6224 44.5946 40.4612 44.5895 40.2952C44.5776 39.8973 44.567 39.4994 44.5568 39.1015C43.8865 39.1015 43.2162 39.1015 42.5255 39.1015ZM46.8419 39.1015C46.8419 39.7718 46.8419 40.4421 46.8419 41.1328C47.5541 41.1328 48.2664 41.1328 49.0001 41.1328C49.0001 40.4624 49.0001 39.7921 49.0001 39.1015C48.2879 39.1015 47.5757 39.1015 46.8419 39.1015ZM29.5763 52.0507C29.5763 55.5699 29.5763 59.089 29.5763 62.7148C33.0955 62.7148 36.6146 62.7148 40.2404 62.7148C40.2404 59.1956 40.2404 55.6765 40.2404 52.0507C39.5701 52.0507 38.8998 52.0507 38.2091 52.0507C38.2059 52.3106 38.2026 52.5705 38.1992 52.8382C38.1939 53.0907 38.1886 53.3433 38.1828 53.5958C38.1792 53.7709 38.1765 53.946 38.1747 54.1211C38.172 54.3732 38.1658 54.6253 38.1595 54.8774C38.1569 55.029 38.1542 55.1806 38.1515 55.3367C38.0822 55.7324 38.0822 55.7324 37.8986 56.0358C37.404 56.3476 36.9453 56.3104 36.3718 56.3032C36.1967 56.3034 36.1967 56.3034 36.0181 56.3037C35.7717 56.3035 35.5253 56.302 35.2789 56.2994C34.9013 56.2957 34.524 56.2968 34.1464 56.2984C33.9069 56.2976 33.6675 56.2966 33.4281 56.2952C33.315 56.2956 33.2019 56.296 33.0854 56.2963C32.9803 56.2947 32.8752 56.2931 32.767 56.2915C32.6746 56.2908 32.5823 56.2901 32.4871 56.2894C32.1725 56.2261 32.0617 56.1049 31.8615 55.8593C31.6843 55.505 31.7068 55.1989 31.6944 54.803C31.689 54.6435 31.6837 54.4839 31.6782 54.3195C31.6732 54.1521 31.6683 53.9847 31.6631 53.8122C31.6576 53.6421 31.6521 53.472 31.6465 53.3019C31.633 52.8849 31.6202 52.4678 31.6076 52.0507C30.9373 52.0507 30.2669 52.0507 29.5763 52.0507ZM33.8927 52.0507C33.8927 52.721 33.8927 53.3913 33.8927 54.082C34.563 54.082 35.2333 54.082 35.924 54.082C35.924 53.4117 35.924 52.7413 35.924 52.0507C35.2537 52.0507 34.5833 52.0507 33.8927 52.0507ZM42.5255 52.0507C42.5255 55.5699 42.5255 59.089 42.5255 62.7148C46.0866 62.7148 49.6476 62.7148 53.3166 62.7148C53.3166 59.1956 53.3166 55.6765 53.3166 52.0507C52.6462 52.0507 51.9759 52.0507 51.2853 52.0507C51.276 52.3971 51.276 52.3971 51.2665 52.7504C51.2569 53.0541 51.2473 53.3578 51.2377 53.6614C51.2338 53.8135 51.2298 53.9657 51.2258 54.1224C51.2209 54.2693 51.216 54.4161 51.2109 54.5675C51.2049 54.7699 51.2049 54.7699 51.1988 54.9764C51.1571 55.3632 51.0833 55.6415 50.9044 55.9863C50.5193 56.2431 50.443 56.2722 50.0106 56.275C49.9081 56.2763 49.8055 56.2775 49.6999 56.2787C49.5344 56.2785 49.5344 56.2785 49.3656 56.2784C49.2518 56.2789 49.1381 56.2794 49.0208 56.28C48.7802 56.2807 48.5395 56.2808 48.2989 56.2802C47.9308 56.2798 47.5629 56.2828 47.1948 56.286C46.961 56.2863 46.7271 56.2864 46.4933 56.2863C46.3833 56.2875 46.2732 56.2886 46.1599 56.2898C45.4011 56.284 45.4011 56.284 44.9991 56.0707C44.633 55.66 44.6608 55.2168 44.6436 54.6914C44.6383 54.538 44.6329 54.3846 44.6275 54.2265C44.6225 54.0662 44.6175 53.9059 44.6123 53.7408C44.6068 53.579 44.6014 53.4172 44.5957 53.2506C44.5822 52.8506 44.5694 52.4507 44.5568 52.0507C43.8865 52.0507 43.2162 52.0507 42.5255 52.0507ZM46.8419 52.0507C46.8419 52.721 46.8419 53.3913 46.8419 54.082C47.5541 54.082 48.2664 54.082 49.0001 54.082C49.0001 53.4117 49.0001 52.7413 49.0001 52.0507C48.2879 52.0507 47.5757 52.0507 46.8419 52.0507Z" fill="white"/>
<path d="M28.0155 15.0705C28.1285 15.0696 28.2414 15.0688 28.3578 15.0679C28.7319 15.0655 29.1059 15.065 29.48 15.0647C29.7398 15.0639 29.9996 15.0631 30.2594 15.0622C30.8043 15.0607 31.3492 15.0602 31.8941 15.0603C32.5924 15.0604 33.2907 15.0569 33.9889 15.0525C34.5256 15.0497 35.0623 15.0492 35.5991 15.0493C35.8565 15.049 36.1139 15.0479 36.3714 15.0459C36.7315 15.0434 37.0915 15.0442 37.4517 15.0457C37.558 15.0443 37.6644 15.0429 37.7739 15.0414C38.2774 15.0468 38.5318 15.0717 38.9704 15.3413C39.4425 15.8499 39.3739 16.4106 39.3774 17.0662C39.3781 17.1713 39.3788 17.2763 39.3796 17.3845C39.3808 17.6067 39.3816 17.8289 39.3821 18.051C39.3833 18.3901 39.3873 18.7291 39.3913 19.0682C39.3921 19.2843 39.3928 19.5003 39.3932 19.7164C39.3948 19.8174 39.3964 19.9185 39.398 20.0226C39.3957 20.6048 39.3487 20.983 38.9707 21.455C38.4758 21.785 38.0588 21.7464 37.4845 21.7458C37.3716 21.7467 37.2586 21.7475 37.1423 21.7484C36.7682 21.7508 36.3941 21.7513 36.0201 21.7516C35.7603 21.7524 35.5005 21.7533 35.2407 21.7542C34.6957 21.7557 34.1508 21.7561 33.6059 21.756C32.9076 21.756 32.2094 21.7594 31.5111 21.7638C30.9744 21.7666 30.4377 21.7671 29.901 21.767C29.6435 21.7673 29.3861 21.7684 29.1287 21.7704C28.7685 21.7729 28.4085 21.7722 28.0484 21.7706C27.942 21.7721 27.8357 21.7735 27.7261 21.7749C27.2227 21.7695 26.9682 21.7446 26.5296 21.475C26.0576 20.9664 26.1262 20.4057 26.1227 19.7501C26.1219 19.6451 26.1212 19.54 26.1205 19.4318C26.1193 19.2096 26.1184 18.9875 26.118 18.7653C26.1167 18.4262 26.1128 18.0872 26.1088 17.7481C26.108 17.5321 26.1073 17.316 26.1068 17.1C26.1052 16.9989 26.1037 16.8978 26.1021 16.7937C26.1044 16.2115 26.1513 15.8333 26.5293 15.3613C27.0243 15.0313 27.4412 15.0699 28.0155 15.0705ZM28.4336 17.3925C28.4336 18.0629 28.4336 18.7332 28.4336 19.4238C31.2824 19.4238 34.1313 19.4238 37.0664 19.4238C37.0664 18.7535 37.0664 18.0832 37.0664 17.3925C34.2176 17.3925 31.3688 17.3925 28.4336 17.3925Z" fill="white"/>
</g>
<defs>
<clipPath id="clip0_308_359">
<rect width="65" height="65" fill="white" transform="translate(0.25)"/>
</clipPath>
</defs>
</svg>
