<svg width="66" height="65" viewBox="0 0 66 65" fill="none" xmlns="http://www.w3.org/2000/svg">
<g clip-path="url(#clip0_297_332)">
<path d="M33.9103 27.9758C34.4795 28.1707 35.0908 27.8224 35.6222 27.6203C38.3563 26.6302 41.2348 26.8071 43.8546 28.0266C44.4783 28.3265 45.0963 28.6372 45.7133 28.9508C46.2484 29.222 46.7849 29.4905 47.3212 29.7591C47.7772 29.9875 48.2328 30.2165 48.6875 30.4473C48.8546 30.5317 49.0217 30.616 49.1888 30.7004C49.3362 30.7751 49.4835 30.8498 49.6353 30.9268C50.464 31.3119 51.3083 31.2806 52.2082 31.2959C52.3913 31.2999 52.5744 31.306 52.7574 31.3141C53.8002 31.4054 53.8002 31.4054 54.7084 31.0144C54.8672 30.7535 54.9816 30.4983 55.0936 30.2149C55.3232 29.958 55.3232 29.958 55.53 29.7864C55.5979 29.7278 55.6659 29.6692 55.7358 29.6089C56.5374 29.1024 57.3997 29.1584 58.3146 29.1566C58.4664 29.1557 58.6182 29.1549 58.7746 29.154C59.095 29.1527 59.4154 29.1521 59.7359 29.1522C60.2251 29.1516 60.7143 29.147 61.2035 29.1422C61.5153 29.1415 61.8272 29.141 62.139 29.1407C62.2848 29.1389 62.4305 29.1371 62.5807 29.1352C63.4158 29.1399 63.9389 29.2034 64.6151 29.707C65.1285 30.2745 65.2656 30.5816 65.2686 31.3384C65.2699 31.5757 65.2699 31.5757 65.2713 31.8179C65.2717 31.9942 65.272 32.1705 65.2723 32.3469C65.2731 32.5318 65.274 32.7168 65.2749 32.9017C65.2771 33.4051 65.2784 33.9085 65.2795 34.4119C65.2801 34.7264 65.2809 35.041 65.2817 35.3555C65.2841 36.3397 65.2859 37.3238 65.287 38.308C65.2882 39.4439 65.2915 40.5797 65.2967 41.7155C65.3005 42.5935 65.3024 43.4715 65.3028 44.3494C65.3031 44.8737 65.3043 45.398 65.3074 45.9224C65.3104 46.416 65.3109 46.9095 65.3096 47.4032C65.3096 47.584 65.3104 47.7648 65.3121 47.9456C65.3276 49.6423 65.3276 49.6423 64.7421 50.4004C64.1168 50.9459 63.3569 51.0507 62.5555 51.0518C62.4245 51.0524 62.2935 51.0529 62.1586 51.0534C62.0162 51.0533 61.8739 51.0532 61.7272 51.0532C61.5763 51.0536 61.4253 51.0541 61.2697 51.0545C60.9421 51.0555 60.6144 51.0561 60.2868 51.0566C59.7681 51.0573 59.2495 51.0594 58.7309 51.0618C58.553 51.0626 58.3752 51.0634 58.1973 51.0642C58.1083 51.0646 58.0192 51.065 57.9275 51.0655C56.7207 51.0708 55.5139 51.075 54.3071 51.0766C53.4921 51.0776 52.6772 51.0805 51.8622 51.0854C51.4314 51.0879 51.0006 51.0894 50.5698 51.0888C50.0891 51.0885 49.6084 51.0913 49.1276 51.0948C48.9858 51.094 48.844 51.0932 48.6979 51.0923C47.8705 51.1022 47.4016 51.21 46.7147 51.6699C46.589 51.6699 46.4633 51.6699 46.3339 51.6699C46.3758 51.7956 46.4176 51.9213 46.4608 52.0508C46.5681 53.403 46.4535 54.5123 45.588 55.5896C44.8007 56.4239 43.8418 56.8398 42.6998 56.8988C42.6003 56.891 42.5008 56.8831 42.3983 56.875C42.3978 56.9904 42.3978 56.9904 42.3973 57.1081C42.346 58.2199 41.9086 59.0718 41.105 59.8425C40.552 60.2809 39.8914 60.4786 39.2245 60.6836C39.208 60.8562 39.208 60.8562 39.1913 61.0322C39.0189 62.5265 38.6603 63.4437 37.4848 64.4079C36.4837 65.1332 35.3418 65.1297 34.1464 65C33.6779 64.8451 33.2878 64.6355 32.8768 64.3652C32.7459 64.2893 32.615 64.2134 32.4801 64.1351C32.4015 64.0854 32.323 64.0356 32.2421 63.9844C32.1699 64.0364 32.0977 64.0885 32.0234 64.1421C30.9005 64.9257 29.9266 65.1285 28.5604 65C27.6448 64.7853 26.8844 64.3207 26.2753 63.6035C25.6405 62.5734 25.6405 62.5734 25.6405 62.0801C25.5071 62.086 25.3737 62.0919 25.2363 62.0979C23.7747 62.1438 22.7897 61.9709 21.6792 60.9469C21.2721 60.477 20.8163 59.8014 20.8163 59.1602C20.7431 59.1803 20.67 59.2004 20.5946 59.2212C19.5885 59.4531 18.6816 59.2361 17.7694 58.7793C16.9414 58.224 16.2795 57.4677 16.0159 56.4942C16.008 56.4104 16.0002 56.3266 15.9921 56.2403C15.9083 56.2821 15.8245 56.324 15.7382 56.3672C14.5373 56.4848 13.3676 56.3192 12.3898 55.5658C11.5952 54.7523 11.0218 53.8517 11.0171 52.6776C11.0249 52.5546 11.0328 52.4315 11.0409 52.3047C10.8131 52.234 10.8131 52.234 10.5807 52.1619C10.2145 52.0446 9.88707 51.9179 9.54693 51.737C8.12508 51.0045 6.73173 51.0609 5.16137 51.0748C4.76849 51.0763 4.37568 51.0766 3.9828 51.0748C3.74032 51.0739 3.49782 51.0749 3.25536 51.0781C2.32271 51.0777 1.49819 50.9527 0.765619 50.3449C0.324441 49.7967 0.2181 49.4445 0.215921 48.7377C0.214839 48.5789 0.213756 48.4202 0.21264 48.2566C0.212729 48.081 0.212846 47.9054 0.212989 47.7297C0.212229 47.5445 0.211365 47.3593 0.210404 47.1741C0.208162 46.6713 0.207568 46.1685 0.207406 45.6656C0.207225 45.3514 0.20668 45.0372 0.206007 44.7229C0.203658 43.6264 0.202623 42.53 0.202822 41.4335C0.202975 40.4118 0.200296 39.3901 0.196287 38.3684C0.192965 37.4908 0.191603 36.6133 0.191765 35.7358C0.19183 35.2118 0.19111 34.6879 0.188422 34.1639C0.185961 33.671 0.185944 33.1782 0.18779 32.6853C0.188055 32.5046 0.187459 32.324 0.185923 32.1433C0.172481 30.4525 0.172479 30.4525 0.757684 29.834C1.31246 29.3333 1.70012 29.1845 2.43938 29.1768C2.57546 29.1751 2.71153 29.1735 2.85173 29.1718C2.99891 29.1709 3.1461 29.17 3.29774 29.169C3.52534 29.1674 3.52534 29.1674 3.75754 29.1659C4.07919 29.1641 4.40084 29.1628 4.72249 29.1618C5.21233 29.1596 5.70206 29.154 6.19187 29.1484C6.50463 29.1471 6.81738 29.146 7.13014 29.1452C7.27578 29.143 7.42142 29.1407 7.57147 29.1384C8.58597 29.1412 9.4082 29.2881 10.1954 29.961C10.2623 30.0447 10.3292 30.1285 10.3982 30.2149C10.4674 30.2986 10.5366 30.3824 10.608 30.4688C10.7814 30.7147 10.9096 30.9604 11.0409 31.2305C12.0301 31.2434 13.0193 31.2523 14.0086 31.2584C14.3448 31.2609 14.6809 31.2644 15.017 31.2688C15.5017 31.275 15.9864 31.2778 16.4711 31.2801C16.6201 31.2827 16.769 31.2853 16.9225 31.288C17.8691 31.2883 18.5735 31.1436 19.4198 30.7227C19.5188 30.6753 19.6178 30.628 19.7197 30.5792C20.0282 30.4289 20.3336 30.2735 20.6387 30.1167C20.8683 30.0003 21.0979 29.8839 21.3276 29.7675C21.682 29.5872 22.0363 29.4065 22.3902 29.2253C25.9401 27.4104 30.0884 25.8517 33.9103 27.9758ZM22.3101 31.9214C21.6832 32.2541 21.0529 32.5765 20.4116 32.8809C20.2684 32.949 20.1252 33.017 19.9777 33.0872C18.9094 33.5199 17.9362 33.5576 16.7934 33.5682C16.6286 33.5707 16.4638 33.5731 16.294 33.5757C15.8591 33.5821 15.4241 33.5872 14.9892 33.5919C14.5441 33.597 14.099 33.6035 13.6538 33.6099C12.7829 33.6221 11.9119 33.6328 11.0409 33.6426C10.7642 35.2462 10.6049 36.8642 10.4289 38.4812C10.3952 38.7891 10.3614 39.097 10.3276 39.4049C10.2392 40.2102 10.1512 41.0156 10.0633 41.821C9.97338 42.6449 9.88301 43.4687 9.79268 44.2925C9.6159 45.9053 9.43956 47.5181 9.26354 49.1309C9.61498 49.2798 9.96677 49.4278 10.3188 49.5752C10.4685 49.6388 10.4685 49.6388 10.6211 49.7037C10.7172 49.7437 10.8134 49.7838 10.9124 49.8252C11.0009 49.8624 11.0893 49.8996 11.1804 49.938C11.4394 50.0399 11.4394 50.0399 11.8026 50.0195C12.0064 49.7613 12.0064 49.7613 12.1993 49.4324C12.7449 48.6198 13.3576 48.186 14.2544 47.8137C15.5668 47.5913 16.6851 47.6747 17.8021 48.4381C18.5251 49.021 18.8762 49.6584 19.1659 50.5274C19.2978 50.5306 19.4297 50.5339 19.5656 50.5373C20.8522 50.5838 22.1608 50.677 23.1014 51.6699C23.4819 52.2402 23.8163 52.8315 24.1171 53.4473C24.2123 53.4429 24.3075 53.4384 24.4057 53.4339C25.7126 53.3993 26.754 53.5743 27.7838 54.4227C28.3018 54.9895 28.6183 55.6766 28.9413 56.3672C29.0549 56.3613 29.1684 56.3554 29.2854 56.3494C30.5876 56.3105 31.5162 56.4623 32.5436 57.2876C33.2445 57.9504 33.663 58.8311 33.7655 59.7949C33.7483 60.5265 33.6646 61.2379 33.5116 61.9531C34.1544 62.4638 34.688 62.8424 35.5329 62.7818C36.0722 62.645 36.4164 62.3131 36.7057 61.8386C36.8966 61.3619 36.8316 60.9144 36.6854 60.4297C36.5102 60.1935 36.5102 60.1935 36.2966 59.9854C35.9555 59.636 35.8697 59.4283 35.8682 58.938C35.8881 58.5931 35.9399 58.3498 36.0507 58.0176C36.69 57.8781 37.0478 57.8451 37.6376 58.1445C38.2406 58.444 38.5725 58.4454 39.2245 58.2715C39.6568 57.9989 39.962 57.7505 40.1132 57.2559C40.2052 56.5655 40.1606 56.2384 39.7402 55.6769C39.5741 55.4762 39.4086 55.2818 39.2245 55.0977C39.1512 54.2041 39.1512 54.2041 39.4149 53.7647C39.7676 53.553 40.0461 53.481 40.4588 53.4979C40.9523 53.6282 41.3121 53.9516 41.7149 54.2546C42.125 54.5369 42.4089 54.618 42.9061 54.5899C43.3845 54.4178 43.7099 54.1806 44.0408 53.7964C44.2204 53.3315 44.2584 52.9187 44.1757 52.4317C43.862 51.7635 43.3534 51.3978 42.7697 50.9737C42.5253 50.7813 42.5253 50.7813 42.3983 50.5274C42.3255 49.7411 42.3255 49.7411 42.6125 49.3372C42.9523 49.0984 43.1248 49.0136 43.5409 49.0039C43.9376 49.1519 44.3055 49.3227 44.6835 49.5117C45.3614 49.5562 45.7835 49.5712 46.3339 49.1309C46.7648 48.6477 46.7805 48.2947 46.7584 47.666C46.6395 46.8154 45.945 46.3365 45.3182 45.8301C45.0199 45.6096 44.7139 45.4018 44.4058 45.1953C44.226 45.0733 44.0463 44.9511 43.8667 44.8289C43.7725 44.7648 43.6782 44.7008 43.5811 44.6348C43.0676 44.2836 42.5585 43.9261 42.0492 43.5687C41.9426 43.494 41.8361 43.4193 41.7263 43.3424C41.5086 43.1898 41.2911 43.0372 41.0735 42.8846C40.542 42.5119 40.0102 42.1398 39.4784 41.7676C39.2689 41.621 39.0595 41.4743 38.8501 41.3277C38.4055 41.0165 37.9608 40.7054 37.5161 40.3944C37.4022 40.3148 37.2884 40.2352 37.1712 40.1532C36.9546 40.0017 36.7381 39.8503 36.5215 39.6989C36.4229 39.6299 36.3243 39.5609 36.2227 39.4899C36.1289 39.4244 36.0351 39.359 35.9385 39.2916C35.7628 39.1673 35.5884 39.0412 35.4155 38.9131C35.0433 38.6377 34.7961 38.47 34.3368 38.3716C33.687 38.5108 33.4202 38.8563 33.0038 39.3555C32.8747 39.5099 32.8747 39.5099 32.7429 39.6674C32.5516 39.9 32.3615 40.1336 32.1726 40.3681C31.8416 40.7761 31.5035 41.1771 31.163 41.5772C30.7301 42.0867 30.3008 42.5988 29.8776 43.1165C29.7853 43.2287 29.693 43.341 29.5979 43.4567C29.4101 43.6896 29.2264 43.9259 29.0464 44.1648C28.0786 45.4244 26.9727 46.2055 25.3866 46.4649C24.1698 46.6196 22.8849 46.303 21.8874 45.5841C21.0905 44.9111 20.6725 44.1962 20.5257 43.1586C20.469 41.8684 21.144 40.8917 21.8716 39.8871C21.9618 39.7601 22.052 39.6331 22.1449 39.5022C22.3307 39.2407 22.517 38.9796 22.7038 38.7188C23.0309 38.2609 23.3533 37.7999 23.675 37.3382C23.8928 37.0258 24.1114 36.714 24.3303 36.4023C24.6102 36.0036 24.8884 35.6039 25.1654 35.2032C25.7759 34.3239 26.3774 33.4725 27.1223 32.6989C27.3183 32.5112 27.3183 32.5112 27.2909 32.2461C27.364 32.2134 27.4372 32.1807 27.5126 32.1469C27.8236 31.9787 28.0498 31.7822 28.3144 31.5479C29.2657 30.7673 30.3844 30.2539 31.4803 29.707C30.9977 29.2244 30.2442 29.3001 29.5919 29.2865C26.9051 29.2925 24.6164 30.6944 22.3101 31.9214ZM35.0668 30.3894C34.9322 30.456 34.7977 30.5226 34.659 30.5912C34.3766 30.7316 34.0947 30.8729 33.8132 31.0151C33.3862 31.2297 32.9569 31.4393 32.5272 31.6485C31.0633 32.3719 29.7875 33.0549 28.6874 34.2774C28.609 34.3569 28.5306 34.4364 28.4498 34.5184C27.8118 35.1933 27.312 35.982 26.793 36.749C26.3809 37.3579 25.9596 37.9601 25.5373 38.562C25.4638 38.6673 25.3903 38.7726 25.3146 38.8811C24.9207 39.4446 24.5234 40.0052 24.121 40.5625C24.0393 40.6766 23.9576 40.7907 23.8735 40.9083C23.7169 41.1269 23.5592 41.3447 23.4003 41.5617C22.8739 42.2909 22.8739 42.2909 22.7206 43.1641C23.0735 43.7447 23.437 44.0512 24.0873 44.2541C24.8665 44.3985 25.5402 44.2866 26.2197 43.8782C26.7823 43.4634 27.1956 42.9588 27.6231 42.4098C27.9461 41.9953 28.2825 41.5955 28.6239 41.1963C29.0522 40.6926 29.476 40.1857 29.8934 39.6729C30.0837 39.44 30.2741 39.2072 30.4647 38.9746C30.5211 38.9058 30.5774 38.837 30.6354 38.766C32.5707 36.4101 32.5707 36.4101 33.9068 36.266C34.0409 36.2643 34.1749 36.2627 34.313 36.261C34.446 36.2574 34.5791 36.2538 34.7162 36.2501C35.7098 36.3805 36.5044 36.9155 37.2964 37.4988C37.4854 37.6351 37.6745 37.7713 37.8637 37.9074C37.9616 37.9783 38.0594 38.0491 38.1603 38.1222C38.6727 38.4909 39.1908 38.8515 39.7085 39.2127C39.9236 39.3631 40.1386 39.5135 40.3537 39.6639C40.4608 39.7389 40.5679 39.8138 40.6783 39.8909C41.3144 40.3358 41.9503 40.781 42.5861 41.2263C43.1291 41.6065 43.6723 41.9863 44.2158 42.3657C44.7477 42.7369 45.2788 43.1094 45.8094 43.4825C46.0449 43.6474 46.2814 43.8107 46.5183 43.9734C47.6959 44.797 48.4513 45.578 48.8729 46.9727C48.9148 47.5592 48.9567 48.1457 48.9999 48.75C51.346 48.75 53.6921 48.75 56.1092 48.75C56.0041 47.0423 56.0041 47.0423 55.8417 45.3425C55.8215 45.1594 55.8216 45.1594 55.801 44.9726C55.7574 44.578 55.7132 44.1835 55.6689 43.7889C55.638 43.5113 55.6072 43.2336 55.5764 42.9559C55.5123 42.3785 55.4478 41.801 55.383 41.2236C55.3001 40.4835 55.2179 39.7433 55.1359 39.003C55.0726 38.4316 55.0089 37.8603 54.9451 37.289C54.9146 37.0159 54.8842 36.7428 54.854 36.4696C54.8118 36.0896 54.7692 35.7096 54.7264 35.3296C54.714 35.2171 54.7016 35.1045 54.6888 34.9886C54.6771 34.8851 54.6653 34.7816 54.6532 34.6749C54.6432 34.5854 54.6332 34.4958 54.6229 34.4035C54.5849 34.1439 54.5267 33.8959 54.4589 33.6426C54.3406 33.6414 54.2223 33.6402 54.1005 33.639C53.6534 33.6333 53.2066 33.6255 52.7596 33.6163C52.5677 33.6127 52.3758 33.61 52.1838 33.6082C51.9048 33.6054 51.626 33.5995 51.347 33.593C51.1801 33.5903 51.0133 33.5877 50.8413 33.5849C49.5148 33.4768 48.3013 32.8924 47.1407 32.2818C46.8661 32.1411 46.5914 32.0004 46.3167 31.8598C45.8928 31.6407 45.4691 31.421 45.0459 31.2004C41.6283 29.4244 38.6954 28.5604 35.0668 30.3894ZM2.53503 31.4844C2.53503 37.182 2.53503 42.8797 2.53503 48.75C4.04323 48.75 5.55143 48.75 7.10534 48.75C7.34046 46.6799 7.57464 44.6096 7.80713 42.5392C7.91511 41.5778 8.02351 40.6165 8.1329 39.6552C8.22826 38.8173 8.32283 37.9792 8.41646 37.141C8.46605 36.6974 8.51603 36.2538 8.56695 35.8103C8.62384 35.3147 8.67896 34.819 8.73394 34.3232C8.75102 34.1768 8.76809 34.0304 8.78569 33.8796C8.89772 32.8656 8.89772 32.8656 8.75573 31.8653C8.63005 31.7396 8.50436 31.6139 8.37487 31.4844C6.44772 31.4844 4.52058 31.4844 2.53503 31.4844ZM57.1249 31.4844C56.6073 32.0214 56.6073 32.0214 56.5771 32.3958C56.5882 32.4886 56.5992 32.5815 56.6106 32.6772C56.6218 32.7843 56.6331 32.8913 56.6447 33.0016C56.6597 33.1169 56.6747 33.2323 56.6902 33.3511C56.7038 33.4737 56.7174 33.5963 56.7314 33.7227C56.7608 33.9852 56.7913 34.2477 56.8229 34.51C56.8699 34.9033 56.9127 35.2967 56.9539 35.6907C57.0409 36.5207 57.1325 37.3502 57.2245 38.1797C57.258 38.4828 57.2915 38.7859 57.325 39.089C57.3945 39.7173 57.4642 40.3456 57.534 40.9738C57.6237 41.7806 57.7125 42.5874 57.8012 43.3943C57.8698 44.0169 57.9389 44.6395 58.0081 45.2621C58.0411 45.56 58.0739 45.8579 58.1066 46.1558C58.1519 46.5687 58.198 46.9815 58.2442 47.3944C58.2576 47.5177 58.271 47.6411 58.2847 47.7682C58.2974 47.8797 58.31 47.9912 58.323 48.1061C58.3338 48.2034 58.3446 48.3008 58.3557 48.4011C58.373 48.626 58.373 48.626 58.5214 48.75C59.9877 48.75 61.454 48.75 62.9647 48.75C62.9647 43.0524 62.9647 37.3547 62.9647 31.4844C61.0376 31.4844 59.1104 31.4844 57.1249 31.4844ZM14.3417 50.2735C13.7193 51.0559 13.2219 51.7888 13.326 52.8125C13.5097 53.3206 13.7412 53.6322 14.175 53.9551C14.735 54.1241 15.1768 54.1189 15.7382 53.9551C16.4503 53.4748 16.8619 52.5947 17.1346 51.7969C17.1645 51.2587 17.0571 50.8563 16.7002 50.4475C16.3248 50.1214 16.0105 49.9058 15.516 49.8609C15.0087 49.8999 14.7633 49.9836 14.3417 50.2735ZM18.904 53.4711C18.4048 54.1959 18.0154 54.822 18.1503 55.7324C18.412 56.2185 18.6761 56.6091 19.1659 56.875C19.6548 57.0018 19.9586 57.0313 20.4434 56.883C21.1976 56.3533 21.7976 55.5108 21.9589 54.5899C21.9532 54.0927 21.8289 53.7343 21.5244 53.3412C21.1443 52.9697 20.831 52.7646 20.2926 52.7411C19.6487 52.8346 19.3461 53.0022 18.904 53.4711ZM23.8632 56.1133C23.2616 56.9021 22.8892 57.646 22.9745 58.6524C23.2604 59.203 23.538 59.558 24.1171 59.7949C24.6964 59.8593 24.9979 59.8542 25.5294 59.6204C26.1583 59.0461 26.5473 58.3684 26.7989 57.5574C26.7775 56.9782 26.6398 56.5674 26.2753 56.1133C25.4245 55.5034 24.7083 55.4834 23.8632 56.1133ZM28.8143 58.9063C28.1877 59.6993 27.7096 60.4118 27.7987 61.4453C28.0289 62.0974 28.3231 62.4058 28.9413 62.7149C29.5102 62.7976 29.9967 62.7485 30.492 62.4337C31.083 61.8426 31.571 60.9194 31.6331 60.0816C31.5453 59.5604 31.3707 59.3069 31.0201 58.9063C30.2601 58.4559 29.5634 58.3526 28.8143 58.9063Z" fill="white"/>
<path d="M59.1641 10.9735C59.7046 11.2855 60.1462 11.7101 60.6003 12.1344C60.927 12.4354 61.2627 12.7173 61.6079 12.9968C62.2817 13.5425 62.9449 14.0995 63.6045 14.6621C63.8238 14.8479 64.0446 15.0319 64.269 15.2116C64.753 15.6016 65.0648 15.9052 65.2499 16.5039C65.3304 17.2826 65.4146 18.1495 64.9429 18.8228C64.1825 19.6564 63.2995 20.3631 62.4138 21.0578C62.0935 21.3142 61.7814 21.5778 61.4702 21.845C59.0619 23.9118 59.0619 23.9118 57.5975 23.8945C56.8206 23.8332 56.3489 23.4251 55.8554 22.8516C55.6128 22.4333 55.4745 22.1935 55.4745 21.709C55.2443 21.7095 55.2443 21.7095 55.0094 21.71C51.3649 21.7183 47.7204 21.7246 44.0758 21.7284C43.6271 21.7289 43.1784 21.7294 42.7296 21.7299C42.5956 21.7301 42.5956 21.7301 42.4589 21.7302C41.0131 21.7319 39.5673 21.7349 38.1214 21.7384C36.6375 21.7419 35.1536 21.744 33.6696 21.7448C32.8363 21.7453 32.003 21.7465 31.1696 21.7492C30.3852 21.7518 29.6008 21.7526 28.8163 21.7521C28.5285 21.7522 28.2407 21.7529 27.9529 21.7544C27.5596 21.7563 27.1664 21.7558 26.7732 21.7548C26.6595 21.7559 26.5459 21.757 26.4289 21.7581C25.4334 21.751 24.5613 21.5171 23.8284 20.8079C22.9749 19.8672 22.8728 18.8115 22.8918 17.5894C22.8952 17.3293 22.8918 17.0699 22.8877 16.8099C22.8847 15.6687 23.041 14.7181 23.8284 13.8503C24.6707 13.0352 25.6501 12.8924 26.7732 12.9034C26.8964 12.9031 27.0196 12.9028 27.1465 12.9024C27.5574 12.9018 27.9683 12.9039 28.3792 12.906C28.6745 12.9061 28.9699 12.906 29.2652 12.9058C30.0657 12.9057 30.8661 12.9079 31.6665 12.9106C32.4187 12.9127 33.1709 12.9131 33.923 12.9135C35.4123 12.9143 36.9016 12.9169 38.3909 12.9205C39.8371 12.924 41.2834 12.9267 42.7296 12.9283C42.8188 12.9284 42.9081 12.9285 43 12.9286C43.4476 12.9291 43.8953 12.9296 44.3429 12.93C48.0535 12.934 51.764 12.9407 55.4745 12.9492C55.4911 12.8317 55.5076 12.7142 55.5246 12.5931C55.6519 11.9215 55.9581 11.54 56.4981 11.1322C57.297 10.6733 58.3093 10.5897 59.1641 10.9735ZM57.7597 13.0762C57.741 13.2482 57.741 13.2482 57.722 13.4238C57.703 13.5735 57.684 13.7233 57.6645 13.8776C57.6468 14.0263 57.6291 14.1751 57.6109 14.3283C57.5058 14.7266 57.5058 14.7266 57.3226 14.939C56.8154 15.2021 56.3235 15.1587 55.7604 15.1538C55.6334 15.1542 55.5064 15.1546 55.3755 15.155C54.9487 15.1558 54.522 15.154 54.0952 15.1522C53.7897 15.1523 53.4842 15.1526 53.1787 15.1531C52.5203 15.1537 51.8619 15.1532 51.2034 15.1518C50.2507 15.1498 49.2981 15.1505 48.3454 15.152C46.7988 15.1544 45.2522 15.1556 43.7057 15.1555C43.6131 15.1555 43.5205 15.1555 43.4252 15.1555C42.3924 15.1555 41.3596 15.155 40.3268 15.1541C40.234 15.1541 40.1411 15.154 40.0455 15.1539C39.9527 15.1538 39.86 15.1537 39.7644 15.1536C39.5774 15.1535 39.3903 15.1533 39.2033 15.1532C39.1109 15.1531 39.0185 15.153 38.9233 15.1529C37.3826 15.1517 35.842 15.1528 34.3014 15.156C33.351 15.1578 32.4007 15.1575 31.4504 15.1546C30.7224 15.1525 29.9944 15.1537 29.2664 15.156C28.9676 15.1565 28.6687 15.1558 28.3699 15.154C27.9626 15.1517 27.5555 15.1532 27.1482 15.1558C27.0293 15.1542 26.9105 15.1526 26.7881 15.1509C26.2137 15.1586 25.9716 15.1748 25.5038 15.536C25.2296 15.9102 25.1782 16.0888 25.1754 16.5475C25.1746 16.6744 25.1737 16.8012 25.1729 16.9319C25.1753 17.063 25.1778 17.194 25.1803 17.3291C25.1779 17.4602 25.1754 17.5913 25.1729 17.7263C25.1737 17.8531 25.1745 17.98 25.1754 18.1107C25.1761 18.2256 25.1768 18.3406 25.1775 18.459C25.299 18.9472 25.4968 19.1167 25.8944 19.4238C26.3122 19.5168 26.7216 19.5082 27.1482 19.5024C27.2754 19.5032 27.4026 19.504 27.5336 19.5048C27.9603 19.5067 28.3869 19.5041 28.8137 19.5015C29.1194 19.5019 29.4251 19.5027 29.7308 19.5037C30.3893 19.5052 31.0478 19.5049 31.7063 19.5028C32.6589 19.4999 33.6115 19.5008 34.5642 19.5027C36.1106 19.5058 37.6569 19.5064 39.2033 19.505C39.2958 19.5049 39.3883 19.5049 39.4837 19.5048C39.6709 19.5046 39.8582 19.5045 40.0455 19.5043C40.1383 19.5042 40.2312 19.5041 40.3268 19.5041C40.4662 19.5039 40.4662 19.5039 40.6084 19.5038C41.6409 19.503 42.6733 19.5027 43.7057 19.5027C43.7981 19.5027 43.8906 19.5027 43.9858 19.5027C45.5266 19.5027 47.0674 19.5042 48.6081 19.5066C49.5586 19.508 50.509 19.5079 51.4594 19.5058C52.1872 19.5044 52.9149 19.5047 53.6427 19.5058C53.9416 19.5059 54.2404 19.5053 54.5393 19.5041C54.9464 19.5025 55.3533 19.5032 55.7604 19.5044C55.939 19.5029 55.939 19.5029 56.1213 19.5013C56.9138 19.5071 56.9138 19.5071 57.3226 19.7192C57.6036 20.0451 57.6144 20.3594 57.6645 20.7806C57.6929 21.0052 57.6929 21.0052 57.722 21.2344C57.7406 21.4065 57.7406 21.4065 57.7597 21.582C58.3344 21.4709 58.6751 21.1374 59.1006 20.7568C59.2604 20.6169 59.4202 20.477 59.5802 20.3373C59.6985 20.2335 59.6985 20.2335 59.8191 20.1276C60.2351 19.7664 60.6641 19.4215 61.0917 19.0742C61.7205 18.5614 62.3422 18.0399 62.9648 17.5195C62.9321 17.1073 62.8166 16.9912 62.5135 16.6968C62.374 16.581 62.2334 16.4666 62.092 16.3531C62.0174 16.2918 61.9429 16.2304 61.8661 16.1672C61.6408 15.9821 61.4142 15.7985 61.1874 15.6152C60.9546 15.4249 60.7219 15.2344 60.4892 15.0439C60.3779 14.9538 60.2666 14.8636 60.152 14.7707C59.8814 14.5474 59.6151 14.3215 59.3506 14.0913C59.276 14.0268 59.2015 13.9623 59.1247 13.8959C58.979 13.7696 58.834 13.6425 58.6898 13.5146C58.2858 13.1499 58.2858 13.1499 57.7597 13.0762Z" fill="white"/>
<path d="M8.69069 0.115493C9.24427 0.43972 9.60374 0.819222 9.89823 1.39643C9.94561 1.64944 9.98868 1.90334 10.0252 2.15815C10.1791 2.15756 10.333 2.15698 10.4915 2.15638C14.1475 2.14262 17.8034 2.13216 21.4594 2.12574C21.9097 2.12494 22.3601 2.12412 22.8104 2.12328C22.9449 2.12303 22.9449 2.12303 23.082 2.12278C24.5322 2.12002 25.9824 2.11501 27.4325 2.10918C28.9214 2.10323 30.4102 2.09971 31.899 2.09843C32.7349 2.0976 33.5708 2.09566 34.4067 2.09104C35.1938 2.08672 35.9809 2.0854 36.7681 2.08635C37.0566 2.08618 37.3452 2.08492 37.6337 2.08248C38.0286 2.07931 38.4233 2.08009 38.8182 2.08182C38.9315 2.07997 39.0449 2.07812 39.1617 2.07621C40.0987 2.08725 40.9261 2.37618 41.6267 3.01578C42.5305 3.98222 42.5869 4.9266 42.5748 6.20872C42.5728 6.46561 42.5748 6.72226 42.5773 6.97915C42.5741 8.04087 42.4941 8.8069 41.946 9.72773C40.9152 10.732 39.909 10.9377 38.5281 10.9332C38.4062 10.9333 38.2844 10.9334 38.1588 10.9335C37.7503 10.9337 37.3417 10.933 36.9331 10.9323C36.6404 10.9323 36.3476 10.9323 36.0548 10.9324C35.2596 10.9324 34.4644 10.9317 33.6691 10.9308C32.8382 10.93 32.0073 10.9299 31.1764 10.9298C29.7816 10.9294 28.3869 10.9286 26.9921 10.9275C25.5556 10.9263 24.1191 10.9254 22.6825 10.9249C22.594 10.9249 22.5054 10.9248 22.4141 10.9248C21.9698 10.9246 21.5255 10.9245 21.0812 10.9243C17.3958 10.923 13.7105 10.9207 10.0252 10.9179C10.0088 11.0146 9.99245 11.1114 9.97559 11.211C9.81319 11.9283 9.35523 12.4225 8.75565 12.8222C7.97893 13.1674 7.29863 13.1901 6.51017 12.9095C5.85975 12.5494 5.31548 12.0396 4.75762 11.5537C4.31459 11.1694 3.85565 10.8085 3.39188 10.4498C2.78557 9.97896 2.20024 9.49432 1.63338 8.97593C1.41678 8.78161 1.19423 8.60398 0.963905 8.42646C0.469406 7.97906 0.275773 7.64612 0.214088 6.97443C0.185752 5.93547 0.287831 5.29592 1.01151 4.53059C1.49495 4.06839 2.01215 3.64988 2.53297 3.2308C2.86589 2.96041 3.19311 2.68515 3.51881 2.4062C6.94181 -0.524206 6.94181 -0.524206 8.69069 0.115493ZM6.53397 2.97541C6.37291 3.11671 6.21174 3.25788 6.05046 3.39892C5.93094 3.50392 5.93094 3.50392 5.80901 3.61104C5.50333 3.87678 5.19037 4.13283 4.87565 4.38776C4.08547 5.02934 3.31023 5.68818 2.53495 6.3476C2.57763 6.71448 2.65154 6.84542 2.92176 7.10585C3.03501 7.1934 3.14825 7.28096 3.26493 7.37116C3.39127 7.47083 3.51761 7.57049 3.64777 7.67317C3.74854 7.75225 3.74854 7.75225 3.85134 7.83292C4.20221 8.11267 4.54235 8.40487 4.88358 8.69624C5.41323 9.1456 5.94384 9.5937 6.47843 10.0372C6.58726 10.1277 6.69609 10.2182 6.80821 10.3114C7.07023 10.5104 7.31362 10.6575 7.61307 10.791C7.86142 10.5426 7.77945 10.0668 7.79408 9.72971C7.89449 9.26799 8.02512 9.08225 8.37479 8.75971C8.78642 8.66359 9.19218 8.67487 9.61325 8.68027C9.80389 8.67895 9.80389 8.67895 9.99837 8.6776C10.4255 8.6754 10.8525 8.67773 11.2796 8.68003C11.5853 8.67937 11.891 8.67843 12.1966 8.67723C12.8555 8.67525 13.5143 8.67519 14.1732 8.67685C15.1264 8.67921 16.0795 8.67785 17.0326 8.67552C18.5798 8.67182 20.1269 8.67076 21.6741 8.67153C23.1757 8.67228 24.6774 8.67241 26.179 8.67128C26.2715 8.67122 26.364 8.67115 26.4593 8.67108C27.4688 8.67029 28.4783 8.66918 29.4879 8.6676C29.5766 8.66747 29.6653 8.66733 29.7567 8.66718C30.1113 8.66662 30.4659 8.66605 30.8205 8.66544C31.859 8.66365 32.8975 8.66288 33.9361 8.66399C34.6643 8.66472 35.3925 8.66426 36.1207 8.66337C36.4198 8.66324 36.7189 8.66354 37.018 8.66431C37.4253 8.6653 37.8325 8.66476 38.2398 8.66384C38.359 8.66452 38.4782 8.6652 38.6011 8.6659C38.7646 8.66506 38.7646 8.66506 38.9315 8.66421C39.0255 8.66427 39.1195 8.66432 39.2164 8.66438C39.5259 8.62701 39.7228 8.54515 39.9861 8.37885C40.371 7.80154 40.2918 7.23331 40.2956 6.5539C40.2997 6.42167 40.3039 6.28944 40.3082 6.15321C40.3096 5.96124 40.3096 5.96124 40.3109 5.7654C40.3126 5.64882 40.3144 5.53224 40.3161 5.41213C40.2036 4.91816 40.0052 4.75223 39.6053 4.44331C39.191 4.35028 38.7852 4.35837 38.362 4.36386C38.236 4.36298 38.1099 4.3621 37.98 4.36119C37.5571 4.359 37.1343 4.36132 36.7114 4.36362C36.4084 4.36296 36.1054 4.36202 35.8024 4.36082C35.0646 4.35859 34.3268 4.35923 33.589 4.36108C32.7297 4.36305 31.8705 4.36123 31.0112 4.35911C29.4781 4.35541 27.945 4.35435 26.4119 4.35513C24.9243 4.35587 23.4367 4.35601 21.949 4.35488C21.8574 4.35481 21.7658 4.35474 21.6714 4.35467C20.6711 4.35389 19.6708 4.35278 18.6705 4.3512C18.5386 4.35099 18.5386 4.35099 18.4041 4.35078C18.0526 4.35022 17.7011 4.34965 17.3497 4.34903C16.2369 4.3471 15.1241 4.34667 14.0113 4.34784C13.3736 4.3483 12.7359 4.34775 12.0983 4.34697C11.8021 4.34683 11.5059 4.34713 11.2098 4.3479C10.8061 4.3489 10.4025 4.34835 9.99889 4.34743C9.82226 4.34845 9.82226 4.34845 9.64206 4.34949C9.08398 4.34662 8.6214 4.34151 8.12089 4.06245C7.85826 3.69186 7.82287 3.33445 7.78763 2.88813C7.77814 2.77488 7.76865 2.66164 7.75887 2.54496C7.75265 2.45921 7.74643 2.37345 7.74003 2.2851C7.18748 2.2851 6.92617 2.62408 6.53397 2.97541Z" fill="white"/>
</g>
<defs>
<clipPath id="clip0_297_332">
<rect width="65" height="65" fill="white" transform="translate(0.25)"/>
</clipPath>
</defs>
</svg>
