<svg width="80" height="65" viewBox="0 0 80 65" fill="none" xmlns="http://www.w3.org/2000/svg">
<g clip-path="url(#clip0_308_521)">
<path d="M11.3255 2.24355C11.5661 2.24112 11.5661 2.24112 11.8116 2.23865C11.9876 2.24003 12.1636 2.24142 12.345 2.24284C12.6257 2.24139 12.6257 2.24139 12.9121 2.23991C13.4319 2.23787 13.9515 2.23861 14.4712 2.24052C15.0317 2.24192 15.592 2.23976 16.1524 2.23806C17.2504 2.2353 18.3482 2.2359 19.4462 2.2377C20.3383 2.23909 21.2304 2.23928 22.1226 2.23861C22.3129 2.23847 22.3129 2.23847 22.507 2.23832C22.7648 2.23812 23.0225 2.23792 23.2802 2.23772C25.6981 2.23595 28.116 2.23799 30.5338 2.24131C32.6094 2.24408 34.6849 2.2436 36.7605 2.24074C39.1696 2.23743 41.5787 2.23612 43.9878 2.23803C44.2446 2.23822 44.5014 2.23842 44.7582 2.23861C44.8845 2.2387 45.0109 2.2388 45.141 2.2389C46.0323 2.23943 46.9236 2.23853 47.8149 2.23707C48.9007 2.23534 49.9866 2.2358 51.0724 2.2391C51.6267 2.24073 52.1809 2.24137 52.7351 2.23932C53.3354 2.23714 53.9355 2.23974 54.5357 2.24284C54.7998 2.24077 54.7998 2.24077 55.0691 2.23865C55.2295 2.24027 55.39 2.24188 55.5553 2.24355C55.6938 2.24365 55.8324 2.24375 55.9752 2.24385C56.475 2.34869 56.6582 2.53738 56.9642 2.94049C57.0418 3.27864 57.0418 3.27864 57.0421 3.65302C57.0437 3.79619 57.0453 3.93936 57.047 4.08688C57.0456 4.24362 57.0442 4.40037 57.0428 4.56187C57.0442 4.81227 57.0442 4.81227 57.0457 5.06773C57.0482 5.62902 57.0462 6.19021 57.0443 6.75151C57.0451 7.15312 57.0462 7.55474 57.0476 7.95635C57.0503 8.9351 57.0497 9.91381 57.0479 10.8926C57.0465 11.6879 57.0463 12.4832 57.047 13.2786C57.0471 13.3917 57.0472 13.5048 57.0473 13.6214C57.0475 13.8512 57.0477 14.081 57.0479 14.3108C57.0497 16.4665 57.0476 18.6222 57.0443 20.778C57.0415 22.6283 57.042 24.4786 57.0449 26.3289C57.0482 28.4768 57.0495 30.6247 57.0476 32.7727C57.0474 33.0016 57.0472 33.2306 57.047 33.4596C57.0469 33.6286 57.0469 33.6286 57.0467 33.801C57.0462 34.5955 57.0471 35.39 57.0485 36.1845C57.0505 37.2536 57.0491 38.3226 57.0455 39.3917C57.0447 39.7847 57.0449 40.1778 57.0463 40.5708C57.048 41.106 57.0459 41.6411 57.0428 42.1763C57.0449 42.4114 57.0449 42.4114 57.047 42.6513C57.0353 43.6893 57.0353 43.6893 56.6976 44.2039C56.2865 44.4521 56.0572 44.493 55.5788 44.4908C55.4246 44.4916 55.2703 44.4924 55.1114 44.4932C54.9431 44.491 54.7748 44.4887 54.6014 44.4864C54.4235 44.4865 54.2455 44.4867 54.0621 44.4868C53.6754 44.4867 53.2888 44.4851 52.9021 44.4824C52.29 44.4783 51.678 44.4783 51.0658 44.4794C49.5452 44.4818 48.0246 44.4784 46.504 44.472C45.3226 44.4671 44.1413 44.4641 42.9599 44.4676C42.4515 44.4689 41.9432 44.4678 41.4348 44.4635C40.8672 44.4587 40.2998 44.4596 39.7322 44.4617C39.4812 44.4574 39.4812 44.4574 39.2251 44.453C38.4255 44.4616 37.9191 44.4954 37.3031 45.0329C37.2242 45.1163 37.1453 45.1997 37.064 45.2856C36.6018 45.7384 36.0505 45.6756 35.4426 45.6741C35.278 45.6745 35.1134 45.6749 34.9438 45.6753C34.5237 45.6548 34.5237 45.6548 34.2142 45.5C34.1615 45.6341 34.1615 45.6341 34.1078 45.7709C33.7637 46.3606 33.3076 46.6792 32.6665 46.8929C31.4662 46.9918 30.5554 47.0062 29.5713 46.2738C29.5426 46.3824 29.5139 46.4909 29.4843 46.6027C29.1433 47.2846 28.5514 47.7897 27.8689 48.131C26.6565 48.2344 25.7703 48.2329 24.7737 47.5119C24.5684 47.4067 24.3626 47.3022 24.1546 47.2024C23.9392 47.3891 23.9392 47.3891 23.7194 47.5796C22.9799 48.2205 22.2156 48.2045 21.268 48.1908C19.8231 48.0239 19.0065 46.8578 18.1443 45.7944C17.8094 45.3453 17.8094 45.3453 17.6509 44.9358C17.3894 44.5499 17.3894 44.5499 17.0448 44.5023C16.6387 44.4768 16.2388 44.4766 15.832 44.4838C15.6084 44.4825 15.6084 44.4825 15.3804 44.4812C14.9035 44.4786 14.4269 44.481 13.95 44.4844C13.4738 44.487 12.9976 44.4884 12.5213 44.486C12.2249 44.4845 11.9284 44.486 11.632 44.4906C11.4973 44.49 11.3625 44.4895 11.2236 44.4889C11.1054 44.4898 10.9872 44.4908 10.8654 44.4918C10.3784 44.3809 10.207 44.2017 9.91655 43.7976C9.85858 43.392 9.83791 43.0524 9.84627 42.6477C9.84618 42.5328 9.84609 42.418 9.846 42.2997C9.84643 41.9212 9.85124 41.5428 9.8561 41.1643C9.85725 40.9014 9.85813 40.6386 9.85875 40.3758C9.86111 39.6848 9.86719 38.9938 9.87404 38.3028C9.88038 37.5974 9.88321 36.8919 9.88632 36.1865C9.89296 34.8029 9.90352 33.4193 9.91655 32.0357C9.74471 32.005 9.74471 32.005 9.56939 31.9736C9.18878 31.891 8.86493 31.7861 8.5068 31.6366C8.38682 31.587 8.26683 31.5373 8.14321 31.4861C8.01521 31.4323 7.88721 31.3785 7.75532 31.323C7.62072 31.267 7.48611 31.211 7.34743 31.1534C6.91706 30.9742 6.48712 30.794 6.05718 30.6139C5.77337 30.4956 5.48954 30.3774 5.20568 30.2593C3.67684 29.6223 2.15186 28.9769 0.630836 28.3214C0.937265 27.5043 1.24369 26.6872 1.55941 25.8453C2.93965 26.2095 4.21874 26.7625 5.52544 27.3279C6.20742 27.6228 6.89071 27.9146 7.57396 28.2066C7.71468 28.2668 7.8554 28.3269 8.00039 28.3889C9.42274 28.9961 10.8505 29.5898 12.2809 30.1777C12.5485 30.2878 12.8161 30.398 13.0836 30.5085C13.4556 30.6621 13.8279 30.8149 14.2003 30.9675C14.3111 31.0133 14.4219 31.0591 14.536 31.1063C15.0719 31.3381 15.0719 31.3381 15.6427 31.4167C15.8277 31.1774 15.8277 31.1774 16.003 30.8593C16.0748 30.7371 16.1465 30.6148 16.2203 30.4889C16.2979 30.3546 16.3754 30.2202 16.4552 30.0819C17.4089 28.4591 18.4134 26.8724 19.4295 25.2882C19.7703 24.754 20.1057 24.2166 20.4404 23.6786C20.3326 23.6407 20.2249 23.6028 20.1139 23.5637C19.5996 23.34 19.1586 23.0478 18.6993 22.7307C17.631 22.0058 16.5476 21.3064 15.459 20.6124C13.8866 19.609 12.3198 18.5974 10.7573 17.5787C10.1066 17.1546 9.45541 16.7313 8.8042 16.3081C8.6756 16.2245 8.547 16.1409 8.4145 16.0547C7.59059 15.5192 6.76612 14.9847 5.9411 14.4509C5.83512 14.3823 5.72914 14.3137 5.61994 14.243C5.06737 13.8855 4.51432 13.5287 3.96064 13.1729C2.78284 12.4151 1.6131 11.6519 0.476074 10.8334C0.624117 10.5591 0.772494 10.2851 0.921015 10.0112C1.00361 9.85856 1.0862 9.70595 1.17129 9.54871C1.40465 9.13097 1.40465 9.13097 1.71417 8.66669C2.36708 8.76462 2.87229 9.13011 3.41655 9.47919C3.57687 9.58074 3.57687 9.58074 3.74043 9.68435C4.09757 9.91134 4.45363 10.1399 4.80941 10.3691C4.93758 10.4516 5.06576 10.5342 5.19782 10.6192C6.43125 11.4151 7.66036 12.217 8.88143 13.0317C9.12954 13.1972 9.12954 13.1972 9.38266 13.366C9.50777 13.4495 9.63288 13.533 9.76179 13.6191C9.76235 13.4867 9.76292 13.3543 9.7635 13.2178C9.76936 11.9699 9.77816 10.7221 9.79025 9.4742C9.79636 8.83266 9.80134 8.19114 9.80373 7.54957C9.80607 6.9304 9.8114 6.31131 9.81879 5.69217C9.82108 5.45598 9.82231 5.21978 9.82244 4.98357C9.8228 4.65263 9.82699 4.32193 9.83207 3.99103C9.83413 3.70854 9.83413 3.70854 9.83623 3.42034C9.98233 2.54749 10.4733 2.24416 11.3255 2.24355ZM12.3927 4.79764C12.3417 6.52768 12.2906 8.25773 12.238 10.0402C12.2154 10.5836 12.1929 11.127 12.1697 11.6869C12.0301 13.8429 12.0301 13.8429 12.6153 15.844C13.1713 16.3988 13.8151 16.6679 14.5524 16.9102C15.0171 17.0771 15.3938 17.3413 15.7969 17.6229C16.0057 17.7595 16.0057 17.7595 16.2187 17.8989C16.3574 17.9899 16.4961 18.081 16.639 18.1749C16.9445 18.3748 17.25 18.5747 17.5555 18.7746C17.703 18.8711 17.8506 18.9677 18.0026 19.0672C18.7137 19.5315 19.4273 19.9921 20.1417 20.4515C20.2361 20.5124 20.3304 20.5732 20.4277 20.6359C20.5276 20.6984 20.6274 20.7608 20.7304 20.8251C21.0594 21.0476 21.0594 21.0476 21.4263 21.3558C22.9286 22.5373 24.5207 22.5849 26.3697 22.7403C26.6771 22.7702 26.9845 22.8005 27.2919 22.8313C28.1542 22.916 29.0171 22.9904 29.8808 23.0595C29.9926 23.0685 30.1043 23.0775 30.2194 23.0868C31.82 23.2122 33.4215 23.2575 35.0262 23.2881C38.9041 23.365 38.9041 23.365 39.9404 24.2976C40.6874 25.1484 40.8938 26.1919 40.8562 27.3046C40.7037 28.2734 40.2157 28.9325 39.4761 29.5595C37.696 30.7391 35.1975 30.7243 33.1308 30.7976C33.8532 32.9649 35.0497 34.9448 36.0713 36.9881C41.3317 36.9881 46.592 36.9881 52.0118 36.9881C52.0118 37.8053 52.0118 38.6224 52.0118 39.4643C47.2111 39.4643 42.4104 39.4643 37.4642 39.4643C37.7429 40.3006 38.0654 41.122 38.3927 41.9405C43.7042 41.9405 49.0156 41.9405 54.488 41.9405C54.488 29.6834 54.488 17.4262 54.488 4.79764C49.5851 4.79764 44.6823 4.79764 39.6308 4.79764C39.5983 8.64757 39.5983 8.64757 39.5708 12.4975C39.5631 13.242 39.5631 13.242 39.5589 13.5905C39.5564 13.834 39.5548 14.0775 39.5539 14.321C39.5524 14.6897 39.548 15.0584 39.543 15.4271C39.5432 15.5356 39.5434 15.6442 39.5437 15.756C39.5355 16.1728 39.5142 16.4922 39.3065 16.8587C38.8528 17.1129 38.4608 17.0829 37.9436 17.0839C37.7816 17.0851 37.7816 17.0851 37.6163 17.0864C37.2592 17.0884 36.9023 17.0871 36.5453 17.0855C36.2972 17.0858 36.0492 17.0863 35.8011 17.0868C35.2812 17.0875 34.7614 17.0865 34.2415 17.0844C33.5748 17.0817 32.9082 17.0832 32.2416 17.086C31.7293 17.0877 31.2171 17.0872 30.7049 17.086C30.4591 17.0856 30.2133 17.086 29.9674 17.0871C29.624 17.0883 29.2806 17.0865 28.9372 17.0839C28.7416 17.0835 28.5461 17.0832 28.3447 17.0828C27.8689 17.0238 27.8689 17.0238 27.5742 16.8587C27.314 16.3996 27.3367 15.9411 27.3377 15.4271C27.3361 15.3105 27.3346 15.1938 27.3329 15.0737C27.3283 14.6962 27.3268 14.3188 27.3255 13.9413C27.3231 13.7082 27.3205 13.4751 27.3176 13.242C27.3087 12.3779 27.3037 11.5137 27.2982 10.6496C27.2823 8.71843 27.2663 6.7873 27.2499 4.79764C22.347 4.79764 17.4442 4.79764 12.3927 4.79764ZM29.7261 4.79764C29.7261 8.06621 29.7261 11.3348 29.7261 14.7024C32.1775 14.7024 34.6289 14.7024 37.1546 14.7024C37.1546 11.4338 37.1546 8.16526 37.1546 4.79764C34.7032 4.79764 32.2518 4.79764 29.7261 4.79764ZM22.5941 25.1735C22.2849 25.5804 22.0678 26.0099 21.8332 26.4643C21.6281 26.8145 21.4178 27.1612 21.2073 27.5082C20.967 27.9047 20.7303 28.3031 20.4936 28.7017C19.7022 30.0238 18.8654 31.3175 18.0315 32.613C17.9582 32.729 17.8849 32.8449 17.8094 32.9643C17.682 33.1653 17.682 33.1653 17.5521 33.3703C17.165 34.0582 17.3095 34.8276 17.3451 35.5953C17.3523 35.8505 17.3523 35.8505 17.3596 36.1109C17.5172 39.5574 18.8159 42.634 21.1561 45.1657C21.2774 45.276 21.3987 45.3864 21.5237 45.5C21.8758 45.4931 21.8758 45.4931 22.1427 45.3453C22.2361 44.5387 22.2108 44.1075 21.7081 43.4555C21.5239 43.2381 21.3366 43.0233 21.1465 42.811C20.9595 42.5939 20.7727 42.3767 20.5861 42.1593C20.4608 42.018 20.4608 42.018 20.3331 41.8738C20.1308 41.631 20.1308 41.631 19.9761 41.3214C20.0647 41.2803 20.1532 41.2393 20.2445 41.1969C20.6118 41.0031 20.9235 40.7808 21.2529 40.5283C21.3622 40.4449 21.4715 40.3615 21.5841 40.2756C21.6663 40.2122 21.7485 40.1487 21.8332 40.0834C22.2993 40.288 22.5769 40.491 22.893 40.8886C23.0132 41.0382 23.0132 41.0382 23.1358 41.1908C23.2619 41.3512 23.2619 41.3512 23.3905 41.5149C23.4781 41.6246 23.5656 41.7342 23.6558 41.8472C23.9264 42.1869 24.1954 42.5279 24.4642 42.8691C24.6306 43.0789 24.797 43.2887 24.9635 43.4984C26.0945 44.9276 26.0945 44.9276 26.4761 45.5C26.6804 45.5 26.8846 45.5 27.0951 45.5C27.2433 44.3887 26.8103 43.6045 26.1666 42.7143C25.4868 41.9501 24.7452 41.247 23.9999 40.5476C24.2483 40.0198 24.5269 39.6782 24.9478 39.2709C25.0599 39.1615 25.172 39.0522 25.2876 38.9396C25.4162 38.8163 25.4162 38.8163 25.5475 38.6905C26.0269 38.9031 26.3462 39.1446 26.71 39.5206C26.8133 39.6265 26.9166 39.7323 27.0231 39.8413C27.133 39.9553 27.243 40.0693 27.3563 40.1867C27.5912 40.4263 27.8261 40.6658 28.0612 40.9052C28.4308 41.2835 28.7998 41.6624 29.1676 42.0425C29.523 42.409 29.8806 42.7731 30.2387 43.1369C30.3487 43.2518 30.4586 43.3667 30.5719 43.4851C30.6752 43.5895 30.7785 43.6939 30.885 43.8014C30.9752 43.8943 31.0654 43.9872 31.1584 44.0829C31.4232 44.3014 31.4232 44.3014 31.7719 44.2133C31.8629 44.1783 31.9538 44.1433 32.0475 44.1072C31.9983 43.1702 31.569 42.6898 30.9835 42.0082C30.8937 41.9006 30.8038 41.793 30.7112 41.6821C30.4363 41.3539 30.159 41.0279 29.8808 40.7024C29.6408 40.4204 29.4008 40.1383 29.1611 39.8561C28.9553 39.6146 28.748 39.3744 28.5406 39.1342C28.1786 38.6907 27.8684 38.2429 27.5594 37.7619C27.8069 37.5321 28.0553 37.3034 28.3042 37.0752C28.5116 36.8839 28.5116 36.8839 28.7231 36.6889C29.107 36.3691 29.107 36.3691 29.5713 36.2143C29.6521 36.3139 29.7329 36.4134 29.8162 36.516C30.475 37.3249 31.1398 38.1276 31.8154 38.9226C32.8814 40.1783 33.9407 41.4346 34.8943 42.779C35.1581 43.0962 35.1581 43.0962 35.7618 43.0238C35.8261 42.1327 35.6306 41.5313 35.2219 40.7575C35.1646 40.6446 35.1072 40.5317 35.0481 40.4154C34.9239 40.1716 34.7987 39.9283 34.6727 39.6855C34.4729 39.3007 34.276 38.9144 34.0798 38.5277C33.592 37.5678 33.0997 36.6102 32.607 35.6528C32.1904 34.843 31.7758 34.0323 31.3639 33.22C31.1704 32.8404 30.974 32.4624 30.7775 32.0844C30.6584 31.8502 30.5395 31.616 30.4207 31.3817C30.3657 31.2778 30.3107 31.174 30.254 31.067C29.8831 30.324 29.8159 29.7708 29.8808 28.9405C30.0458 28.6367 30.0458 28.6367 30.3451 28.4762C30.8274 28.4049 30.8274 28.4049 31.4206 28.3849C31.6405 28.3752 31.8605 28.3654 32.0805 28.3556C32.4233 28.3431 32.7661 28.3313 33.109 28.3201C35.8595 28.3105 35.8595 28.3105 38.238 27.2381C38.3283 26.7804 38.3283 26.7804 38.238 26.3095C37.6478 25.8445 37.1872 25.7883 36.4485 25.7878C36.2402 25.7856 36.0319 25.7833 35.8236 25.7809C35.713 25.7804 35.6024 25.78 35.4885 25.7795C32.6598 25.7637 29.8606 25.5248 27.0465 25.2563C26.6395 25.2176 26.2325 25.1798 25.8254 25.142C25.3554 25.0983 24.8863 25.0501 24.4172 24.9976C24.1265 24.9686 24.1265 24.9686 23.83 24.9391C23.665 24.9209 23.5 24.9027 23.33 24.8839C22.9021 24.879 22.9021 24.879 22.5941 25.1735ZM12.3927 33.2738C12.3927 36.1338 12.3927 38.9938 12.3927 41.9405C13.5674 41.9405 14.742 41.9405 15.9523 41.9405C15.7991 41.3787 15.6458 40.8169 15.488 40.2381C14.9683 38.2417 14.9151 36.2554 14.8689 34.2024C14.5438 34.0466 14.218 33.892 13.892 33.7381C13.7107 33.6519 13.5293 33.5657 13.3425 33.477C12.8733 33.244 12.8733 33.244 12.3927 33.2738Z" fill="white"/>
<path d="M60.667 48.1534C60.773 48.1971 60.8789 48.2408 60.988 48.2858C61.0902 48.2347 61.1923 48.1836 61.2976 48.131C61.5211 48.1168 61.7453 48.1121 61.9693 48.1124C62.1809 48.1121 62.1809 48.1121 62.3968 48.1118C62.6295 48.1126 62.6295 48.1126 62.867 48.1134C63.0301 48.1134 63.1931 48.1134 63.3612 48.1134C63.9021 48.1135 64.4431 48.1147 64.984 48.1159C65.3583 48.1162 65.7326 48.1164 66.1069 48.1166C67.0936 48.1172 68.0802 48.1187 69.0669 48.1204C70.0731 48.122 71.0793 48.1227 72.0855 48.1235C74.061 48.1251 76.0364 48.1278 78.0118 48.131C78.0118 48.9482 78.0118 49.7653 78.0118 50.6072C73.109 50.6072 68.2061 50.6072 63.1547 50.6072C63.1547 53.0586 63.1547 55.5101 63.1547 58.0358C64.2152 58.0998 64.2152 58.0998 65.2972 58.1651C67.9036 58.326 70.5069 58.5212 73.1103 58.7253C73.6844 58.7702 74.2585 58.8146 74.8326 58.8592C75.9439 58.9454 77.0553 59.0321 78.1666 59.1191C78.1675 59.3428 78.1682 59.5664 78.1687 59.7901C78.1691 59.9147 78.1695 60.0392 78.1699 60.1675C78.1647 60.7053 78.0891 61.2186 78.0118 61.7501C76.2057 61.7889 74.4243 61.6678 72.6248 61.5294C72.3182 61.5062 72.0116 61.483 71.705 61.4599C71.0667 61.4114 70.4285 61.3623 69.7903 61.3127C68.9742 61.2495 68.1579 61.1887 67.3415 61.1286C66.7101 61.0817 66.0788 61.0331 65.4476 60.984C65.1466 60.9608 64.8455 60.9383 64.5444 60.9164C64.1241 60.8857 63.7039 60.8526 63.2838 60.8189C63.1609 60.8104 63.0379 60.802 62.9112 60.7932C62.1315 60.7274 61.5305 60.5646 60.8333 60.2024C60.7822 60.1003 60.7311 59.9982 60.6785 59.8929C59.6275 60.0491 58.6099 60.2915 57.5863 60.5712C52.6947 61.8991 52.6947 61.8991 50.7351 61.9048C50.6079 61.9066 50.4808 61.9085 50.3498 61.9103C49.4194 61.8733 48.5645 61.6161 47.6806 61.3459C47.5452 61.3049 47.4098 61.2638 47.2704 61.2216C45.6961 60.741 44.132 60.2297 42.5689 59.714C42.4145 59.6631 42.2601 59.6121 42.101 59.5597C41.2876 59.2913 40.4744 59.0222 39.6613 58.7527C38.9933 58.5314 38.3248 58.3115 37.6559 58.0927C36.8399 57.8258 36.0246 57.5565 35.2098 57.2857C34.9018 57.1837 34.5936 57.0825 34.2851 56.9822C33.8546 56.842 33.4252 56.6988 32.9959 56.555C32.808 56.4949 32.808 56.4949 32.6163 56.4336C31.5143 56.0582 30.366 55.4332 29.8222 54.3505C29.5558 53.412 29.6048 52.3927 29.8906 51.4681C30.8242 50.2333 32.0776 49.6163 33.5952 49.3691C36.1107 49.1623 38.4694 49.6138 40.9173 50.1429C41.2753 50.2178 41.6333 50.2923 41.9913 50.3666C42.856 50.5466 43.7199 50.7302 44.5833 50.9167C44.5792 50.6973 44.5792 50.6973 44.5751 50.4733C44.5908 49.5438 45.1577 48.9494 45.7923 48.3148C46.6046 47.8007 47.5687 47.712 48.5021 47.5744C48.9727 47.5035 49.4417 47.4247 49.9111 47.3463C53.6569 46.7416 57.1868 46.3794 60.667 48.1534ZM50.706 49.8914C50.5852 49.9086 50.4644 49.9258 50.3399 49.9435C49.9912 49.9936 49.6428 50.0455 49.2944 50.0982C49.1374 50.1212 49.1374 50.1212 48.9772 50.1446C48.0202 50.2763 48.0202 50.2763 47.2142 50.762C47.2079 51.0198 47.2076 51.2779 47.2142 51.5358C47.7541 51.8677 48.1806 51.8814 48.8078 51.8755C48.9943 51.8745 49.1808 51.8735 49.373 51.8725C49.5671 51.8699 49.7612 51.8673 49.9612 51.8646C50.1577 51.8632 50.3543 51.8619 50.5567 51.8604C51.0418 51.8568 51.5268 51.8512 52.0118 51.8453C52.0118 52.6624 52.0118 53.4796 52.0118 54.3215C51.3076 54.3135 50.6038 54.3036 49.8997 54.2894C49.6615 54.2851 49.4232 54.2818 49.1849 54.2796C47.7161 54.2652 46.3913 54.1257 44.9683 53.7325C43.6375 53.3675 42.277 53.1145 40.9254 52.8398C40.5848 52.7701 40.2443 52.6992 39.9042 52.6273C36.0716 51.7242 36.0716 51.7242 32.3571 52.6191C32.3571 52.8745 32.3571 53.1298 32.3571 53.3929C36.1705 54.707 39.9924 55.9954 43.8188 57.2714C44.1677 57.3878 44.5167 57.5043 44.8656 57.6208C45.4208 57.8062 45.9762 57.9914 46.5316 58.1763C46.7387 58.2453 46.9457 58.3143 47.1528 58.3834C47.4382 58.4787 47.7238 58.5737 48.0094 58.6686C48.2508 58.749 48.2508 58.749 48.4971 58.8311C51.2025 59.6906 53.9408 58.8095 56.587 58.1228C56.9681 58.0269 57.3492 57.9313 57.7305 57.836C58.4199 57.6621 59.1092 57.488 59.7974 57.3095C59.9344 57.2741 60.0714 57.2387 60.2125 57.2022C60.5203 57.1349 60.5203 57.1349 60.6785 56.9524C60.7386 56.1728 60.7536 55.3931 60.7667 54.6114C60.7724 54.3485 60.7808 54.0857 60.7921 53.8229C60.9109 52.3374 60.9109 52.3374 60.3956 51.0121C60.0329 50.7644 59.6972 50.6033 59.2856 50.4524C59.1157 50.3685 58.9457 50.2845 58.7706 50.1979C58.6214 50.1383 58.4721 50.0786 58.3184 50.0172C58.1676 49.9555 58.0167 49.8939 57.8614 49.8304C55.6132 49.0423 53.0039 49.5608 50.706 49.8914Z" fill="white"/>
<path d="M42.1069 32.0358C45.3755 32.0358 48.6441 32.0358 52.0117 32.0358C52.0117 32.8529 52.0117 33.6701 52.0117 34.512C48.7431 34.512 45.4746 34.512 42.1069 34.512C42.1069 33.6948 42.1069 32.8777 42.1069 32.0358Z" fill="white"/>
</g>
<defs>
<clipPath id="clip0_308_521">
<rect width="79.2381" height="65" fill="white" transform="translate(0.0117188)"/>
</clipPath>
</defs>
</svg>
