<svg width="25" height="25" viewBox="0 0 25 25" fill="none" xmlns="http://www.w3.org/2000/svg">
<g clip-path="url(#clip0_270_67386)">
<mask id="mask0_270_67386" style="mask-type:luminance" maskUnits="userSpaceOnUse" x="-4" y="0" width="33" height="25">
<rect x="-4" width="33" height="25" fill="white"/>
</mask>
<g mask="url(#mask0_270_67386)">
<path fill-rule="evenodd" clip-rule="evenodd" d="M-4 0V25H29V0H-4Z" fill="#2E42A5"/>
<mask id="mask1_270_67386" style="mask-type:luminance" maskUnits="userSpaceOnUse" x="-4" y="0" width="33" height="25">
<path fill-rule="evenodd" clip-rule="evenodd" d="M-4 0V25H29V0H-4Z" fill="white"/>
</mask>
<g mask="url(#mask1_270_67386)">
<mask id="mask2_270_67386" style="mask-type:luminance" maskUnits="userSpaceOnUse" x="-4" y="0" width="33" height="25">
<rect x="-4" width="33" height="25" fill="white"/>
</mask>
<g mask="url(#mask2_270_67386)">
<path d="M29.5472 25.7053L28.2504 31.614L0.368169 4.44334L-4.28357 -1.43514L-1.44822 -4.46944L10.2602 7.37447L18.8608 15.0405L29.5472 25.7053Z" fill="white"/>
<path d="M28.6221 27.9986L28.6404 31.4093L13.7 15.7577L11.0257 14.535L-6.43069 -3.04533L-4.5126 -4.0492L12.6834 13.0333L15.7196 14.5887L28.6221 27.9986Z" fill="#F50100"/>
<path d="M25.0982 -2.72243L30.952 -1.19737L2.72019 25.6097L-3.33433 30.0299L-6.25635 27.079L6.03288 15.8388L14.0268 7.54218L25.0982 -2.72243Z" fill="white"/>
<path d="M27.3536 -1.70905L30.7625 -1.59508L14.543 12.7268L13.2175 15.3517L-5.02684 32.113L-5.95554 30.1574L11.7812 13.637L13.4532 10.6635L27.3536 -1.70905Z" fill="#F50100"/>
<mask id="path-10-inside-1_270_67386" fill="white">
<path fill-rule="evenodd" clip-rule="evenodd" d="M16.6251 -2.08333H9.40637V9.375H-6.06238V16.6667H9.40637V27.0833H16.6251V16.6667H31.0626V9.375H16.6251V-2.08333Z"/>
</mask>
<path fill-rule="evenodd" clip-rule="evenodd" d="M16.6251 -2.08333H9.40637V9.375H-6.06238V16.6667H9.40637V27.0833H16.6251V16.6667H31.0626V9.375H16.6251V-2.08333Z" fill="#F50100"/>
<path d="M9.40637 -2.08333V-4.08333H7.40637V-2.08333H9.40637ZM16.6251 -2.08333H18.6251V-4.08333H16.6251V-2.08333ZM9.40637 9.375V11.375H11.4064V9.375H9.40637ZM-6.06238 9.375V7.375H-8.06238V9.375H-6.06238ZM-6.06238 16.6667H-8.06238V18.6667H-6.06238V16.6667ZM9.40637 16.6667H11.4064V14.6667H9.40637V16.6667ZM9.40637 27.0833H7.40637V29.0833H9.40637V27.0833ZM16.6251 27.0833V29.0833H18.6251V27.0833H16.6251ZM16.6251 16.6667V14.6667H14.6251V16.6667H16.6251ZM31.0626 16.6667V18.6667H33.0626V16.6667H31.0626ZM31.0626 9.375H33.0626V7.375H31.0626V9.375ZM16.6251 9.375H14.6251V11.375H16.6251V9.375ZM9.40637 -0.0833282H16.6251V-4.08333H9.40637V-0.0833282ZM11.4064 9.375V-2.08333H7.40637V9.375H11.4064ZM-6.06238 11.375H9.40637V7.375H-6.06238V11.375ZM-4.06238 16.6667V9.375H-8.06238V16.6667H-4.06238ZM9.40637 14.6667H-6.06238V18.6667H9.40637V14.6667ZM11.4064 27.0833V16.6667H7.40637V27.0833H11.4064ZM16.6251 25.0833H9.40637V29.0833H16.6251V25.0833ZM14.6251 16.6667V27.0833H18.6251V16.6667H14.6251ZM31.0626 14.6667H16.6251V18.6667H31.0626V14.6667ZM29.0626 9.375V16.6667H33.0626V9.375H29.0626ZM16.6251 11.375H31.0626V7.375H16.6251V11.375ZM14.6251 -2.08333V9.375H18.6251V-2.08333H14.6251Z" fill="white" mask="url(#path-10-inside-1_270_67386)"/>
</g>
</g>
</g>
</g>
<defs>
<clipPath id="clip0_270_67386">
<rect width="25" height="25" rx="8.2" fill="white"/>
</clipPath>
</defs>
</svg>
