<svg width="109" height="95" viewBox="0 0 109 95" fill="none" xmlns="http://www.w3.org/2000/svg">
<g filter="url(#filter0_di_67_141)">
<path d="M76.1991 0.463247C76.6814 1.18671 76.6814 1.56119 76.5897 2.41637C76.0666 2.90577 75.5432 3.12684 74.8662 3.33953C74.683 3.39904 74.4999 3.45855 74.3111 3.51987C74.1164 3.58272 73.9217 3.64556 73.7211 3.71032C70.63 4.75165 67.9228 6.12965 65.4569 8.27575C65.3564 8.36103 65.2559 8.44632 65.1524 8.53419C62.8885 10.4904 61.3852 12.9995 59.7929 15.5023C59.5113 15.9401 59.2295 16.3778 58.9475 16.8153C57.9757 18.3195 57.9757 18.3195 57.0302 19.8401C56.6679 20.3851 56.6679 20.3851 56.2117 20.8745C55.7229 21.4403 55.4698 21.8015 55.3007 22.5336C55.5378 23.6853 56.1967 24.7158 56.7708 25.7273C57.2556 26.5989 57.6831 27.4984 58.1205 28.3945C58.3003 28.7556 58.4806 29.1164 58.6614 29.4771C59.0319 30.2163 59.4016 30.9558 59.7707 31.6957C59.9489 32.052 60.1272 32.4083 60.3055 32.7646C60.3887 32.9314 60.4719 33.0981 60.5576 33.27C60.6341 33.4222 60.7105 33.5745 60.7892 33.7313C60.8564 33.8654 60.9235 33.9995 60.9927 34.1377C61.1404 34.4466 61.1404 34.4466 61.3554 34.6429C61.6662 34.6841 61.9786 34.713 62.2912 34.7368C62.4908 34.7524 62.6903 34.7681 62.8959 34.7842C63.1134 34.8003 63.3308 34.8163 63.5549 34.8329C63.7773 34.85 63.9997 34.867 64.2288 34.8846C64.7008 34.9207 65.1728 34.9563 65.6449 34.9915C66.366 35.0453 67.087 35.1005 67.8079 35.156C68.2661 35.1908 68.7242 35.2255 69.1823 35.2602C69.5056 35.2849 69.5056 35.2849 69.8354 35.3101C71.5878 35.5617 71.5878 35.5617 73.1817 35.0831C73.3597 34.9097 73.5377 34.7362 73.7211 34.5575C73.8236 34.459 73.9261 34.3605 74.0317 34.259C74.4328 33.8702 74.8278 33.4757 75.2225 33.0804C75.4122 32.891 75.602 32.7016 75.7917 32.5122C77.0788 31.2267 77.0788 31.2267 78.3604 29.9356C79.3048 28.982 80.2538 28.0493 81.2756 27.1775C82.1219 26.4287 82.9094 25.6168 83.7064 24.8163C83.9729 24.551 83.9729 24.551 84.2447 24.2803C84.4132 24.1115 84.5818 23.9427 84.7555 23.7688C84.9845 23.5394 84.9845 23.5394 85.2181 23.3054C85.5849 22.9487 85.5849 22.9487 85.7694 22.5336C85.6279 22.5137 85.4864 22.4938 85.3406 22.4733C83.7591 22.0834 82.3894 20.7089 81.4725 19.4086C80.412 17.6147 80.0442 16.0212 80.0809 13.952C80.0827 13.7626 80.0845 13.5731 80.0863 13.3779C80.0908 12.9141 80.0972 12.4504 80.1053 11.9867C79.9664 11.9898 79.8275 11.9928 79.6843 11.996C79.0557 12.0082 78.427 12.0158 77.7982 12.0233C77.5796 12.0282 77.3609 12.0331 77.1356 12.0382C76.926 12.0401 76.7164 12.042 76.5005 12.0439C76.3071 12.047 76.1138 12.05 75.9147 12.0532C75.4178 11.9867 75.4179 11.9867 75.0618 11.7329C74.677 11.1769 74.7621 10.6852 74.8319 10.0336C75.0618 9.70144 75.0618 9.70144 75.4178 9.44762C75.9147 9.3811 75.9147 9.3811 76.5005 9.3904C76.8149 9.39323 76.8149 9.39323 77.1356 9.39612C77.4636 9.40349 77.4636 9.40349 77.7982 9.411C78.0191 9.41364 78.2401 9.41629 78.4677 9.41901C79.0137 9.42592 79.5595 9.43557 80.1053 9.44762C80.0985 9.21197 80.0918 8.97631 80.0847 8.73351C80.0868 6.83955 81.079 5.04092 82.327 3.66149C82.4962 3.50841 82.6654 3.35534 82.8397 3.19762C82.9309 3.10346 83.022 3.0093 83.1159 2.91228C84.6619 1.41199 86.7411 0.914226 88.8418 0.842428C91.0974 0.882852 93.3492 1.78572 95.0345 3.30749C97.1914 5.69158 97.5585 8.52067 97.5498 11.5909C97.5492 12.0447 97.5538 12.4983 97.5587 12.9522C97.5712 15.8155 97.1694 18.3842 95.0712 20.5072C94.902 20.6603 94.7328 20.8133 94.5585 20.9711C94.6768 21.0161 94.7951 21.0612 94.9171 21.1076C97.6034 22.1532 99.8749 23.1629 101.11 25.9362C102.679 29.7872 103.187 34.0641 103.738 38.1586C103.772 38.4104 103.807 38.6623 103.842 38.9218C104.149 41.3283 104.188 43.7104 104.189 46.1339C104.19 46.5703 104.192 47.0066 104.194 47.443C104.198 48.6167 104.2 49.7904 104.201 50.9641C104.201 51.6979 104.202 52.4318 104.204 53.1657C104.208 55.202 104.211 57.2383 104.211 59.2746C104.212 59.4042 104.212 59.5337 104.212 59.6672C104.212 59.9297 104.212 60.1922 104.212 60.4548C104.212 60.585 104.212 60.7153 104.212 60.8496C104.212 61.0452 104.212 61.0452 104.212 61.2449C104.213 63.368 104.218 65.4911 104.225 67.6142C104.233 69.7995 104.236 71.9848 104.237 74.1702C104.237 75.3951 104.238 76.6199 104.244 77.8448C104.249 78.9935 104.25 80.1421 104.246 81.2908C104.246 81.7129 104.247 82.135 104.25 82.5571C104.254 83.1315 104.252 83.7057 104.249 84.2802C104.251 84.4486 104.254 84.617 104.257 84.7905C104.25 85.2554 104.25 85.2554 104.129 86.0101C103.508 86.5793 102.966 86.6695 102.141 86.6718C101.841 86.6747 101.841 86.6747 101.536 86.6776C101.319 86.6768 101.102 86.6759 100.879 86.675C100.649 86.6763 100.419 86.6777 100.182 86.679C99.5521 86.682 98.9226 86.6823 98.2931 86.6812C97.7665 86.6806 97.2399 86.6818 96.7133 86.683C95.4702 86.6857 94.2271 86.6854 92.9839 86.6832C91.7041 86.6809 90.4245 86.6837 89.1447 86.6889C88.0438 86.6933 86.9429 86.6945 85.8419 86.6934C85.1854 86.6927 84.5289 86.6932 83.8723 86.6966C83.1393 86.6995 82.4064 86.6974 81.6733 86.6941C81.4577 86.6959 81.242 86.6978 81.0198 86.6998C79.6383 86.6866 78.4797 86.5161 77.458 85.5183C76.6562 84.5867 76.5162 83.9916 76.5386 82.7928C76.6177 82.0294 76.8472 81.6884 77.371 81.1273C78.3394 80.3412 79.4107 79.7033 80.469 79.0473C81.0049 78.7148 81.5394 78.3801 82.073 78.0438C82.3135 77.8924 82.5545 77.7418 82.7962 77.5923C83.103 77.4006 83.4049 77.2012 83.7064 77.0013C83.8754 76.8921 84.0443 76.7828 84.2184 76.6702C84.6394 76.1975 84.6594 76.044 84.7189 75.4366C84.7433 75.1876 84.7677 74.9386 84.7928 74.682C84.6293 74.6825 84.4658 74.6831 84.2973 74.6836C80.3217 74.6966 76.3461 74.7063 72.3705 74.7124C70.448 74.7154 68.5254 74.7195 66.6029 74.7262C64.9276 74.732 63.2523 74.7358 61.577 74.7371C60.6895 74.7379 59.8022 74.7397 58.9147 74.7439C58.08 74.7479 57.2453 74.7492 56.4106 74.7483C56.1037 74.7484 55.7969 74.7496 55.4901 74.7518C55.072 74.7548 54.6541 74.7541 54.236 74.7525C53.8846 74.7533 53.8846 74.7533 53.5262 74.7541C52.9569 74.682 52.9569 74.682 52.5886 74.4113C52.2919 73.9815 52.2971 73.6867 52.2958 73.1665C52.2938 72.9781 52.2919 72.7897 52.2898 72.5956C52.2904 72.3923 52.291 72.1891 52.2916 71.9797C52.2895 71.7704 52.2874 71.5611 52.2852 71.3455C52.2785 70.6754 52.2755 70.0054 52.2733 69.3353C52.2705 68.4548 52.2639 67.5745 52.255 66.694C52.2556 66.4916 52.2562 66.2891 52.2568 66.0805C52.2462 65.0652 52.2308 64.3826 51.5897 63.5492C51.4068 63.0663 51.2334 62.5842 51.0648 62.0965C49.2414 57.0961 45.6774 53.4698 40.8756 51.2316C36.011 49.1118 30.722 49.209 25.8214 51.1041C23.4608 52.0727 20.0015 53.944 18.7818 56.3005C18.74 56.4166 18.6982 56.5326 18.6552 56.6522C18.3866 57.2992 18.3866 57.2992 17.996 57.4945C17.5783 57.5154 17.16 57.5236 16.7418 57.526C16.6131 57.5269 16.4844 57.5279 16.3519 57.5289C15.9256 57.5318 15.4994 57.5331 15.0732 57.5342C14.7773 57.5353 14.4815 57.5364 14.1857 57.5375C13.5653 57.5396 12.9448 57.5407 12.3243 57.5414C11.5287 57.5425 10.7332 57.5472 9.93759 57.5527C9.32652 57.5564 8.71548 57.5574 8.1044 57.5577C7.81105 57.5583 7.51771 57.5599 7.22437 57.5624C6.81427 57.5657 6.40433 57.5654 5.99422 57.5641C5.76076 57.5648 5.5273 57.5655 5.28677 57.5663C4.71473 57.4945 4.71472 57.4945 4.39068 57.2516C4.0585 56.8165 4.05503 56.5799 4.05396 56.0359C4.05219 55.8561 4.05042 55.6764 4.0486 55.4912C4.04964 55.2935 4.05068 55.0957 4.05175 54.8919C4.05057 54.6821 4.04937 54.4722 4.04815 54.256C4.04488 53.5493 4.04584 52.8427 4.04677 52.136C4.04534 51.6308 4.04366 51.1256 4.04176 50.6204C4.03764 49.3885 4.03676 48.1566 4.03711 46.9247C4.03736 45.9238 4.03662 44.9228 4.03517 43.9219C4.03476 43.6339 4.03435 43.3458 4.03394 43.0578C4.03374 42.9144 4.03353 42.7711 4.03332 42.6234C4.02963 39.911 4.02984 37.1985 4.03117 34.4861C4.03226 32.0028 4.02819 29.5196 4.02173 27.0363C4.01514 24.4883 4.01217 21.9402 4.01307 19.3921C4.01351 17.9609 4.01248 16.5297 4.00762 15.0984C4.0031 13.7531 4.00363 12.4078 4.00761 11.0625C4.00828 10.5676 4.00727 10.0727 4.00449 9.57789C4.00097 8.90449 4.0034 8.23138 4.00741 7.55799C4.00496 7.36023 4.00252 7.16247 4 6.95871C4.00631 6.46652 4.01868 6.02105 4.12879 5.54137C4.8155 4.92352 5.40524 4.87996 6.31099 4.87032C6.55045 4.86658 6.78992 4.86284 7.03665 4.85899C7.29722 4.85809 7.55779 4.85744 7.81836 4.85702C8.08927 4.85513 8.36017 4.85316 8.63107 4.85111C9.1998 4.8476 9.76847 4.84651 10.3372 4.84686C10.9142 4.84691 11.491 4.84289 12.0679 4.83484C18.1572 4.75113 18.1572 4.75113 20.9257 6.12731C21.0981 6.20411 21.2705 6.28092 21.4482 6.36005C21.8586 6.5483 22.2521 6.75088 22.6469 6.96959C22.8522 7.08126 22.8522 7.08126 23.0618 7.19519C26.1365 8.90831 28.7372 11.4238 31.3009 13.8093C32.1935 14.6366 33.1115 15.4311 34.0391 16.2187C35.3249 17.3125 36.5885 18.4229 37.824 19.5734C38.4986 20.2015 39.1824 20.8158 39.8794 21.4189C40.3369 21.818 40.7875 22.2243 41.2382 22.6312C41.8203 23.1566 42.4047 23.6787 42.996 24.1937C43.5873 24.7087 44.1716 25.2309 44.7538 25.7562C45.0793 26.0492 45.4048 26.3422 45.7304 26.6351C45.8746 26.7655 46.0189 26.896 46.1675 27.0303C46.8362 27.6272 47.4723 28.1648 48.2694 28.5882C48.3112 28.4624 48.353 28.3365 48.3961 28.2068C48.7634 27.3787 49.2584 26.6561 49.7587 25.9027C49.99 25.5506 50.2212 25.1984 50.4522 24.846C50.5742 24.6602 50.6962 24.4744 50.8219 24.2829C51.4631 23.3013 52.0939 22.3131 52.725 21.3251C52.8556 21.1208 52.9863 20.9164 53.1209 20.7059C53.7888 19.6615 54.4556 18.6164 55.1214 17.5706C55.8939 16.3582 56.6698 15.1479 57.4491 13.9398C57.5726 13.7481 57.6962 13.5564 57.8234 13.3589C60.2149 9.66235 60.2149 9.66235 61.5766 8.26354C61.9584 7.88084 61.9584 7.88084 62.3167 7.40142C64.8744 4.29564 69.0325 2.38318 72.7201 1.02477C72.9301 0.946124 73.1401 0.867477 73.3564 0.786447C73.6559 0.68009 73.6559 0.68009 73.9614 0.571584C74.1387 0.508107 74.316 0.444629 74.4986 0.379228C75.1353 0.245176 75.5742 0.287131 76.1991 0.463247ZM84.0116 5.73668C83.137 6.86427 82.6444 7.99974 82.6444 9.44762C86.6405 9.44762 90.6366 9.44762 94.7538 9.44762C94.7538 7.76837 94.3063 6.60352 93.2249 5.30944C91.9057 4.0654 90.487 3.55066 88.6869 3.49059C86.7076 3.55707 85.3534 4.29528 84.0116 5.73668ZM6.66785 7.68981C6.66785 23.2875 6.66785 38.8851 6.66785 54.9554C9.7616 54.9554 12.8554 54.9554 16.0429 54.9554C16.0429 39.3578 16.0429 23.7601 16.0429 7.68981C12.9491 7.68981 9.85535 7.68981 6.66785 7.68981ZM18.7772 8.27575C18.7772 9.75817 18.7772 11.2406 18.7772 12.7679C19.745 13.2532 19.745 13.2532 20.7163 13.7314C23.6165 15.2271 25.7798 17.5978 27.9687 19.958C28.9313 20.99 29.911 22.0057 30.8879 23.0242C31.9122 24.0927 32.9299 25.1661 33.9308 26.2566C38.6215 31.7404 38.6215 31.7404 45.1293 34.071C46.3877 34.0977 47.6052 34.0073 48.8554 33.8617C49.1808 33.856 49.5065 33.8535 49.8319 33.8617C49.113 33.1334 48.3755 32.4304 47.6224 31.7377C47.5102 31.6342 47.398 31.5308 47.2823 31.4242C46.5757 30.7749 45.8618 30.1355 45.136 29.5076C44.6785 29.1085 44.2279 28.7022 43.7772 28.2953C43.1951 27.7699 42.6107 27.2478 42.0194 26.7328C41.4281 26.2178 40.8438 25.6956 40.2616 25.1703C39.2219 24.233 38.174 23.3068 37.1068 22.4008C35.8215 21.3081 34.5589 20.1981 33.3242 19.0485C32.6496 18.4203 31.9658 17.806 31.2688 17.2029C30.8113 16.8038 30.3607 16.3975 29.91 15.9906C29.218 15.3667 28.5248 14.745 27.8203 14.1351C27.4675 13.8284 27.1178 13.5187 26.769 13.2074C23.1777 9.89598 23.1777 9.89598 18.7772 8.27575ZM82.6444 11.9867C82.566 16.0169 82.566 16.0169 84.5975 19.0179C85.7432 20.1016 87.223 20.5821 88.7845 20.6659C90.6464 20.5807 92.051 19.7804 93.3675 18.5014C95.0362 16.6277 94.9491 14.4218 94.9491 11.9867C90.8885 11.9867 86.828 11.9867 82.6444 11.9867ZM18.7772 15.6976C18.7772 20.9183 18.7772 26.139 18.7772 31.5179C23.4593 31.9409 23.4593 31.9409 28.1522 32.1039C28.1119 31.9145 28.0717 31.7252 28.0302 31.5301C27.86 30.2701 28.1456 29.1842 28.8602 28.1366C29.4909 27.3545 30.1617 27.0159 31.0819 26.6351C30.2145 25.5995 29.3038 24.625 28.3536 23.665C28.2057 23.5155 28.0578 23.366 27.9054 23.212C27.5931 22.897 27.2806 22.5824 26.9678 22.268C26.6525 21.9506 26.3382 21.6322 26.0248 21.313C23.8101 19.0575 21.7212 16.9593 18.7772 15.6976ZM88.2736 24.088C87.9522 24.4482 87.63 24.7459 87.2594 25.0535C86.0129 26.1294 84.8756 27.3205 83.7186 28.4906C81.0959 31.1432 81.0959 31.1432 79.8974 32.1625C79.0858 32.8753 78.3301 33.6478 77.5663 34.411C77.3114 34.6623 77.3114 34.6623 77.0513 34.9187C76.8909 35.0787 76.7305 35.2387 76.5653 35.4036C76.4198 35.5483 76.2743 35.693 76.1243 35.8421C75.7658 36.1743 75.7658 36.1743 75.8085 36.5961C75.9459 36.6462 76.0834 36.6963 76.225 36.7479C77.9309 37.4093 79.3816 38.3085 80.8866 39.3304C81.8928 38.4984 82.7874 37.618 83.6698 36.6571C85.0152 35.2078 86.3993 33.8029 87.8086 32.4158C88.6253 31.6081 89.402 30.7837 90.1503 29.9124C90.5645 29.4429 91.0144 29.0171 91.4701 28.5882C92.7164 27.3495 93.3286 26.2541 93.3866 24.4867C93.3746 23.9111 93.3746 23.9111 92.996 23.5101C92.3551 23.2765 91.7187 23.1931 91.0428 23.1195C90.8873 23.0963 90.7317 23.0732 90.5714 23.0493C89.4554 22.9496 88.9895 23.248 88.2736 24.088ZM95.9257 24.4867C95.897 24.6755 95.8683 24.8643 95.8387 25.0589C95.3995 27.7082 94.3601 29.2837 92.4291 31.1166C91.9908 31.5375 91.5897 31.9764 91.1947 32.438C90.1541 33.6442 89.0004 34.7407 87.8667 35.8583C86.9723 36.745 86.1068 37.6394 85.2875 38.5961C84.8551 39.0925 84.3949 39.5517 83.9261 40.014C83.7572 40.1812 83.5883 40.3484 83.4142 40.5206C83.2891 40.6435 83.164 40.7663 83.035 40.8929C83.3695 41.651 83.8621 42.283 84.3534 42.9437C85.2399 44.1555 85.9326 45.3805 86.5507 46.7523C91.0378 46.4578 98.0568 45.4024 101.394 42.0648C101.65 37.3871 100.654 28.8756 97.4882 25.2679C96.7777 24.6866 96.7777 24.6866 95.9257 24.4867ZM53.3475 25.2679C51.6427 27.8767 51.6427 27.8767 50.0272 30.5414C50.1924 30.6947 50.3575 30.848 50.5277 31.006C50.6341 31.1049 50.7405 31.2037 50.8501 31.3056C51.0845 31.522 51.3202 31.7372 51.5569 31.9511C52.0495 32.3974 52.5183 32.8278 52.9455 33.3383C53.4177 33.8822 53.8846 34.2036 54.5968 34.3456C54.7603 34.3561 54.9239 34.3666 55.0924 34.3774C55.2699 34.3892 55.4473 34.401 55.6302 34.4131C56.4321 34.4457 57.2325 34.4567 58.035 34.4476C57.7212 33.3915 57.2568 32.4408 56.7655 31.4592C56.6377 31.2023 56.6377 31.2023 56.5073 30.9401C56.3277 30.58 56.1478 30.22 55.9675 29.8602C55.6909 29.3076 55.4164 28.754 55.142 28.2003C54.9671 27.8502 54.7922 27.5001 54.6171 27.1501C54.5349 26.9839 54.4527 26.8177 54.368 26.6465C54.2911 26.4938 54.2141 26.3412 54.1349 26.184C54.0675 26.0492 54.0002 25.9143 53.9308 25.7754C53.7546 25.4286 53.7546 25.4286 53.3475 25.2679ZM30.6913 29.7601C30.4384 30.2658 30.5091 30.5683 30.5692 31.1273C30.5868 31.3005 30.6045 31.4737 30.6226 31.6522C30.6682 32.1077 30.6682 32.1077 30.8866 32.4945C31.379 32.5866 31.379 32.5866 31.9753 32.6181C32.1985 32.6345 32.4217 32.6508 32.6517 32.6677C32.8869 32.683 33.1222 32.6984 33.3646 32.7142C33.5961 32.7311 33.8276 32.748 34.0662 32.7653C35.0922 32.8378 36.1076 32.8942 37.1366 32.8851C36.7561 32.4177 36.3663 31.9673 35.9647 31.5179C35.8735 31.4143 35.7823 31.3107 35.6884 31.204C35.3746 30.852 35.054 30.5073 34.7318 30.163C34.5794 29.9895 34.5794 29.9895 34.4238 29.8126C33.8109 29.172 33.4042 28.9024 32.5017 28.882C31.6893 28.9181 31.2571 29.1589 30.6913 29.7601ZM18.7772 34.057C18.7772 40.0511 18.7772 46.0453 18.7772 52.2211C19.3573 51.8343 19.9374 51.4476 20.535 51.0492C24.4633 48.4652 28.6102 47.0944 33.3158 47.1307C33.5332 47.1316 33.7506 47.1325 33.9746 47.1334C34.5078 47.1357 35.0409 47.1389 35.5741 47.1429C36.258 45.8514 36.8099 44.5659 37.2587 43.1756C37.3171 42.9962 37.3756 42.8168 37.4358 42.632C38.192 40.2746 38.5857 38.0839 38.6991 35.6195C36.3185 35.3407 33.9387 35.1154 31.5488 34.9344C31.2151 34.9087 30.8814 34.883 30.5477 34.8572C29.8564 34.804 29.1651 34.7512 28.4738 34.6987C27.5899 34.6316 26.706 34.5635 25.8221 34.4951C25.1365 34.4422 24.4509 34.3897 23.7652 34.3373C23.4391 34.3124 23.113 34.2873 22.7869 34.2621C22.3329 34.2271 21.8789 34.1926 21.4248 34.1584C21.2921 34.148 21.1594 34.1377 21.0226 34.127C20.2683 34.0708 19.5365 34.057 18.7772 34.057ZM41.2382 35.8148C41.2207 35.9778 41.2207 35.9778 41.203 36.1442C40.7605 40.1293 39.6946 43.7833 38.3085 47.5336C38.5119 47.6 38.7153 47.6665 38.9249 47.735C41.9458 48.746 44.6298 49.9734 47.0975 52.0257C47.268 52.1665 47.4384 52.3072 47.614 52.4522C50.7606 55.1638 52.3193 58.3484 53.9335 62.182C64.3104 62.182 74.6874 62.182 85.3788 62.182C85.3788 59.9906 85.3788 57.7992 85.3788 55.5414C82.6272 54.9453 79.8757 54.3571 77.1145 53.8074C76.3058 53.6462 75.4974 53.4833 74.6889 53.3207C73.9999 53.1823 73.3107 53.045 72.621 52.9098C71.9367 52.7755 71.2529 52.6384 70.5695 52.4992C70.19 52.4228 69.8098 52.3493 69.4296 52.276C69.201 52.229 68.9724 52.182 68.7368 52.1336C68.5364 52.0938 68.3361 52.0539 68.1296 52.0129C67.511 51.7976 67.2246 51.5644 66.8241 51.0492C66.7512 50.4645 66.7236 49.9536 66.7341 49.37C66.7343 49.2077 66.7344 49.0455 66.7346 48.8783C66.7358 48.536 66.7389 48.1937 66.7437 47.8515C66.7508 47.3272 66.7517 46.8032 66.7516 46.2789C66.7535 45.9461 66.7558 45.6134 66.7585 45.2806C66.7589 45.1237 66.7594 44.9669 66.7598 44.8052C66.7726 44.053 66.788 43.6814 67.2147 43.0414C67.7807 42.9635 67.7807 42.9635 68.5141 42.9569C68.7142 42.9539 68.7142 42.9539 68.9184 42.9509C69.3601 42.945 69.8018 42.9432 70.2436 42.9414C70.5496 42.9381 70.8555 42.9346 71.1615 42.9308C71.9674 42.9215 72.7733 42.9157 73.5793 42.9106C74.4015 42.9048 75.2236 42.8957 76.0457 42.8869C77.6593 42.8701 79.2729 42.8569 80.8866 42.8461C78.7774 40.1464 75.2425 38.5732 71.8979 38.103C71.4702 38.0543 71.0424 38.0118 70.6138 37.9717C70.4475 37.9557 70.2811 37.9396 70.1097 37.9231C67.7009 37.6964 65.2879 37.5174 62.8754 37.3339C62.3167 37.2914 61.7579 37.2486 61.1992 37.2057C59.8816 37.1047 58.5639 37.0042 57.2463 36.904C55.8922 36.801 54.5382 36.6972 53.1842 36.5931C52.0136 36.5031 50.8429 36.4136 49.6723 36.3244C48.9765 36.2714 48.2807 36.2182 47.5849 36.1646C46.8116 36.105 46.0382 36.0464 45.2648 35.9879C45.0373 35.9702 44.8098 35.9526 44.5754 35.9344C43.4591 35.8508 42.3576 35.7955 41.2382 35.8148ZM69.1678 45.3851C69.1678 46.8031 69.1678 48.2211 69.1678 49.682C71.1371 50.0905 73.1065 50.4981 75.0762 50.9043C75.9908 51.093 76.9053 51.282 77.8197 51.4719C78.7022 51.6551 79.5849 51.8373 80.4677 52.0189C80.8044 52.0884 81.1411 52.1581 81.4776 52.2283C81.9492 52.3265 82.421 52.4234 82.8929 52.5201C83.0318 52.5494 83.1708 52.5786 83.3139 52.6087C84.0128 52.7506 84.6653 52.8395 85.3788 52.807C85.3191 51.5544 85.0972 50.4075 84.7562 49.2059C84.7203 49.0734 84.6844 48.9408 84.6474 48.8043C84.2658 47.5139 83.7163 46.634 83.035 45.3851C78.4589 45.3851 73.8827 45.3851 69.1678 45.3851ZM100.345 45.6762C98.1499 46.6933 95.8973 47.4283 93.5819 48.1195C93.6974 49.5394 93.8613 50.9432 94.0748 52.3515C94.1336 52.7481 94.1923 53.1447 94.251 53.5413C94.2813 53.7461 94.3117 53.9509 94.343 54.1618C95.4058 61.3849 95.8106 68.3565 95.7303 75.6586C97.6639 75.6586 99.5975 75.6586 101.59 75.6586C101.59 65.6039 101.59 55.5492 101.59 45.1898C101.147 45.1898 100.741 45.4913 100.345 45.6762ZM88.9554 48.9984C88.8184 49.0263 88.6813 49.0543 88.54 49.0831C88.2023 49.152 87.8648 49.2216 87.5272 49.2914C87.541 49.4336 87.5548 49.5759 87.569 49.7224C87.6976 51.1375 87.7515 52.5364 87.7509 53.9568C87.7516 54.1756 87.7522 54.3944 87.7529 54.6198C87.7547 55.3344 87.7551 56.049 87.7553 56.7636C87.756 57.2629 87.7566 57.7622 87.7573 58.2615C87.7585 59.3033 87.7589 60.345 87.7587 61.3868C87.7586 62.5913 87.7607 63.7957 87.7638 65.0002C87.7666 66.1621 87.7673 67.3241 87.7672 68.486C87.7674 68.9796 87.7683 69.4732 87.7698 69.9667C87.7717 70.6535 87.7712 71.3403 87.77 72.0271C87.7711 72.232 87.7722 72.4369 87.7733 72.6481C87.7721 72.9273 87.7721 72.9273 87.7708 73.2122C87.7709 73.3744 87.771 73.5366 87.7711 73.7038C87.7225 74.0961 87.7225 74.0961 87.3319 74.4867C87.3319 74.8734 87.3319 75.2601 87.3319 75.6586C89.201 75.6586 91.0702 75.6586 92.996 75.6586C93.2863 74.4971 93.4377 73.738 93.4453 72.5893C93.4465 72.4488 93.4476 72.3083 93.4487 72.1636C93.4511 71.705 93.4499 71.2466 93.4476 70.788C93.4471 70.628 93.4467 70.468 93.4462 70.3031C93.4189 64.4488 92.6015 58.7125 91.7501 52.9306C91.711 52.6639 91.711 52.6639 91.6712 52.3919C91.4873 51.1581 91.2724 49.9315 91.0428 48.7054C90.3239 48.7054 89.6558 48.8532 88.9554 48.9984ZM54.91 64.7211C54.91 67.1703 54.91 69.6195 54.91 72.1429C64.9647 72.1429 75.0194 72.1429 85.3788 72.1429C85.3788 69.6937 85.3788 67.2445 85.3788 64.7211C75.3241 64.7211 65.2694 64.7211 54.91 64.7211ZM84.1093 79.881C83.5682 80.3792 82.9275 80.7177 82.2904 81.0785C80.7082 81.9458 80.7082 81.9458 79.3241 83.0804C79.3241 83.2738 79.3241 83.4672 79.3241 83.6664C79.9748 83.9917 80.704 83.8851 81.4191 83.8808C81.5876 83.8805 81.7562 83.8802 81.9298 83.8799C82.4691 83.8788 83.0084 83.8764 83.5477 83.8739C83.9129 83.8729 84.2781 83.872 84.6433 83.8712C85.5395 83.8691 86.4357 83.8657 87.3319 83.8617C87.351 83.732 87.3702 83.6024 87.3899 83.4688C87.62 82.1097 87.9035 81.3605 89.0584 80.536C89.4612 80.2877 89.864 80.0395 90.2669 79.7914C90.9221 79.3153 91.3312 78.8358 91.8241 78.1976C87.5728 77.7957 87.5728 77.7957 84.1093 79.881ZM94.3033 78.6123C94.0109 79.1145 93.7944 79.6109 93.5819 80.1507C93.1516 80.6352 93.1516 80.6352 92.7518 80.9686C92.604 81.0922 92.4563 81.2159 92.304 81.3432C91.5135 81.9528 90.7009 82.526 89.871 83.0804C89.9354 83.3382 89.9999 83.5961 90.0663 83.8617C93.869 83.8617 97.6718 83.8617 101.59 83.8617C101.59 81.9925 101.59 80.1234 101.59 78.1976C100.636 78.1526 99.6869 78.1138 98.7335 78.0903C98.4098 78.0805 98.0862 78.0672 97.7628 78.0503C95.9035 77.8809 95.9035 77.8809 94.3033 78.6123Z" fill="url(#paint0_linear_67_141)" shape-rendering="crispEdges"/>
<path d="M44.7118 55.7256C47.9232 58.6044 50.1599 62.7426 50.4454 67.0935C50.6539 72.2308 49.3632 76.6831 45.8768 80.578C42.9593 83.7035 38.7206 85.832 34.4022 86.0101C34.2194 86.0202 34.0367 86.0303 33.8483 86.0406C29.2778 86.1761 25.0653 84.613 21.6337 81.6156C21.329 81.3263 21.0277 81.0335 20.7303 80.7367C20.5944 80.603 20.4584 80.4693 20.3184 80.3316C16.9519 76.8019 15.8636 72.1407 15.9643 67.4066C16.1375 63.5551 17.733 59.9413 20.3397 57.1039C20.4835 56.9422 20.6272 56.7806 20.7754 56.6141C27.0865 49.8809 37.8863 49.8642 44.7118 55.7256ZM32.2538 54.3695C32.2702 54.5201 32.2865 54.6706 32.3034 54.8257C32.3332 55.1195 32.3332 55.1195 32.3636 55.4193C32.3942 55.7116 32.3942 55.7116 32.4254 56.0098C32.4491 56.5179 32.4491 56.5179 32.2538 56.9086C31.7849 57.067 31.3282 57.2012 30.85 57.3236C30.7209 57.3591 30.5919 57.3946 30.459 57.4312C29.6379 57.6468 29.023 57.6898 28.1522 57.6898C27.6688 56.5297 27.6688 56.5297 27.1757 55.3461C26.4022 55.7328 26.4022 55.7328 25.6132 56.1273C25.6978 56.2429 25.7824 56.3584 25.8695 56.4775C25.9783 56.6318 26.087 56.7862 26.1991 56.9452C26.3079 57.097 26.4166 57.2488 26.5287 57.4052C26.8337 57.9762 26.92 58.2259 26.785 58.8617C26.4233 59.284 26.089 59.6239 25.6742 59.9847C25.5706 60.0812 25.467 60.1776 25.3602 60.2769C24.761 60.8137 24.2887 61.2201 23.4647 61.2054C22.9848 60.9254 22.9848 60.9254 22.5248 60.534C22.3704 60.4054 22.2161 60.2767 22.0571 60.1442C21.9415 60.0432 21.826 59.9423 21.7069 59.8382C21.2136 60.2998 20.9475 60.554 20.7303 61.2054C21.0146 61.3692 21.2996 61.5317 21.5848 61.6937C21.7435 61.7844 21.9021 61.875 22.0655 61.9684C22.4673 62.2114 22.4673 62.2114 22.8788 62.182C22.7659 63.1799 22.5432 64.0406 22.1952 64.9896C22.1086 65.2288 22.022 65.468 21.9327 65.7144C21.7069 66.2836 21.7069 66.2836 21.5116 66.4789C20.5935 66.4371 19.6729 66.2905 18.7772 66.0882C18.7128 66.6683 18.6483 67.2484 18.5819 67.8461C19.4198 67.9105 20.2577 67.975 21.121 68.0414C21.4367 69.0282 21.5783 69.9166 21.6337 70.9588C21.6412 71.0924 21.6488 71.226 21.6566 71.3636C21.6747 71.6884 21.691 72.0133 21.7069 72.3382C20.9335 72.5961 20.16 72.8539 19.3632 73.1195C19.4336 74.2422 19.4336 74.2422 19.9491 74.682C20.0483 74.6256 20.1475 74.5692 20.2497 74.5111C20.3841 74.4386 20.5186 74.3661 20.6571 74.2914C20.8542 74.1826 20.8542 74.1826 21.0554 74.0716C21.6725 73.8405 22.029 73.7783 22.6835 73.9007C23.1304 74.3124 23.4356 74.7924 23.7577 75.3046C23.8488 75.4361 23.94 75.5676 24.0339 75.7032C24.6662 76.6734 24.6662 76.6734 24.5344 77.3736C24.1124 78.0077 23.6305 78.4587 23.0741 78.9789C23.3459 79.6584 23.5883 79.854 24.246 80.1507C24.317 80.0238 24.388 79.897 24.4611 79.7662C24.5593 79.6031 24.6575 79.4399 24.7587 79.2718C24.8538 79.1087 24.949 78.9455 25.0471 78.7775C25.4178 78.3929 25.4178 78.3929 25.9489 78.2892C26.7847 78.4245 27.3994 78.7564 28.1278 79.1742C28.2623 79.2487 28.3967 79.3232 28.5352 79.4C28.8645 79.583 29.1921 79.7689 29.5194 79.9554C29.3927 80.9063 29.2132 81.7759 28.9335 82.6898C29.4491 82.8187 29.9647 82.9476 30.496 83.0804C30.6893 82.2425 30.8827 81.4046 31.0819 80.5414C32.4999 80.5414 33.9178 80.5414 35.3788 80.5414C35.5077 81.3148 35.6366 82.0882 35.7694 82.8851C36.505 83.1303 36.8186 82.9575 37.5272 82.6898C37.4849 82.5742 37.4426 82.4587 37.399 82.3396C37.3447 82.1853 37.2903 82.0309 37.2343 81.8719C37.1799 81.7201 37.1255 81.5683 37.0695 81.4119C36.9344 80.9062 36.9191 80.4764 36.9413 79.9554C37.3709 79.6918 37.8022 79.4321 38.2352 79.1742C38.3558 79.0997 38.4764 79.0251 38.6007 78.9483C39.3642 78.4983 39.9383 78.2193 40.8475 78.3929C41.261 78.7775 41.261 78.7775 41.6044 79.2718C41.7207 79.435 41.837 79.5981 41.9568 79.7662C42.0419 79.8931 42.127 80.02 42.2147 80.1507C42.7948 79.6673 42.7948 79.6673 43.3866 79.1742C43.1996 78.9543 43.0124 78.7346 42.8251 78.515C42.7208 78.3926 42.6166 78.2703 42.5092 78.1442C42.2901 77.8932 42.0597 77.652 41.8241 77.4164C41.7974 76.3216 42.3933 75.6886 43.0562 74.8872C43.4133 74.4681 43.4133 74.4681 43.7772 73.9007C44.7302 73.7708 45.2911 74.0441 46.121 74.4867C46.3143 74.4867 46.5077 74.4867 46.7069 74.4867C46.8358 74.0355 46.9647 73.5843 47.0975 73.1195C46.8471 73.0485 46.8471 73.0485 46.5917 72.9761C46.2681 72.8779 46.2681 72.8779 45.9379 72.7777C45.7226 72.7142 45.5073 72.6508 45.2856 72.5854C44.7538 72.3382 44.7538 72.3382 44.573 72.0186C44.5514 71.3313 44.6192 70.6626 44.705 69.9823C44.7196 69.8417 44.7342 69.7011 44.7492 69.5562C44.8173 69.0008 44.8878 68.5325 45.1818 68.0505C45.6972 67.7522 46.1527 67.7435 46.7435 67.7118C46.9558 67.6989 47.168 67.6861 47.3867 67.6729C47.6303 67.6619 47.6303 67.6619 47.8788 67.6507C47.8143 67.1351 47.7499 66.6195 47.6835 66.0882C47.507 66.1232 47.3305 66.1582 47.1487 66.1943C46.9183 66.2358 46.6879 66.2774 46.4506 66.3202C46.1073 66.3848 46.1073 66.3848 45.757 66.4506C45.1444 66.4789 45.1444 66.4789 44.8026 66.2736C44.4691 65.7536 44.2535 65.2251 44.0336 64.6478C43.9482 64.4288 43.8629 64.2097 43.7749 63.9841C43.593 63.39 43.4772 62.9887 43.5819 62.3773C43.91 62.0752 43.91 62.0752 44.3387 61.8402C44.4792 61.7606 44.6197 61.6811 44.7645 61.5991C45.0202 61.4656 45.2771 61.3344 45.535 61.2054C45.2621 60.513 45.2621 60.513 44.9491 59.8382C44.361 60.0343 44.0168 60.1803 43.5941 60.6439C43.1913 61.0101 43.1913 61.0101 42.6435 61.0857C41.8467 60.9892 41.5764 60.7221 41.0062 60.1678C40.8423 60.0115 40.6784 59.8551 40.5096 59.694C40.2901 59.4754 40.2901 59.4754 40.0663 59.2523C39.9502 59.1456 39.8342 59.0388 39.7146 58.9288C39.4803 58.6664 39.4803 58.6664 39.4803 58.2391C39.7569 57.4613 40.1933 56.8098 40.6522 56.1273C39.9324 55.6477 39.9324 55.6477 39.0897 55.5414C39.0085 55.7495 39.0085 55.7495 38.9257 55.9618C38.8549 56.1413 38.7842 56.3208 38.7113 56.5057C38.6411 56.6847 38.5708 56.8637 38.4984 57.0482C38.3085 57.4945 38.3085 57.4945 38.1132 57.6898C36.7137 57.5822 35.3743 57.235 34.0116 56.9086C34.0116 56.0062 34.0116 55.1039 34.0116 54.1742C33.026 53.9497 33.026 53.9497 32.2538 54.3695ZM35.7694 54.3695C35.7694 54.7562 35.7694 55.1429 35.7694 55.5414C36.2206 55.6058 36.6718 55.6703 37.1366 55.7367C37.201 55.4144 37.2655 55.0922 37.3319 54.7601C36.7288 54.4155 36.5051 54.3695 35.7694 54.3695ZM28.9335 54.7601C28.9979 55.0824 29.0624 55.4047 29.1288 55.7367C29.6444 55.6722 30.16 55.6078 30.6913 55.5414C30.6268 55.1547 30.5624 54.7679 30.496 54.3695C29.8702 54.3695 29.5011 54.5147 28.9335 54.7601ZM42.0194 57.2992C41.8905 57.6214 41.7616 57.9437 41.6288 58.2757C42.1122 58.6625 42.1122 58.6625 42.6053 59.057C42.8632 58.8636 43.121 58.6703 43.3866 58.4711C43.1645 57.8047 42.9875 57.6667 42.41 57.2992C42.2811 57.2992 42.1522 57.2992 42.0194 57.2992ZM24.0507 57.2992C23.4706 57.7826 23.4706 57.7826 22.8788 58.2757C23.1366 58.5336 23.3944 58.7914 23.66 59.057C23.9823 58.8636 24.3046 58.6703 24.6366 58.4711C24.5246 57.911 24.4683 57.7169 24.0507 57.2992ZM19.7538 62.7679C19.4244 63.4535 19.4244 63.4535 19.4364 64.1962C19.4767 64.3049 19.517 64.4137 19.5585 64.5257C19.8807 64.4613 20.203 64.3968 20.535 64.3304C20.5995 63.9437 20.6639 63.557 20.7303 63.1586C20.247 62.9652 20.247 62.9652 19.7538 62.7679ZM46.3163 62.7679C45.9028 62.9421 45.9028 62.9421 45.535 63.1586C45.6639 63.6097 45.7928 64.0609 45.9257 64.5257C46.3124 64.4613 46.6991 64.3968 47.0975 64.3304C46.9806 63.8711 46.8496 63.4152 46.7069 62.9632C46.578 62.8988 46.4491 62.8343 46.3163 62.7679ZM18.5819 69.6039C18.6464 70.1839 18.7108 70.764 18.7772 71.3617C19.1639 71.2972 19.5507 71.2328 19.9491 71.1664C19.8846 70.6507 19.8202 70.1351 19.7538 69.6039C19.3671 69.6039 18.9803 69.6039 18.5819 69.6039ZM46.5116 69.7992C46.5036 70.1897 46.5033 70.5805 46.5116 70.9711C46.8983 71.1 47.285 71.2289 47.6835 71.3617C47.7479 70.7816 47.8124 70.2015 47.8788 69.6039C47.1354 69.5182 47.1354 69.5182 46.5116 69.7992ZM20.7303 76.4398C21.1171 77.0199 21.1171 77.0199 21.5116 77.6117C22.1214 77.356 22.1214 77.356 22.4882 76.8304C22.2447 76.3108 22.2447 76.3108 21.9022 75.8539C21.3627 75.8539 21.1419 76.1106 20.7303 76.4398ZM44.5585 75.8539C44.2684 76.2406 44.2684 76.2406 43.9725 76.6351C44.1271 77.0257 44.1271 77.0257 44.3632 77.4164C44.5565 77.4808 44.7499 77.5453 44.9491 77.6117C45.2069 77.1605 45.4647 76.7093 45.7303 76.2445C45.3436 76.1156 44.9569 75.9867 44.5585 75.8539ZM26.1991 80.3461C26.0702 80.6683 25.9413 80.9906 25.8085 81.3226C26.2622 81.6405 26.2622 81.6405 26.785 81.9086C26.9784 81.8441 27.1718 81.7796 27.371 81.7132C27.5142 81.3197 27.5142 81.3197 27.5663 80.932C26.9307 80.4908 26.9307 80.4908 26.1991 80.3461ZM39.871 80.3461C39.3876 80.6361 39.3876 80.6361 38.8944 80.932C38.9589 81.2543 39.0233 81.5765 39.0897 81.9086C39.8099 81.8112 40.1844 81.6936 40.6522 81.1273C40.3944 80.8695 40.1366 80.6117 39.871 80.3461ZM32.4491 82.1039C32.4491 82.4906 32.4491 82.8773 32.4491 83.2757C32.9647 83.2757 33.4803 83.2757 34.0116 83.2757C34.0199 82.9503 34.0195 82.6246 34.0116 82.2992C33.7803 82.0227 33.7803 82.0227 33.1205 82.0917C32.7881 82.0977 32.7881 82.0977 32.4491 82.1039Z" fill="url(#paint1_linear_67_141)" shape-rendering="crispEdges"/>
<path d="M37.5272 62.7679C39.1372 63.9044 40.1214 65.5202 40.4569 67.4554C40.6749 69.5924 40.3212 71.5268 39.0531 73.2904C37.6452 74.951 35.8659 75.7943 33.7308 76.0126C31.5759 76.132 29.9006 75.5439 28.2255 74.1937C26.9921 73.0606 26.0669 71.3549 25.9572 69.6702C25.8957 67.2383 26.2491 65.391 27.9569 63.5492C30.6531 60.8803 34.4488 60.7681 37.5272 62.7679ZM30.1054 65.1117C28.9602 66.3674 28.4312 67.5217 28.4704 69.23C28.641 70.5702 29.2402 71.6064 30.3007 72.4359C31.6135 73.3464 32.8335 73.4741 34.4022 73.3148C35.7077 72.9664 36.5815 72.0609 37.3319 70.9711C37.9282 69.861 38.137 68.7907 37.7759 67.5561C37.404 66.5341 37.0214 65.809 36.16 65.1117C35.9868 64.9707 35.8136 64.8297 35.6351 64.6844C33.773 63.6655 31.7903 63.7661 30.1054 65.1117Z" fill="url(#paint2_linear_67_141)" shape-rendering="crispEdges"/>
<path d="M33.2181 66.4056C33.5169 66.3973 33.5169 66.3973 33.8216 66.3888C34.5677 66.5045 34.8754 66.6985 35.3788 67.2601C35.6148 68.4248 35.5867 69.5935 35.037 70.6537C34.0706 71.1368 33.1191 71.1097 32.0585 70.9711C31.4452 70.7402 31.3215 70.6734 31.0331 70.0677C30.7904 68.9757 30.6877 67.8717 31.2772 66.8695C31.9151 66.4549 32.4666 66.4151 33.2181 66.4056ZM32.8397 68.432C32.8397 68.6254 32.8397 68.8187 32.8397 69.0179C33.0975 69.0179 33.3554 69.0179 33.621 69.0179C33.621 68.8246 33.621 68.6312 33.621 68.432C33.3632 68.432 33.1054 68.432 32.8397 68.432Z" fill="url(#paint3_linear_67_141)" shape-rendering="crispEdges"/>
</g>
<defs>
<filter id="filter0_di_67_141" x="0" y="0.300171" width="108.257" height="94.3997" filterUnits="userSpaceOnUse" color-interpolation-filters="sRGB">
<feFlood flood-opacity="0" result="BackgroundImageFix"/>
<feColorMatrix in="SourceAlpha" type="matrix" values="0 0 0 0 0 0 0 0 0 0 0 0 0 0 0 0 0 0 127 0" result="hardAlpha"/>
<feOffset dy="4"/>
<feGaussianBlur stdDeviation="2"/>
<feComposite in2="hardAlpha" operator="out"/>
<feColorMatrix type="matrix" values="0 0 0 0 0.0156863 0 0 0 0 0.054902 0 0 0 0 0.188235 0 0 0 0.25 0"/>
<feBlend mode="normal" in2="BackgroundImageFix" result="effect1_dropShadow_67_141"/>
<feBlend mode="normal" in="SourceGraphic" in2="effect1_dropShadow_67_141" result="shape"/>
<feColorMatrix in="SourceAlpha" type="matrix" values="0 0 0 0 0 0 0 0 0 0 0 0 0 0 0 0 0 0 127 0" result="hardAlpha"/>
<feOffset dy="4"/>
<feGaussianBlur stdDeviation="2"/>
<feComposite in2="hardAlpha" operator="arithmetic" k2="-1" k3="1"/>
<feColorMatrix type="matrix" values="0 0 0 0 0.0160177 0 0 0 0 0.053549 0 0 0 0 0.186614 0 0 0 0.35 0"/>
<feBlend mode="normal" in2="shape" result="effect2_innerShadow_67_141"/>
</filter>
<linearGradient id="paint0_linear_67_141" x1="4" y1="-10" x2="116" y2="96" gradientUnits="userSpaceOnUse">
<stop stop-color="#0493B2"/>
<stop offset="1" stop-color="#57CDFF" stop-opacity="0.05"/>
</linearGradient>
<linearGradient id="paint1_linear_67_141" x1="4" y1="-10" x2="116" y2="96" gradientUnits="userSpaceOnUse">
<stop stop-color="#0493B2"/>
<stop offset="1" stop-color="#57CDFF" stop-opacity="0.05"/>
</linearGradient>
<linearGradient id="paint2_linear_67_141" x1="4" y1="-10" x2="116" y2="96" gradientUnits="userSpaceOnUse">
<stop stop-color="#0493B2"/>
<stop offset="1" stop-color="#57CDFF" stop-opacity="0.05"/>
</linearGradient>
<linearGradient id="paint3_linear_67_141" x1="4" y1="-10" x2="116" y2="96" gradientUnits="userSpaceOnUse">
<stop stop-color="#0493B2"/>
<stop offset="1" stop-color="#57CDFF" stop-opacity="0.05"/>
</linearGradient>
</defs>
</svg>
