<svg width="50" height="83" viewBox="0 0 50 83" fill="none" xmlns="http://www.w3.org/2000/svg">
<path d="M27.4747 82.4999C28.8554 82.5138 29.9859 81.4059 29.9999 80.0253L30.2271 57.5264C30.2411 56.1458 29.1332 55.0152 27.7525 55.0013C26.3719 54.9873 25.2413 56.0953 25.2274 57.4759L25.0254 77.4749L5.0264 77.2729C3.64576 77.2589 2.51522 78.3668 2.50128 79.7475C2.48733 81.1281 3.59526 82.2587 4.9759 82.2726L27.4747 82.4999ZM9.33709 11.9983L6.8638 11.6338L9.33709 11.9983ZM5.08489 57.1274L6.87042 55.3776L5.08489 57.1274ZM29.2855 78.2502L28.1648 77.1066L24.5937 80.6062L25.7145 81.7498L29.2855 78.2502ZM23.6818 72.532L16.9572 65.6703L13.3862 69.1699L20.1107 76.0317L23.6818 72.532ZM7.99118 56.5212L6.87042 55.3776L3.29936 58.8773L4.42012 60.0209L7.99118 56.5212ZM6.87042 55.3776C6.10424 54.5958 5.74797 53.5005 5.90757 52.4176L0.960992 51.6886C0.573407 54.3187 1.43864 56.9786 3.29936 58.8773L6.87042 55.3776ZM5.90757 52.4176L6.20271 50.4149L1.25613 49.6859L0.960992 51.6886L5.90757 52.4176ZM7.38327 42.4039L9.15411 30.3875L4.20754 29.6585L2.43669 41.6749L7.38327 42.4039ZM11.5152 14.3655L11.8104 12.3628L6.8638 11.6338L6.56866 13.6366L11.5152 14.3655ZM11.8104 12.3628C12.0391 10.8111 13.2721 9.60096 14.8279 9.4015L14.1921 4.44209C10.4138 4.92648 7.41916 7.86534 6.8638 11.6338L11.8104 12.3628ZM14.8279 9.4015L16.5524 9.18041L15.9166 4.221L14.1921 4.44209L14.8279 9.4015ZM23.4504 8.29605L33.7974 6.96951L33.1616 2.0101L22.8146 3.33664L23.4504 8.29605ZM47.5934 5.20079L49.3179 4.9797L48.6821 0.0202958L46.9576 0.241386L47.5934 5.20079Z" fill="white" fill-opacity="0.85"/>
</svg>
