<svg width="62" height="214" viewBox="0 0 62 214" fill="none" xmlns="http://www.w3.org/2000/svg">
<path d="M3 106.5H0.5H3ZM55.089 213.466C56.4509 213.693 57.739 212.773 57.966 211.411L61.665 189.217C61.8919 187.855 60.9719 186.567 59.61 186.34C58.2481 186.113 56.96 187.033 56.733 188.395L53.445 208.123L33.7171 204.835C32.3552 204.608 31.0671 205.528 30.8402 206.89C30.6132 208.252 31.5332 209.54 32.8951 209.767L55.089 213.466ZM5.05348 31.2068L6.69786 33.0899L5.05348 31.2068ZM4.1176 139.065L2.08327 140.518L4.1176 139.065ZM36.8556 0.116916L35.1833 1.57726L38.4721 5.34342L40.1444 3.88308L36.8556 0.116916ZM28.494 7.41862L18.46 16.1807L21.7488 19.9468L31.7828 11.1848L28.494 7.41862ZM5.08142 27.8634L3.4091 29.3237L6.69786 33.0899L8.37019 31.6296L5.08142 27.8634ZM3.4091 29.3237C1.56063 30.9379 0.5 33.2722 0.5 35.7262H5.5C5.5 34.7157 5.93673 33.7546 6.69786 33.0899L3.4091 29.3237ZM0.5 35.7262V39.2649H5.5V35.7262H0.5ZM0.5 53.4197V74.6518H5.5V53.4197H0.5ZM0.5 102.961V106.5H5.5V102.961H0.5ZM0.5 106.5V107.954H5.5V106.5H0.5ZM0.5 113.769V122.492H5.5V113.769H0.5ZM0.5 134.123V135.577H5.5V134.123H0.5ZM0.5 135.577C0.5 137.349 1.05355 139.076 2.08327 140.518L6.15193 137.612C5.72793 137.018 5.5 136.307 5.5 135.577H0.5ZM2.08327 140.518L4.65239 144.115L8.72105 141.208L6.15193 137.612L2.08327 140.518ZM14.9289 158.502L30.3436 180.082L34.4123 177.176L18.9975 155.595L14.9289 158.502ZM50.8965 208.856L53.4657 212.453L57.5343 209.547L54.9652 205.95L50.8965 208.856Z" fill="white" fill-opacity="0.85"/>
</svg>
