<svg width="25" height="25" viewBox="0 0 25 25" fill="none" xmlns="http://www.w3.org/2000/svg">
<g clip-path="url(#clip0_270_67387)">
<mask id="mask0_270_67387" style="mask-type:luminance" maskUnits="userSpaceOnUse" x="0" y="0" width="33" height="25">
<rect width="33" height="25" fill="white"/>
</mask>
<g mask="url(#mask0_270_67387)">
<path fill-rule="evenodd" clip-rule="evenodd" d="M0 0V25H33V0H0Z" fill="#FFB400"/>
<mask id="mask1_270_67387" style="mask-type:luminance" maskUnits="userSpaceOnUse" x="0" y="0" width="33" height="25">
<path fill-rule="evenodd" clip-rule="evenodd" d="M0 0V25H33V0H0Z" fill="white"/>
</mask>
<g mask="url(#mask1_270_67387)">
<path fill-rule="evenodd" clip-rule="evenodd" d="M0 0V6.25H33V0H0Z" fill="#C51918"/>
<path fill-rule="evenodd" clip-rule="evenodd" d="M0 18.75V25H33V18.75H0Z" fill="#C51918"/>
<rect x="5.16452" y="10.7" width="1.155" height="6.06667" fill="#F1F9FF"/>
<path fill-rule="evenodd" clip-rule="evenodd" d="M6.78151 9.65001H4.70251V10.2333H5.04901V10.7H6.43501V10.2333H6.78151V9.65001Z" fill="#C88A02"/>
<path fill-rule="evenodd" clip-rule="evenodd" d="M6.43501 17.1167H6.78151V17.7H4.70251V17.1167H5.04901V16.65H6.43501V17.1167Z" fill="#C88A02"/>
<path fill-rule="evenodd" clip-rule="evenodd" d="M5.742 9.76667C5.99335 9.76667 6.0189 9.67107 6.16719 9.52829C6.28233 9.41741 6.5505 9.2799 6.5505 9.125C6.5505 8.77062 6.18852 8.48334 5.742 8.48334C5.29548 8.48334 4.9335 8.77062 4.9335 9.125C4.9335 9.29757 5.11818 9.41296 5.25781 9.52829C5.40493 9.64978 5.51292 9.76667 5.742 9.76667Z" fill="#AD1619"/>
<path fill-rule="evenodd" clip-rule="evenodd" d="M4.70251 17.7H6.78151V18.6333C6.78151 18.6333 6.52164 18.5167 6.26176 18.5167C6.00189 18.5167 5.74201 18.6333 5.74201 18.6333C5.74201 18.6333 5.48214 18.5167 5.22226 18.5167C4.96239 18.5167 4.70251 18.6333 4.70251 18.6333V17.7Z" fill="#005BBF"/>
<mask id="mask2_270_67387" style="mask-type:luminance" maskUnits="userSpaceOnUse" x="4" y="17" width="3" height="2">
<path fill-rule="evenodd" clip-rule="evenodd" d="M4.70251 17.7H6.78151V18.6333C6.78151 18.6333 6.52164 18.5167 6.26176 18.5167C6.00189 18.5167 5.74201 18.6333 5.74201 18.6333C5.74201 18.6333 5.48214 18.5167 5.22226 18.5167C4.96239 18.5167 4.70251 18.6333 4.70251 18.6333V17.7Z" fill="white"/>
</mask>
<g mask="url(#mask2_270_67387)">
<path d="M4.68371 18.4499L4.63834 18.3382C4.82559 18.254 5.01351 18.2117 5.20171 18.2117C5.32331 18.2117 5.3868 18.2289 5.49474 18.2774C5.58956 18.32 5.63871 18.3333 5.7424 18.3333C5.84609 18.3333 5.89524 18.32 5.99005 18.2774C6.098 18.2289 6.16149 18.2117 6.28309 18.2117C6.47129 18.2117 6.65921 18.254 6.84646 18.3382L6.80109 18.4499C6.62788 18.3721 6.45534 18.3333 6.28309 18.3333C6.17939 18.3333 6.13025 18.3465 6.03543 18.3892C5.92749 18.4377 5.86399 18.4548 5.7424 18.4548C5.62081 18.4548 5.55731 18.4377 5.44937 18.3892C5.35455 18.3465 5.30541 18.3333 5.20171 18.3333C5.02946 18.3333 4.85692 18.3721 4.68371 18.4499Z" fill="white"/>
<path d="M4.68371 18.0999L4.63834 17.9882C4.82559 17.904 5.01351 17.8618 5.20171 17.8618C5.32331 17.8618 5.3868 17.8789 5.49474 17.9274C5.58956 17.97 5.63871 17.9833 5.7424 17.9833C5.84609 17.9833 5.89524 17.97 5.99005 17.9274C6.098 17.8789 6.16149 17.8618 6.28309 17.8618C6.47129 17.8618 6.65921 17.904 6.84646 17.9882L6.80109 18.0999C6.62788 18.0221 6.45534 17.9833 6.28309 17.9833C6.17939 17.9833 6.13025 17.9965 6.03543 18.0392C5.92749 18.0877 5.86399 18.1048 5.7424 18.1048C5.62081 18.1048 5.55731 18.0877 5.44937 18.0392C5.35455 17.9965 5.30541 17.9833 5.20171 17.9833C5.02946 17.9833 4.85692 18.0221 4.68371 18.0999Z" fill="white"/>
</g>
<rect x="16.4835" y="10.7" width="1.155" height="6.06667" fill="#F1F9FF"/>
<path fill-rule="evenodd" clip-rule="evenodd" d="M18.1005 9.65001H16.0215V10.2333H16.368V10.7H17.754V10.2333H18.1005V9.65001Z" fill="#C88A02"/>
<path fill-rule="evenodd" clip-rule="evenodd" d="M17.754 17.1167H18.1005V17.7H16.0215V17.1167H16.368V16.65H17.754V17.1167Z" fill="#C88A02"/>
<path fill-rule="evenodd" clip-rule="evenodd" d="M17.061 9.76667C17.3124 9.76667 17.3379 9.67107 17.4862 9.52829C17.6013 9.41741 17.8695 9.2799 17.8695 9.125C17.8695 8.77062 17.5075 8.48334 17.061 8.48334C16.6145 8.48334 16.2525 8.77062 16.2525 9.125C16.2525 9.29757 16.4372 9.41296 16.5768 9.52829C16.7239 9.64978 16.8319 9.76667 17.061 9.76667Z" fill="#AD1619"/>
<path fill-rule="evenodd" clip-rule="evenodd" d="M16.0215 17.7H18.1005V18.6333C18.1005 18.6333 17.8406 18.5167 17.5808 18.5167C17.3209 18.5167 17.061 18.6333 17.061 18.6333C17.061 18.6333 16.8011 18.5167 16.5413 18.5167C16.2814 18.5167 16.0215 18.6333 16.0215 18.6333V17.7Z" fill="#005BBF"/>
<mask id="mask3_270_67387" style="mask-type:luminance" maskUnits="userSpaceOnUse" x="16" y="17" width="3" height="2">
<path fill-rule="evenodd" clip-rule="evenodd" d="M16.0215 17.7H18.1005V18.6333C18.1005 18.6333 17.8406 18.5167 17.5808 18.5167C17.3209 18.5167 17.061 18.6333 17.061 18.6333C17.061 18.6333 16.8011 18.5167 16.5413 18.5167C16.2814 18.5167 16.0215 18.6333 16.0215 18.6333V17.7Z" fill="white"/>
</mask>
<g mask="url(#mask3_270_67387)">
<path d="M16.0027 18.4499L15.9573 18.3382C16.1446 18.254 16.3325 18.2117 16.5207 18.2117C16.6423 18.2117 16.7058 18.2289 16.8137 18.2774C16.9086 18.32 16.9577 18.3333 17.0614 18.3333C17.1651 18.3333 17.2142 18.32 17.3091 18.2774C17.417 18.2289 17.4805 18.2117 17.6021 18.2117C17.7903 18.2117 17.9782 18.254 18.1655 18.3382L18.1201 18.4499C17.9469 18.3721 17.7743 18.3333 17.6021 18.3333C17.4984 18.3333 17.4492 18.3465 17.3544 18.3892C17.2465 18.4377 17.183 18.4548 17.0614 18.4548C16.9398 18.4548 16.8763 18.4377 16.7684 18.3892C16.6736 18.3465 16.6244 18.3333 16.5207 18.3333C16.3485 18.3333 16.1759 18.3721 16.0027 18.4499Z" fill="white"/>
<path d="M16.0027 18.0999L15.9573 17.9882C16.1446 17.904 16.3325 17.8618 16.5207 17.8618C16.6423 17.8618 16.7058 17.8789 16.8137 17.9274C16.9086 17.97 16.9577 17.9833 17.0614 17.9833C17.1651 17.9833 17.2142 17.97 17.3091 17.9274C17.417 17.8789 17.4805 17.8618 17.6021 17.8618C17.7903 17.8618 17.9782 17.904 18.1655 17.9882L18.1201 18.0999C17.9469 18.0221 17.7743 17.9833 17.6021 17.9833C17.4984 17.9833 17.4492 17.9965 17.3544 18.0392C17.2465 18.0877 17.183 18.1048 17.0614 18.1048C16.9398 18.1048 16.8763 18.0877 16.7684 18.0392C16.6736 17.9965 16.6244 17.9833 16.5207 17.9833C16.3485 17.9833 16.1759 18.0221 16.0027 18.0999Z" fill="white"/>
</g>
<path fill-rule="evenodd" clip-rule="evenodd" d="M17.228 15.5999C17.228 15.8463 17.3445 16.0782 17.5527 16.3333L18.2619 15.7424L18.3296 15.7214L18.3674 15.4228C18.4371 14.8713 18.2038 14.5658 17.7229 14.3449L17.6898 14.3302L17.6897 14.3301C17.6238 14.3009 17.4801 14.2372 17.4315 14.2136C17.33 14.1645 17.2463 14.1157 17.1682 14.0583C17.0911 14.0018 17.0085 13.9484 16.9087 13.8899C17.5038 13.7934 17.8254 13.7221 18.0721 13.6148C18.6624 13.3579 18.7385 12.7612 18.1712 12.3665C17.3976 11.8284 15.3267 11.78 14.4178 12.254L14.8417 13.0833C15.2877 12.8507 16.3017 12.8069 17.0118 12.9262C16.9038 12.9453 16.7827 12.9654 16.647 12.9869C16.583 12.997 16.3969 13.0261 16.3 13.0412L16.2998 13.0413L16.2413 13.0504C15.9577 13.0949 15.7642 13.1515 15.6208 13.2501C15.3282 13.4514 15.2848 13.814 15.4936 14.0815C15.5818 14.1945 15.6971 14.279 15.8716 14.3812C15.9275 14.414 15.9878 14.4474 16.0687 14.491L16.1111 14.5137C16.1608 14.5404 16.2387 14.5822 16.2674 14.5978C16.434 14.6881 16.5432 14.7533 16.6247 14.8132C16.7524 14.907 16.8834 14.9832 17.032 15.0552C17.112 15.094 17.3417 15.1951 17.3404 15.1945L17.354 15.2007C17.2738 15.3103 17.228 15.4445 17.228 15.5999ZM5.14384 16.3333C5.35208 16.0782 5.46852 15.8463 5.46852 15.5999C5.46852 15.4445 5.42275 15.3103 5.34256 15.2007L5.35611 15.1945C5.35486 15.1951 5.58455 15.094 5.66452 15.0552C5.81318 14.9832 5.94414 14.907 6.07183 14.8132C6.15336 14.7533 6.26258 14.6881 6.42909 14.5978C6.45786 14.5822 6.5358 14.5404 6.58554 14.5137L6.62781 14.491C6.70873 14.4474 6.769 14.414 6.82498 14.3812C6.99944 14.279 7.11473 14.1945 7.2029 14.0815C7.41175 13.814 7.36839 13.4514 7.07573 13.2501C6.93234 13.1515 6.73885 13.0949 6.45523 13.0504L6.39666 13.0413L6.39642 13.0412C6.29948 13.0261 6.11348 12.997 6.04958 12.9869C5.91386 12.9654 5.79275 12.9453 5.68477 12.9262C6.39485 12.8069 7.40882 12.8507 7.85483 13.0833L8.27874 12.254C7.36985 11.78 5.29896 11.8284 4.52539 12.3665C3.958 12.7612 4.03414 13.3579 4.62448 13.6148C4.87116 13.7221 5.19273 13.7934 5.78781 13.8899C5.68809 13.9484 5.60541 14.0018 5.52838 14.0583C5.45025 14.1157 5.36655 14.1645 5.26503 14.2136C5.21647 14.2372 5.07269 14.3009 5.00679 14.3302L4.97364 14.3449C4.49279 14.5658 4.25941 14.8713 4.32915 15.4228L4.3669 15.7214L4.43462 15.7424L5.14384 16.3333ZM4.54944 15.5617L4.54798 15.566L4.5491 15.563L4.54944 15.5617Z" fill="#AD1619"/>
<path d="M6.10848 12.9167L6.4494 12.9879V13.5012C6.0863 13.7938 5.16452 14.2871 5.16452 14.2871V12.9167H6.10848Z" fill="#F1F9FF"/>
<path d="M16.8244 12.9167L16.4835 12.9879V13.5012C16.8466 13.7938 17.7684 14.2871 17.7684 14.2871V12.9167H16.8244Z" fill="#F1F9FF"/>
<path fill-rule="evenodd" clip-rule="evenodd" d="M15.2378 7.50624V7.33542C14.6437 6.90475 14.0216 6.68941 13.3714 6.68941C12.7481 6.41079 12.1172 6.30264 11.4786 6.36496C11.4788 6.36297 11.4789 6.36195 11.4789 6.36195C10.5188 6.26706 9.55129 6.68941 9.55129 6.68941C8.57603 6.68941 7.68491 7.33542 7.68491 7.33542V7.50624L8.84984 8.68804C8.84984 8.68804 9.17774 9.82553 11.4742 9.55819V9.56108C11.4742 9.56108 12.9946 9.51916 13.1014 9.48327C13.1438 9.46903 13.1878 9.45606 13.2327 9.44281C13.5305 9.35499 13.8705 9.25474 14.0728 8.68804L15.2378 7.50624ZM11.4742 6.41722C11.441 6.81066 11.2517 9.18248 11.4742 9.55019V6.41722Z" fill="#AD1619"/>
<path fill-rule="evenodd" clip-rule="evenodd" d="M8.5735 8.48915L8.57428 8.48556L7.75473 7.70672L7.83387 7.62174L8.6029 8.35258L8.62258 8.26115C8.7484 8.28878 8.84035 8.29894 8.89395 8.29318V8.13465L9.06442 8.22783C9.14827 8.27367 9.26836 8.28599 9.42651 8.26C9.54267 8.2409 9.62106 8.10463 9.64669 7.81425L9.69843 7.22804L9.87199 7.78986C9.95052 8.04409 10.0703 8.15616 10.2409 8.15616C10.4075 8.15616 10.4745 8.09447 10.4819 7.93897L10.5028 7.49795L10.7003 7.89186C10.7714 8.03377 10.8695 8.09816 11.009 8.09816C11.2085 8.09816 11.3417 7.93017 11.3417 7.66658H11.3455H11.5727H11.5765C11.5765 7.93017 11.7098 8.09816 11.9093 8.09816C12.0487 8.09816 12.1468 8.03377 12.218 7.89186L12.4154 7.49795L12.4364 7.93897C12.4438 8.09447 12.5107 8.15616 12.6773 8.15616C12.8479 8.15616 12.9677 8.04409 13.0462 7.78986L13.2198 7.22804L13.2715 7.81425C13.2972 8.10463 13.3756 8.2409 13.4917 8.26C13.6499 8.28599 13.77 8.27367 13.8538 8.22783L14.0243 8.13465V8.29318C14.0779 8.29894 14.1698 8.28878 14.2957 8.26115L14.3322 8.4308L15.1835 7.62174L15.2627 7.70672L14.2032 8.7135C14.0487 9.00103 13.9708 9.19081 13.9708 9.26965C13.9708 9.38992 13.6611 9.4613 13.0565 9.53463C12.5829 9.59207 12.0239 9.63062 11.5667 9.63639V9.63714L11.5087 9.63694L11.4507 9.63714V9.63639C10.9935 9.63062 10.4345 9.59207 9.96089 9.53463C9.35631 9.4613 9.04654 9.38992 9.04654 9.26965C9.04654 9.25473 9.04375 9.23585 9.03819 9.21308C8.97722 9.13466 8.93436 9.00637 8.90584 8.89064C8.87907 8.83653 8.8485 8.77743 8.81414 8.7135L8.57942 8.49045L8.5735 8.48915ZM14.251 8.50794C14.0618 8.54176 13.9252 8.53834 13.8528 8.47874C13.7394 8.51206 13.6064 8.51526 13.4546 8.4903C13.2925 8.46365 13.1796 8.3547 13.1116 8.17398C13.0229 8.28813 12.9107 8.3586 12.7764 8.38138C13.5155 8.48726 14.0333 8.63609 14.0333 8.63609C14.0333 8.63609 14.0205 8.74666 13.9894 8.87666C14.0223 8.8086 14.0612 8.73298 14.1062 8.64952L14.1174 8.63494L14.251 8.50794ZM12.4276 8.33703C12.3633 8.30477 12.312 8.25799 12.2749 8.1977C12.2198 8.24686 12.1571 8.28281 12.0875 8.30499C12.2037 8.31397 12.3173 8.32481 12.4276 8.33703ZM11.6798 8.28229C11.5898 8.24029 11.515 8.17304 11.4591 8.08687C11.4036 8.17243 11.3295 8.23934 11.2404 8.28139C11.2932 8.27981 11.3463 8.27869 11.3996 8.27808V8.27756L11.4459 8.27769L11.4923 8.27756V8.27808C11.5551 8.2788 11.6177 8.28022 11.6798 8.28229ZM8.89162 8.62695L8.78393 8.52461C8.9132 8.53756 9.00888 8.52528 9.06546 8.47874C9.17883 8.51206 9.31179 8.51526 9.46361 8.4903C9.62576 8.46365 9.73868 8.3547 9.80663 8.17398C9.89277 8.28482 10.001 8.35448 10.1302 8.37928C9.49297 8.46972 9.01751 8.59276 8.89162 8.62695ZM10.8257 8.30336C10.7138 8.31176 10.6043 8.32192 10.4977 8.33338C10.5587 8.30128 10.6076 8.25575 10.6433 8.1977C10.6971 8.24567 10.7581 8.28107 10.8257 8.30336ZM13.6672 9.27193C13.7481 9.31018 13.813 9.27202 13.8643 9.19878C13.8598 9.21901 13.857 9.2373 13.8559 9.25368C13.8491 9.25816 13.8388 9.26355 13.8251 9.26934C13.7871 9.2855 13.729 9.30271 13.6534 9.32012C13.5048 9.35436 13.2933 9.3884 13.0427 9.41879C12.5533 9.47815 11.9713 9.51721 11.5087 9.52027C11.046 9.51721 10.4641 9.47815 9.97466 9.41879C9.72404 9.3884 9.51256 9.35436 9.36399 9.32012C9.30064 9.30552 9.24956 9.29107 9.21229 9.27726C9.21639 9.27568 9.22054 9.27391 9.22473 9.27193C9.47704 9.15268 11.1455 9.04076 11.4459 9.02145C11.7464 9.04076 13.4149 9.15268 13.6672 9.27193ZM13.9854 9.25056C13.985 9.25088 13.9844 9.25145 13.9838 9.25229L13.9847 9.25112L13.9854 9.25056Z" fill="#C88A02"/>
<path fill-rule="evenodd" clip-rule="evenodd" d="M11.4595 5.56987C11.6509 5.56987 11.806 5.41317 11.806 5.21987C11.806 5.02657 11.6509 4.86987 11.4595 4.86987C11.2681 4.86987 11.113 5.02657 11.113 5.21987C11.113 5.41317 11.2681 5.56987 11.4595 5.56987Z" fill="#005BBF"/>
<path fill-rule="evenodd" clip-rule="evenodd" d="M11.2341 7.28834C11.2415 7.32675 11.2531 7.36252 11.2676 7.39439C11.2229 7.37712 11.1698 7.36712 11.1128 7.36712C10.9533 7.36712 10.824 7.44547 10.824 7.54212C10.824 7.63877 10.9533 7.71712 11.1128 7.71712C11.2722 7.71712 11.4015 7.63878 11.4015 7.54214C11.4015 7.63878 11.5308 7.71712 11.6903 7.71712C11.8498 7.71712 11.979 7.63877 11.979 7.54212C11.979 7.44547 11.8498 7.36712 11.6903 7.36712C11.6501 7.36712 11.6119 7.37208 11.5772 7.38105C11.5855 7.33321 11.5852 7.27835 11.5742 7.22156C11.5438 7.06344 11.443 6.9502 11.3491 6.96864C11.2552 6.98708 11.2037 7.13022 11.2341 7.28834ZM11.4015 7.54212L11.4014 7.53678L11.4017 7.53686L11.4015 7.54212ZM9.53514 7.51106C9.52055 7.47919 9.50901 7.44342 9.50162 7.40501C9.47119 7.24689 9.52266 7.10375 9.61659 7.08531C9.71051 7.06687 9.81132 7.1801 9.84175 7.33823C9.85268 7.39502 9.85304 7.44988 9.84467 7.49772C9.8794 7.48875 9.91763 7.48378 9.95778 7.48378C10.1173 7.48378 10.2465 7.56213 10.2465 7.65878C10.2465 7.75543 10.1173 7.83378 9.95778 7.83378C9.79831 7.83378 9.66903 7.75543 9.66903 7.65878L9.66916 7.65353L9.6689 7.65344L9.66903 7.65878C9.66903 7.75543 9.53975 7.83378 9.38028 7.83378C9.22081 7.83378 9.09153 7.75543 9.09153 7.65878C9.09153 7.56213 9.22081 7.48378 9.38028 7.48378C9.43726 7.48378 9.49039 7.49379 9.53514 7.51106ZM13.1525 7.6177C13.1392 7.71341 13.0004 7.77282 12.8425 7.75041C12.6845 7.72799 12.5673 7.63223 12.5806 7.53652C12.594 7.44081 12.7328 7.38139 12.8907 7.40381C12.9471 7.41182 12.9984 7.4292 13.0403 7.45259C13.0302 7.41898 13.0237 7.38194 13.0217 7.34286C13.0134 7.182 13.0841 7.04749 13.1796 7.04244C13.2752 7.03738 13.3594 7.16368 13.3677 7.32454C13.3707 7.38232 13.3635 7.4367 13.3486 7.4829C13.3843 7.47889 13.4228 7.47935 13.4626 7.485C13.6205 7.50741 13.7377 7.60318 13.7244 7.69888C13.7111 7.79459 13.5723 7.85401 13.4143 7.83159C13.2564 7.80917 13.1392 7.71341 13.1525 7.6177ZM13.1525 7.6177L13.1534 7.61252L13.1531 7.61239L13.1525 7.6177ZM14.2523 8.08047C14.3931 8.15609 14.5436 8.14822 14.5885 8.06288L14.5909 8.0581C14.6048 8.07293 14.6212 8.08372 14.6399 8.08951C14.7314 8.11777 14.8434 8.0158 14.89 7.86175C14.9367 7.70771 14.9003 7.55992 14.8088 7.53166C14.7173 7.50341 14.6053 7.60538 14.5587 7.75942C14.5474 7.79684 14.5409 7.83389 14.539 7.86895C14.5075 7.83248 14.4652 7.79846 14.4149 7.77143C14.2741 7.69581 14.1236 7.70368 14.0786 7.78902C14.0337 7.87436 14.1115 8.00484 14.2523 8.08047ZM8.585 8.1162C8.44419 8.19183 8.29363 8.18395 8.24871 8.09862C8.24788 8.09704 8.24709 8.09545 8.24634 8.09384C8.23247 8.10867 8.21605 8.11946 8.19732 8.12525C8.10582 8.1535 7.99384 8.05153 7.94722 7.89749C7.90059 7.74344 7.93697 7.59566 8.02848 7.5674C8.11998 7.53914 8.23195 7.64111 8.27858 7.79516C8.28991 7.83258 8.29633 7.86963 8.29826 7.90469C8.32975 7.86822 8.37201 7.8342 8.42233 7.80717C8.56313 7.73155 8.71369 7.73942 8.75861 7.82476C8.80353 7.9101 8.7258 8.04058 8.585 8.1162Z" fill="#C88A02"/>
<path fill-rule="evenodd" clip-rule="evenodd" d="M11.3302 4.24646H11.5708V4.4H11.728V4.64306H11.5708V5.12917H11.728V5.37223H11.1705V5.12917H11.3302V4.64306H11.1705V4.4H11.3302V4.24646Z" fill="#C88A02"/>
<rect x="11.286" y="5.56667" width="0.462" height="1.51667" fill="#C88A02"/>
<path d="M9.42624 5.82067L9.42423 5.93732C8.40009 5.91926 7.81263 6.07022 7.66351 6.37111C7.50934 6.68218 7.53801 7.06032 7.75403 7.50952L7.65014 7.5605C7.41966 7.08123 7.38818 6.66603 7.56023 6.31888C7.73733 5.96155 8.35878 5.80184 9.42624 5.82067Z" fill="white"/>
<path d="M9.6244 6.8552L9.56518 6.95536C9.34215 6.82085 9.23053 6.59129 9.23053 6.27494C9.23053 5.82027 9.4624 5.55365 9.9753 5.37119C10.3026 5.25475 10.7498 5.30249 11.318 5.51059L11.2787 5.62027C10.7332 5.4205 10.3111 5.37543 10.0137 5.48124C9.54322 5.64859 9.34603 5.87533 9.34603 6.27494C9.34603 6.55255 9.43875 6.74323 9.6244 6.8552Z" fill="white"/>
<path d="M7.89955 7.33061L7.6816 7.40793C7.45547 6.75757 7.52005 6.31588 7.90645 6.12536C8.24693 5.95748 8.74316 5.88915 9.39758 5.91594L9.38823 6.14908C8.76862 6.12372 8.30765 6.18719 8.00778 6.33504C7.75384 6.46026 7.70739 6.77795 7.89955 7.33061Z" fill="#C88A02"/>
<path d="M10.4459 5.66531C9.91771 5.66531 9.70082 5.79524 9.57692 6.17887C9.49795 6.42335 9.57454 6.63202 9.82285 6.82679L9.68117 7.01108C9.35969 6.75892 9.24634 6.45008 9.35731 6.1065C9.51521 5.6176 9.82506 5.43198 10.4459 5.43198C10.8527 5.43198 11.1697 5.53995 11.3904 5.7597L11.4248 5.79397V6.91894H11.1938V5.8937C11.0214 5.74248 10.7739 5.66531 10.4459 5.66531Z" fill="#C88A02"/>
<path d="M13.4568 5.93734L13.4588 6.05399C14.483 6.03593 15.0704 6.18689 15.2195 6.48778C15.3737 6.79885 15.345 7.17699 15.129 7.62619L15.2329 7.67717C15.4634 7.1979 15.4949 6.7827 15.3228 6.43555C15.1457 6.07822 14.5243 5.91851 13.4568 5.93734Z" fill="white"/>
<path d="M13.0951 6.87946L13.1544 6.97963C13.3774 6.84511 13.489 6.61555 13.489 6.2992C13.489 5.84453 13.2571 5.57791 12.7442 5.39546C12.4169 5.27901 11.9697 5.32675 11.4015 5.53485L11.4409 5.64453C11.9864 5.44476 12.4085 5.39969 12.7059 5.5055C13.1763 5.67285 13.3735 5.8996 13.3735 6.2992C13.3735 6.57682 13.2808 6.76749 13.0951 6.87946Z" fill="white"/>
<path d="M15.0555 7.44728L15.2734 7.5246C15.4995 6.87423 15.435 6.43255 15.0486 6.24203C14.7081 6.07414 14.2119 6.00582 13.5574 6.03261L13.5668 6.26575C14.1864 6.24039 14.6474 6.30386 14.9472 6.45171C15.2012 6.57693 15.2476 6.89462 15.0555 7.44728Z" fill="#C88A02"/>
<path d="M12.496 5.68335C13.0241 5.68335 13.241 5.81328 13.3649 6.19691C13.4439 6.44139 13.3673 6.65005 13.119 6.84483L13.2607 7.02912C13.5821 6.77695 13.6955 6.46812 13.5845 6.12454C13.4266 5.63563 13.1168 5.45001 12.496 5.45001C12.0891 5.45001 11.7721 5.55799 11.5514 5.77774L11.517 5.81201V6.93697H11.748V5.91174C11.9204 5.76051 12.168 5.68335 12.496 5.68335Z" fill="#C88A02"/>
<path opacity="0.3" fill-rule="evenodd" clip-rule="evenodd" d="M7.70551 9.65001H15.213V16.4634C15.213 16.4634 14.6553 18.75 11.4593 18.75C8.26318 18.75 7.70551 16.4031 7.70551 16.4031V9.65001Z" fill="#E1E5E8"/>
<mask id="mask4_270_67387" style="mask-type:luminance" maskUnits="userSpaceOnUse" x="7" y="9" width="9" height="10">
<path fill-rule="evenodd" clip-rule="evenodd" d="M7.70551 9.65001H15.213V16.4634C15.213 16.4634 14.6553 18.75 11.4593 18.75C8.26318 18.75 7.70551 16.4031 7.70551 16.4031V9.65001Z" fill="white"/>
</mask>
<g mask="url(#mask4_270_67387)">
<rect x="7.70551" y="13.85" width="3.8115" height="4.55" fill="#FFC034"/>
<rect x="8.16751" y="14.0833" width="0.462" height="4.31667" fill="#AD1619"/>
<rect x="9.78452" y="14.0833" width="0.462" height="4.31667" fill="#AD1619"/>
<rect x="8.97601" y="14.0833" width="0.462" height="4.31667" fill="#AD1619"/>
<rect x="10.593" y="14.0833" width="0.462" height="4.31667" fill="#AD1619"/>
<rect x="7.70551" y="9.53334" width="3.8115" height="4.43333" fill="#AD1619"/>
<rect x="11.4015" y="13.7333" width="3.8115" height="4.43333" fill="#AD1619"/>
<rect x="11.4015" y="9.65001" width="4.0425" height="4.31667" fill="#F1F9FF"/>
<path fill-rule="evenodd" clip-rule="evenodd" d="M9.32251 10H9.66901V10.9679H9.90001V10.484H10.2465V10.9679H10.593V11.5729H10.2465V12.6617H10.593V13.2667H8.51401V12.6617H8.86051V11.5729H8.51401V10.9679H8.74501V10.484H9.09151V10.9679H9.32251V10Z" fill="#C88A02"/>
<path d="M13.3844 10.2032L13.621 9.94739L14.1175 10.416L13.881 10.6717L13.3844 10.2032Z" fill="#C88A02"/>
<path fill-rule="evenodd" clip-rule="evenodd" d="M14.8088 16.8126V14.2583H11.9213V16.7912L11.9258 16.8109C12.072 17.44 12.5698 17.7583 13.365 17.7583C14.1595 17.7583 14.6572 17.4483 14.8039 16.8328L14.8088 16.8126ZM13.365 17.4083C12.727 17.4083 12.3785 17.1913 12.2678 16.7499V14.6083H14.4623V16.7702C14.3518 17.1971 14.0033 17.4083 13.365 17.4083Z" fill="#FFC034"/>
<path fill-rule="evenodd" clip-rule="evenodd" d="M13.4842 14.4718H13.2436V15.6298L12.295 14.5877L12.125 14.7456L12.9828 15.6881H12.2056V16.0381H12.8026H13.0017L12.125 17.0013L12.295 17.1592L13.2436 16.1171V17.4707H13.4842V16.2389L14.3219 17.1592L14.4919 17.0013L13.6152 16.0381H14.5938V15.6881H13.6341L14.4919 14.7456L14.3219 14.5877L13.4842 15.508V14.4718Z" fill="#FFC034"/>
<path fill-rule="evenodd" clip-rule="evenodd" d="M13.9041 18.1695C13.9041 18.1695 11.4577 18.3638 11.4577 16.7701C11.4577 16.7701 11.4344 18.1695 8.88 18.1695V19.4276H13.9041V18.1695Z" fill="#F1F9FF"/>
<path fill-rule="evenodd" clip-rule="evenodd" d="M11.4593 14.7833C11.9377 14.7833 12.3255 14.3655 12.3255 13.85C12.3255 13.3345 11.9377 12.9167 11.4593 12.9167C10.9809 12.9167 10.593 13.3345 10.593 13.85C10.593 14.3655 10.9809 14.7833 11.4593 14.7833Z" fill="#005BBF" stroke="#AD1619" stroke-width="1.16667"/>
</g>
</g>
</g>
</g>
<defs>
<clipPath id="clip0_270_67387">
<rect width="25" height="25" rx="8.2" fill="white"/>
</clipPath>
</defs>
</svg>
