<svg width="52" height="79" viewBox="0 0 52 79" fill="none" xmlns="http://www.w3.org/2000/svg">
<path fill-rule="evenodd" clip-rule="evenodd" d="M51.5058 22.8834C50.768 23.7544 49.4722 23.8553 48.6115 23.1087L27.3358 4.6544C26.5671 3.98765 25.4329 3.98765 24.6642 4.6544L3.3885 23.1087C2.52778 23.8553 1.23196 23.7544 0.494193 22.8834C-0.243562 22.0124 -0.143884 20.7011 0.71683 19.9545L21.9925 1.50019C24.2986 -0.500063 27.7014 -0.500069 30.0075 1.50019L51.2832 19.9545C52.1439 20.7011 52.2436 22.0124 51.5058 22.8834ZM51.5058 50.579C50.768 51.45 49.4722 51.5509 48.6115 50.8043L27.3358 32.35C26.5671 31.6832 25.4329 31.6832 24.6642 32.35L3.3885 50.8043C2.52778 51.5509 1.23195 51.45 0.494192 50.579C-0.243563 49.708 -0.143885 48.3967 0.716829 47.6501L21.9925 29.1958C24.2986 27.1955 27.7014 27.1955 30.0075 29.1958L51.2832 47.6501C52.1439 48.3967 52.2436 49.708 51.5058 50.579ZM48.6115 78.4999C49.4722 79.2465 50.768 79.1456 51.5058 78.2746C52.2436 77.4036 52.1439 76.0923 51.2832 75.3457L30.0075 56.8914C27.7014 54.8911 24.2986 54.8911 21.9925 56.8914L0.716828 75.3457C-0.143886 76.0923 -0.243564 77.4036 0.494191 78.2746C1.23195 79.1456 2.52778 79.2465 3.3885 78.4999L24.6642 60.0456C25.4329 59.3788 26.5671 59.3788 27.3358 60.0456L48.6115 78.4999Z" fill="url(#paint0_linear_58_394)"/>
<defs>
<linearGradient id="paint0_linear_58_394" x1="26" y1="-1.1365e-06" x2="26" y2="79" gradientUnits="userSpaceOnUse">
<stop stop-color="white"/>
<stop offset="1" stop-color="#ACBEFF" stop-opacity="0"/>
</linearGradient>
</defs>
</svg>
