<svg width="25" height="25" viewBox="0 0 25 25" fill="none" xmlns="http://www.w3.org/2000/svg">
<g clip-path="url(#clip0_270_67499)">
<mask id="mask0_270_67499" style="mask-type:luminance" maskUnits="userSpaceOnUse" x="-2" y="0" width="33" height="25">
<rect x="-2" width="33" height="25" fill="white"/>
</mask>
<g mask="url(#mask0_270_67499)">
<path fill-rule="evenodd" clip-rule="evenodd" d="M6.25 0H31V25H6.25V0Z" fill="#EF0000"/>
<path fill-rule="evenodd" clip-rule="evenodd" d="M-2 0H10.375V25H-2V0Z" fill="#2F8D00"/>
<mask id="mask1_270_67499" style="mask-type:luminance" maskUnits="userSpaceOnUse" x="2" y="4" width="17" height="17">
<path fill-rule="evenodd" clip-rule="evenodd" d="M10.2768 20.6325C5.88318 20.6325 2.32144 16.9915 2.32144 12.5C2.32144 8.00852 5.88318 4.36746 10.2768 4.36746C14.6704 4.36746 18.2322 8.00852 18.2322 12.5C18.2322 16.9915 14.6704 20.6325 10.2768 20.6325Z" fill="white"/>
</mask>
<g mask="url(#mask1_270_67499)">
<path fill-rule="evenodd" clip-rule="evenodd" d="M9.78574 4.16666H10.817V6.9779H9.78574V4.16666Z" fill="#FFE017"/>
<path fill-rule="evenodd" clip-rule="evenodd" d="M9.78574 18.2229H10.817V20.8333H9.78574V18.2229Z" fill="#FFE017"/>
<path d="M2.4493 12.9206L2.16098 12.1734C5.34258 10.8904 7.74391 10.063 9.37327 9.69013C11.7638 9.14304 14.3905 8.73826 17.2535 8.47549L17.3237 9.27549C14.4936 9.53524 11.9006 9.93483 9.54492 10.4739C7.96406 10.8357 5.59608 11.6516 2.4493 12.9206Z" fill="#FFE017"/>
<path d="M17.739 7.9832L17.505 8.74997C15.1005 7.98319 13.1417 7.65359 11.636 7.75568L11.584 6.95423C13.2006 6.84461 15.2498 7.18944 17.739 7.9832Z" fill="#FFE017"/>
<path d="M18.571 12.2706L18.1265 12.9329C16.9007 12.0733 15.3905 11.6415 13.5856 11.6415V10.8383C15.5423 10.8383 17.2075 11.3144 18.571 12.2706Z" fill="#FFE017"/>
<path d="M17.9052 12.511L18.1084 13.2869C15.4656 14.0099 12.9845 14.4202 10.6648 14.5168C8.32903 14.6141 5.60667 14.2024 2.49536 13.2848L2.71314 12.5131C5.74884 13.4083 8.38949 13.8077 10.6328 13.7142C12.8921 13.6201 15.3163 13.2193 17.9052 12.511Z" fill="#FFE017"/>
<path d="M17.6059 16.2874L16.3639 17.5735C14.0037 15.1917 11.9258 13.4886 10.143 12.4653C8.32972 11.4245 5.96508 10.3676 3.0527 9.299L3.64995 7.59802C6.64821 8.69818 9.09984 9.79391 11.0085 10.8895C12.9476 12.0025 15.1425 13.8015 17.6059 16.2874Z" fill="#FFE017"/>
<path d="M3.62889 17.0159L3.15878 16.3724C3.22443 16.3222 3.34157 16.2387 3.50296 16.1328C3.76943 15.9579 4.06534 15.7833 4.38371 15.6202C5.26059 15.1709 6.14018 14.8903 6.97912 14.8646C7.02015 14.8633 7.061 14.8627 7.10168 14.8627V15.6659C7.06891 15.6659 7.03592 15.6664 7.00272 15.6674C6.29572 15.6891 5.51933 15.9368 4.73579 16.3382C4.44374 16.4879 4.17162 16.6484 3.92741 16.8087C3.8424 16.8645 3.76719 16.9161 3.70274 16.962C3.66516 16.9888 3.64023 17.0073 3.62889 17.0159Z" fill="#FFE017"/>
<path d="M3.9938 17.2943L4.19167 16.517C6.81117 17.2138 8.83065 17.5611 10.24 17.5611C11.6442 17.5611 13.7341 17.1515 16.4962 16.3295L16.7159 17.1007C13.8884 17.9421 11.7343 18.3643 10.24 18.3643C8.75105 18.3643 6.67232 18.0069 3.9938 17.2943Z" fill="#FFE017"/>
<path d="M2.97314 10.0983L4.21794 8.81506L6.04049 10.6626L4.79569 11.9459L2.97314 10.0983Z" fill="#FFE017"/>
<path d="M13.2996 16.5081L14.2255 14.9685L17.1167 16.7857L16.1908 18.3252L13.2996 16.5081Z" fill="#FFE017"/>
</g>
<path fill-rule="evenodd" clip-rule="evenodd" d="M2.32144 12.5C2.32144 16.9915 5.88318 20.6325 10.2768 20.6325C14.6704 20.6325 18.2322 16.9915 18.2322 12.5C18.2322 8.00852 14.6704 4.36746 10.2768 4.36746C5.88318 4.36746 2.32144 8.00852 2.32144 12.5ZM17.25 12.6004C17.25 16.4819 14.172 19.6285 10.375 19.6285C6.57806 19.6285 3.50001 16.4819 3.50001 12.6004C3.50001 8.71887 6.57806 5.57228 10.375 5.57228C14.172 5.57228 17.25 8.71887 17.25 12.6004Z" fill="#F9E813"/>
<path d="M5.896 7.48465V14.0062C6.32101 16.5876 7.75286 17.8782 10.1916 17.8782C12.6302 17.8782 14.0621 16.5876 14.4871 14.0062V7.48465H5.896Z" fill="white"/>
<path d="M5.3067 6.88223H15.0764V14.0566L15.0682 14.1062C14.5963 16.9725 12.9232 18.4806 10.1915 18.4806C7.45988 18.4806 5.78681 16.9725 5.31488 14.1062L5.3067 14.0566V6.88223Z" fill="#C51918"/>
<path d="M7.54138 9.07364H12.8417V13.6996C12.8417 13.6996 12.4484 16.0884 10.1916 16.0884C7.9347 16.0884 7.54138 13.6996 7.54138 13.6996V9.07364Z" fill="#F7FCFF"/>
<path fill-rule="evenodd" clip-rule="evenodd" d="M6.25003 7.37952H6.99551V7.88152H6.25003V7.37952Z" fill="#F9E813"/>
<path fill-rule="evenodd" clip-rule="evenodd" d="M5.85718 7.58032H7.23218V7.83133H5.85718V7.58032Z" fill="#060101"/>
<path fill-rule="evenodd" clip-rule="evenodd" d="M5.85718 7.78113H6.60266V8.03213H5.85718V7.78113Z" fill="#F9E813"/>
<path fill-rule="evenodd" clip-rule="evenodd" d="M6.64288 7.78113H7.38837V8.03213H6.64288V7.78113Z" fill="#F9E813"/>
<path fill-rule="evenodd" clip-rule="evenodd" d="M5.85718 8.38354H6.35417V9.13656H5.85718V8.38354Z" fill="#F9E813"/>
<path fill-rule="evenodd" clip-rule="evenodd" d="M6.83932 8.38354H7.33631V9.13656H6.83932V8.38354Z" fill="#F9E813"/>
<path fill-rule="evenodd" clip-rule="evenodd" d="M6.44647 8.38354H6.69497V9.13656H6.44647V8.38354Z" fill="#F9E813"/>
<path fill-rule="evenodd" clip-rule="evenodd" d="M5.85718 8.18274H7.23218V8.43374H5.85718V8.18274Z" fill="#060101"/>
<path fill-rule="evenodd" clip-rule="evenodd" d="M5.85718 8.78513H7.23218V9.03613H5.85718V8.78513Z" fill="#060101"/>
<path fill-rule="evenodd" clip-rule="evenodd" d="M6.05362 7.98193H6.30211V8.23294H6.05362V7.98193Z" fill="#F9E813"/>
<path fill-rule="evenodd" clip-rule="evenodd" d="M6.83932 7.98193H7.08782V8.23294H6.83932V7.98193Z" fill="#F9E813"/>
<path fill-rule="evenodd" clip-rule="evenodd" d="M6.44647 7.78113H6.69497V8.28314H6.44647V7.78113Z" fill="#F9E813"/>
<path fill-rule="evenodd" clip-rule="evenodd" d="M9.98218 7.37952H10.7277V7.88152H9.98218V7.37952Z" fill="#F9E813"/>
<path fill-rule="evenodd" clip-rule="evenodd" d="M9.58932 7.58032H10.9643V7.83133H9.58932V7.58032Z" fill="#060101"/>
<path fill-rule="evenodd" clip-rule="evenodd" d="M9.58932 7.78113H10.3348V8.03213H9.58932V7.78113Z" fill="#F9E813"/>
<path fill-rule="evenodd" clip-rule="evenodd" d="M10.375 7.78113H11.1205V8.03213H10.375V7.78113Z" fill="#F9E813"/>
<path fill-rule="evenodd" clip-rule="evenodd" d="M9.58932 8.38354H10.0863V9.13656H9.58932V8.38354Z" fill="#F9E813"/>
<path fill-rule="evenodd" clip-rule="evenodd" d="M10.5715 8.38354H11.0685V9.13656H10.5715V8.38354Z" fill="#F9E813"/>
<path fill-rule="evenodd" clip-rule="evenodd" d="M10.1786 8.38354H10.4271V9.13656H10.1786V8.38354Z" fill="#F9E813"/>
<path fill-rule="evenodd" clip-rule="evenodd" d="M9.58932 8.18274H10.9643V8.43374H9.58932V8.18274Z" fill="#060101"/>
<path fill-rule="evenodd" clip-rule="evenodd" d="M9.58932 8.78513H10.9643V9.03613H9.58932V8.78513Z" fill="#060101"/>
<path fill-rule="evenodd" clip-rule="evenodd" d="M9.78577 7.98193H10.0343V8.23294H9.78577V7.98193Z" fill="#F9E813"/>
<path fill-rule="evenodd" clip-rule="evenodd" d="M10.5715 7.98193H10.82V8.23294H10.5715V7.98193Z" fill="#F9E813"/>
<path fill-rule="evenodd" clip-rule="evenodd" d="M10.1786 7.78113H10.4271V8.28314H10.1786V7.78113Z" fill="#F9E813"/>
<path fill-rule="evenodd" clip-rule="evenodd" d="M13.5179 7.37952H14.2634V7.88152H13.5179V7.37952Z" fill="#F9E813"/>
<path fill-rule="evenodd" clip-rule="evenodd" d="M13.125 7.58032H14.5V7.83133H13.125V7.58032Z" fill="#060101"/>
<path fill-rule="evenodd" clip-rule="evenodd" d="M13.125 7.78113H13.8705V8.03213H13.125V7.78113Z" fill="#F9E813"/>
<path fill-rule="evenodd" clip-rule="evenodd" d="M13.9107 7.78113H14.6562V8.03213H13.9107V7.78113Z" fill="#F9E813"/>
<path fill-rule="evenodd" clip-rule="evenodd" d="M13.125 8.38354H13.622V9.13656H13.125V8.38354Z" fill="#F9E813"/>
<path fill-rule="evenodd" clip-rule="evenodd" d="M14.1072 8.38354H14.6042V9.13656H14.1072V8.38354Z" fill="#F9E813"/>
<path fill-rule="evenodd" clip-rule="evenodd" d="M13.7143 8.38354H13.9628V9.13656H13.7143V8.38354Z" fill="#F9E813"/>
<path fill-rule="evenodd" clip-rule="evenodd" d="M13.125 8.18274H14.5V8.43374H13.125V8.18274Z" fill="#060101"/>
<path fill-rule="evenodd" clip-rule="evenodd" d="M13.125 8.78513H14.5V9.03613H13.125V8.78513Z" fill="#060101"/>
<path fill-rule="evenodd" clip-rule="evenodd" d="M13.3215 7.98193H13.57V8.23294H13.3215V7.98193Z" fill="#F9E813"/>
<path fill-rule="evenodd" clip-rule="evenodd" d="M14.1072 7.98193H14.3557V8.23294H14.1072V7.98193Z" fill="#F9E813"/>
<path fill-rule="evenodd" clip-rule="evenodd" d="M13.7143 7.78113H13.9628V8.28314H13.7143V7.78113Z" fill="#F9E813"/>
<path fill-rule="evenodd" clip-rule="evenodd" d="M13.5179 10.994H14.2634V11.496H13.5179V10.994Z" fill="#F9E813"/>
<path fill-rule="evenodd" clip-rule="evenodd" d="M13.125 11.1948H14.5V11.4458H13.125V11.1948Z" fill="#060101"/>
<path fill-rule="evenodd" clip-rule="evenodd" d="M13.125 11.3956H13.8705V11.6466H13.125V11.3956Z" fill="#F9E813"/>
<path fill-rule="evenodd" clip-rule="evenodd" d="M13.9107 11.3956H14.6562V11.6466H13.9107V11.3956Z" fill="#F9E813"/>
<path fill-rule="evenodd" clip-rule="evenodd" d="M13.125 11.998H13.622V12.751H13.125V11.998Z" fill="#F9E813"/>
<path fill-rule="evenodd" clip-rule="evenodd" d="M14.1072 11.998H14.6042V12.751H14.1072V11.998Z" fill="#F9E813"/>
<path fill-rule="evenodd" clip-rule="evenodd" d="M13.7143 11.998H13.9628V12.751H13.7143V11.998Z" fill="#F9E813"/>
<path fill-rule="evenodd" clip-rule="evenodd" d="M13.125 11.7972H14.5V12.0482H13.125V11.7972Z" fill="#060101"/>
<path fill-rule="evenodd" clip-rule="evenodd" d="M13.125 12.3996H14.5V12.6506H13.125V12.3996Z" fill="#060101"/>
<path fill-rule="evenodd" clip-rule="evenodd" d="M13.3215 11.5964H13.57V11.8474H13.3215V11.5964Z" fill="#F9E813"/>
<path fill-rule="evenodd" clip-rule="evenodd" d="M14.1072 11.5964H14.3557V11.8474H14.1072V11.5964Z" fill="#F9E813"/>
<path fill-rule="evenodd" clip-rule="evenodd" d="M13.7143 11.3956H13.9628V11.8976H13.7143V11.3956Z" fill="#F9E813"/>
<path fill-rule="evenodd" clip-rule="evenodd" d="M6.25003 10.994H6.99551V11.496H6.25003V10.994Z" fill="#F9E813"/>
<path fill-rule="evenodd" clip-rule="evenodd" d="M5.85718 11.1948H7.23218V11.4458H5.85718V11.1948Z" fill="#060101"/>
<path fill-rule="evenodd" clip-rule="evenodd" d="M5.85718 11.3956H6.60266V11.6466H5.85718V11.3956Z" fill="#F9E813"/>
<path fill-rule="evenodd" clip-rule="evenodd" d="M6.64288 11.3956H7.38837V11.6466H6.64288V11.3956Z" fill="#F9E813"/>
<path fill-rule="evenodd" clip-rule="evenodd" d="M5.85718 11.998H6.35417V12.751H5.85718V11.998Z" fill="#F9E813"/>
<path fill-rule="evenodd" clip-rule="evenodd" d="M6.83932 11.998H7.33631V12.751H6.83932V11.998Z" fill="#F9E813"/>
<path fill-rule="evenodd" clip-rule="evenodd" d="M6.44647 11.998H6.69497V12.751H6.44647V11.998Z" fill="#F9E813"/>
<path fill-rule="evenodd" clip-rule="evenodd" d="M5.85718 11.7972H7.23218V12.0482H5.85718V11.7972Z" fill="#060101"/>
<path fill-rule="evenodd" clip-rule="evenodd" d="M5.85718 12.3996H7.23218V12.6506H5.85718V12.3996Z" fill="#060101"/>
<path fill-rule="evenodd" clip-rule="evenodd" d="M6.05362 11.5964H6.30211V11.8474H6.05362V11.5964Z" fill="#F9E813"/>
<path fill-rule="evenodd" clip-rule="evenodd" d="M6.83932 11.5964H7.08782V11.8474H6.83932V11.5964Z" fill="#F9E813"/>
<path fill-rule="evenodd" clip-rule="evenodd" d="M6.44647 11.3956H6.69497V11.8976H6.44647V11.3956Z" fill="#F9E813"/>
<path fill-rule="evenodd" clip-rule="evenodd" d="M6.7283 15.5249L7.20749 14.9481L7.5882 15.2708L7.10902 15.8476L6.7283 15.5249Z" fill="#F9E813"/>
<path fill-rule="evenodd" clip-rule="evenodd" d="M6.62805 15.958L7.51188 14.8941L7.70224 15.0554L6.81841 16.1194L6.62805 15.958Z" fill="#060101"/>
<path fill-rule="evenodd" clip-rule="evenodd" d="M6.78033 16.0871L7.25952 15.5102L7.44988 15.6716L6.97069 16.2484L6.78033 16.0871Z" fill="#F9E813"/>
<path fill-rule="evenodd" clip-rule="evenodd" d="M7.2854 15.4791L7.76459 14.9023L7.95494 15.0636L7.47576 15.6404L7.2854 15.4791Z" fill="#F9E813"/>
<path fill-rule="evenodd" clip-rule="evenodd" d="M7.23721 16.4743L7.55667 16.0897L8.12774 16.5738L7.80829 16.9583L7.23721 16.4743Z" fill="#F9E813"/>
<path fill-rule="evenodd" clip-rule="evenodd" d="M7.8685 15.7143L8.18796 15.3298L8.75903 15.8138L8.43957 16.1984L7.8685 15.7143Z" fill="#F9E813"/>
<path fill-rule="evenodd" clip-rule="evenodd" d="M7.616 16.0183L7.77573 15.826L8.3468 16.3101L8.18707 16.5023L7.616 16.0183Z" fill="#F9E813"/>
<path fill-rule="evenodd" clip-rule="evenodd" d="M7.0849 16.3452L7.96873 15.2813L8.15909 15.4426L7.27526 16.5066L7.0849 16.3452Z" fill="#060101"/>
<path fill-rule="evenodd" clip-rule="evenodd" d="M7.54178 16.7325L8.42561 15.6685L8.61597 15.8298L7.73214 16.8938L7.54178 16.7325Z" fill="#060101"/>
<path fill-rule="evenodd" clip-rule="evenodd" d="M7.0589 16.0641L7.21863 15.8719L7.40899 16.0332L7.24926 16.2255L7.0589 16.0641Z" fill="#F9E813"/>
<path fill-rule="evenodd" clip-rule="evenodd" d="M7.56393 15.4562L7.72366 15.2639L7.91402 15.4252L7.75429 15.6175L7.56393 15.4562Z" fill="#F9E813"/>
<path fill-rule="evenodd" clip-rule="evenodd" d="M7.15912 15.6311L7.31885 15.4388L7.69956 15.7615L7.53983 15.9538L7.15912 15.6311Z" fill="#F9E813"/>
<path fill-rule="evenodd" clip-rule="evenodd" d="M13.4466 15.069L13.9258 15.6458L13.545 15.9685L13.0658 15.3917L13.4466 15.069Z" fill="#F9E813"/>
<path fill-rule="evenodd" clip-rule="evenodd" d="M13.0417 14.8941L13.9256 15.958L13.7352 16.1194L12.8514 15.0554L13.0417 14.8941Z" fill="#060101"/>
<path fill-rule="evenodd" clip-rule="evenodd" d="M12.8895 15.0231L13.3687 15.6L13.1783 15.7613L12.6991 15.1845L12.8895 15.0231Z" fill="#F9E813"/>
<path fill-rule="evenodd" clip-rule="evenodd" d="M13.3945 15.6311L13.8737 16.2079L13.6833 16.3693L13.2041 15.7924L13.3945 15.6311Z" fill="#F9E813"/>
<path fill-rule="evenodd" clip-rule="evenodd" d="M12.4326 15.4103L12.7521 15.7949L12.181 16.2789L11.8615 15.8944L12.4326 15.4103Z" fill="#F9E813"/>
<path fill-rule="evenodd" clip-rule="evenodd" d="M13.0639 16.1703L13.3834 16.5549L12.8123 17.0389L12.4928 16.6543L13.0639 16.1703Z" fill="#F9E813"/>
<path fill-rule="evenodd" clip-rule="evenodd" d="M12.8114 15.8663L12.9711 16.0586L12.4001 16.5426L12.2403 16.3504L12.8114 15.8663Z" fill="#F9E813"/>
<path fill-rule="evenodd" clip-rule="evenodd" d="M12.5849 15.2813L13.4687 16.3452L13.2784 16.5066L12.3945 15.4426L12.5849 15.2813Z" fill="#060101"/>
<path fill-rule="evenodd" clip-rule="evenodd" d="M12.128 15.6685L13.0119 16.7324L12.8215 16.8938L11.9377 15.8298L12.128 15.6685Z" fill="#060101"/>
<path fill-rule="evenodd" clip-rule="evenodd" d="M12.8634 15.3042L13.0232 15.4965L12.8328 15.6578L12.6731 15.4655L12.8634 15.3042Z" fill="#F9E813"/>
<path fill-rule="evenodd" clip-rule="evenodd" d="M13.3685 15.9122L13.5282 16.1045L13.3379 16.2658L13.1781 16.0735L13.3685 15.9122Z" fill="#F9E813"/>
<path fill-rule="evenodd" clip-rule="evenodd" d="M13.2682 15.4791L13.428 15.6714L13.0473 15.9941L12.8875 15.8018L13.2682 15.4791Z" fill="#F9E813"/>
<path fill-rule="evenodd" clip-rule="evenodd" d="M10.9509 9.58835H9.58929V10.5899C9.58929 10.5899 9.69033 11.1071 10.2701 11.1071C10.8498 11.1071 10.9509 10.5899 10.9509 10.5899V9.58835ZM10.1786 9.98995C10.1786 10.1009 10.0906 10.1908 9.98215 10.1908C9.87367 10.1908 9.78572 10.1009 9.78572 9.98995C9.78572 9.87905 9.87367 9.78915 9.98215 9.78915C10.0906 9.78915 10.1786 9.87905 10.1786 9.98995ZM9.98215 10.994C10.0906 10.994 10.1786 10.9041 10.1786 10.7932C10.1786 10.6823 10.0906 10.5924 9.98215 10.5924C9.87367 10.5924 9.78572 10.6823 9.78572 10.7932C9.78572 10.9041 9.87367 10.994 9.98215 10.994ZM10.7679 10.7932C10.7679 10.9041 10.6799 10.994 10.5714 10.994C10.463 10.994 10.375 10.9041 10.375 10.7932C10.375 10.6823 10.463 10.5924 10.5714 10.5924C10.6799 10.5924 10.7679 10.6823 10.7679 10.7932ZM10.2768 10.5924C10.3853 10.5924 10.4732 10.5025 10.4732 10.3916C10.4732 10.2807 10.3853 10.1908 10.2768 10.1908C10.1683 10.1908 10.0804 10.2807 10.0804 10.3916C10.0804 10.5025 10.1683 10.5924 10.2768 10.5924ZM10.7679 9.98995C10.7679 10.1009 10.6799 10.1908 10.5714 10.1908C10.463 10.1908 10.375 10.1009 10.375 9.98995C10.375 9.87905 10.463 9.78915 10.5714 9.78915C10.6799 9.78915 10.7679 9.87905 10.7679 9.98995Z" fill="#013399"/>
<path fill-rule="evenodd" clip-rule="evenodd" d="M10.9509 11.7972H9.58929V12.7987C9.58929 12.7987 9.69033 13.3159 10.2701 13.3159C10.8498 13.3159 10.9509 12.7987 10.9509 12.7987V11.7972ZM10.1786 12.1988C10.1786 12.3097 10.0906 12.3996 9.98215 12.3996C9.87367 12.3996 9.78572 12.3097 9.78572 12.1988C9.78572 12.0879 9.87367 11.998 9.98215 11.998C10.0906 11.998 10.1786 12.0879 10.1786 12.1988ZM9.98215 13.2028C10.0906 13.2028 10.1786 13.1129 10.1786 13.002C10.1786 12.8911 10.0906 12.8012 9.98215 12.8012C9.87367 12.8012 9.78572 12.8911 9.78572 13.002C9.78572 13.1129 9.87367 13.2028 9.98215 13.2028ZM10.7679 13.002C10.7679 13.1129 10.6799 13.2028 10.5714 13.2028C10.463 13.2028 10.375 13.1129 10.375 13.002C10.375 12.8911 10.463 12.8012 10.5714 12.8012C10.6799 12.8012 10.7679 12.8911 10.7679 13.002ZM10.2768 12.8012C10.3853 12.8012 10.4732 12.7113 10.4732 12.6004C10.4732 12.4895 10.3853 12.3996 10.2768 12.3996C10.1683 12.3996 10.0804 12.4895 10.0804 12.6004C10.0804 12.7113 10.1683 12.8012 10.2768 12.8012ZM10.7679 12.1988C10.7679 12.3097 10.6799 12.3996 10.5714 12.3996C10.463 12.3996 10.375 12.3097 10.375 12.1988C10.375 12.0879 10.463 11.998 10.5714 11.998C10.6799 11.998 10.7679 12.0879 10.7679 12.1988Z" fill="#013399"/>
<path fill-rule="evenodd" clip-rule="evenodd" d="M12.7188 11.7972H11.3572V12.7987C11.3572 12.7987 11.4582 13.3159 12.038 13.3159C12.6177 13.3159 12.7188 12.7987 12.7188 12.7987V11.7972ZM11.9465 12.1988C11.9465 12.3097 11.8585 12.3996 11.75 12.3996C11.6416 12.3996 11.5536 12.3097 11.5536 12.1988C11.5536 12.0879 11.6416 11.998 11.75 11.998C11.8585 11.998 11.9465 12.0879 11.9465 12.1988ZM11.75 13.2028C11.8585 13.2028 11.9465 13.1129 11.9465 13.002C11.9465 12.8911 11.8585 12.8012 11.75 12.8012C11.6416 12.8012 11.5536 12.8911 11.5536 13.002C11.5536 13.1129 11.6416 13.2028 11.75 13.2028ZM12.5357 13.002C12.5357 13.1129 12.4478 13.2028 12.3393 13.2028C12.2308 13.2028 12.1429 13.1129 12.1429 13.002C12.1429 12.8911 12.2308 12.8012 12.3393 12.8012C12.4478 12.8012 12.5357 12.8911 12.5357 13.002ZM12.0447 12.8012C12.1532 12.8012 12.2411 12.7113 12.2411 12.6004C12.2411 12.4895 12.1532 12.3996 12.0447 12.3996C11.9362 12.3996 11.8482 12.4895 11.8482 12.6004C11.8482 12.7113 11.9362 12.8012 12.0447 12.8012ZM12.5357 12.1988C12.5357 12.3097 12.4478 12.3996 12.3393 12.3996C12.2308 12.3996 12.1429 12.3097 12.1429 12.1988C12.1429 12.0879 12.2308 11.998 12.3393 11.998C12.4478 11.998 12.5357 12.0879 12.5357 12.1988Z" fill="#013399"/>
<path fill-rule="evenodd" clip-rule="evenodd" d="M9.18303 11.7972H7.82144V12.7987C7.82144 12.7987 7.92248 13.3159 8.50224 13.3159C9.08199 13.3159 9.18303 12.7987 9.18303 12.7987V11.7972ZM8.41073 12.1988C8.41073 12.3097 8.32278 12.3996 8.2143 12.3996C8.10581 12.3996 8.01787 12.3097 8.01787 12.1988C8.01787 12.0879 8.10581 11.998 8.2143 11.998C8.32278 11.998 8.41073 12.0879 8.41073 12.1988ZM8.2143 13.2028C8.32278 13.2028 8.41073 13.1129 8.41073 13.002C8.41073 12.8911 8.32278 12.8012 8.2143 12.8012C8.10581 12.8012 8.01787 12.8911 8.01787 13.002C8.01787 13.1129 8.10581 13.2028 8.2143 13.2028ZM9.00001 13.002C9.00001 13.1129 8.91207 13.2028 8.80358 13.2028C8.6951 13.2028 8.60716 13.1129 8.60716 13.002C8.60716 12.8911 8.6951 12.8012 8.80358 12.8012C8.91207 12.8012 9.00001 12.8911 9.00001 13.002ZM8.50894 12.8012C8.61743 12.8012 8.70537 12.7113 8.70537 12.6004C8.70537 12.4895 8.61743 12.3996 8.50894 12.3996C8.40046 12.3996 8.31251 12.4895 8.31251 12.6004C8.31251 12.7113 8.40046 12.8012 8.50894 12.8012ZM9.00001 12.1988C9.00001 12.3097 8.91207 12.3996 8.80358 12.3996C8.6951 12.3996 8.60716 12.3097 8.60716 12.1988C8.60716 12.0879 8.6951 11.998 8.80358 11.998C8.91207 11.998 9.00001 12.0879 9.00001 12.1988Z" fill="#013399"/>
<path fill-rule="evenodd" clip-rule="evenodd" d="M10.9509 14.006H9.58929V15.0075C9.58929 15.0075 9.69033 15.5247 10.2701 15.5247C10.8498 15.5247 10.9509 15.0075 10.9509 15.0075V14.006ZM10.1786 14.4076C10.1786 14.5185 10.0906 14.6084 9.98215 14.6084C9.87367 14.6084 9.78572 14.5185 9.78572 14.4076C9.78572 14.2967 9.87367 14.2068 9.98215 14.2068C10.0906 14.2068 10.1786 14.2967 10.1786 14.4076ZM9.98215 15.4116C10.0906 15.4116 10.1786 15.3217 10.1786 15.2108C10.1786 15.0999 10.0906 15.01 9.98215 15.01C9.87367 15.01 9.78572 15.0999 9.78572 15.2108C9.78572 15.3217 9.87367 15.4116 9.98215 15.4116ZM10.7679 15.2108C10.7679 15.3217 10.6799 15.4116 10.5714 15.4116C10.463 15.4116 10.375 15.3217 10.375 15.2108C10.375 15.0999 10.463 15.01 10.5714 15.01C10.6799 15.01 10.7679 15.0999 10.7679 15.2108ZM10.2768 15.01C10.3853 15.01 10.4732 14.9201 10.4732 14.8092C10.4732 14.6983 10.3853 14.6084 10.2768 14.6084C10.1683 14.6084 10.0804 14.6983 10.0804 14.8092C10.0804 14.9201 10.1683 15.01 10.2768 15.01ZM10.7679 14.4076C10.7679 14.5185 10.6799 14.6084 10.5714 14.6084C10.463 14.6084 10.375 14.5185 10.375 14.4076C10.375 14.2967 10.463 14.2068 10.5714 14.2068C10.6799 14.2068 10.7679 14.2967 10.7679 14.4076Z" fill="#013399"/>
</g>
</g>
<defs>
<clipPath id="clip0_270_67499">
<rect width="25" height="25" rx="8.2" fill="white"/>
</clipPath>
</defs>
</svg>
