<svg width="25" height="25" viewBox="0 0 25 25" fill="none" xmlns="http://www.w3.org/2000/svg">
<g clip-path="url(#clip0_270_67381)">
<mask id="mask0_270_67381" style="mask-type:luminance" maskUnits="userSpaceOnUse" x="0" y="0" width="34" height="25">
<rect width="33.28" height="25" fill="white"/>
</mask>
<g mask="url(#mask0_270_67381)">
<path fill-rule="evenodd" clip-rule="evenodd" d="M0 0V25H33.28V0H0Z" fill="#3D58DB"/>
<mask id="mask1_270_67381" style="mask-type:luminance" maskUnits="userSpaceOnUse" x="0" y="0" width="34" height="25">
<path fill-rule="evenodd" clip-rule="evenodd" d="M0 0V25H33.28V0H0Z" fill="white"/>
</mask>
<g mask="url(#mask1_270_67381)">
<path fill-rule="evenodd" clip-rule="evenodd" d="M0 0V8.33333H33.28V0H0Z" fill="#F7FCFF"/>
<path fill-rule="evenodd" clip-rule="evenodd" d="M0 16.6667V25H33.28V16.6667H0Z" fill="#E31D1C"/>
<path d="M16.2281 6.28162L16.7253 6.2288L16.6778 5.78162H16.2281H6.59865H6.13118L6.09978 6.24803L6.59865 6.28162L6.09977 6.24812L6.09976 6.24835L6.0997 6.24918L6.09949 6.25237L6.09866 6.26478L6.09549 6.31294L6.0837 6.49643C6.07366 6.65513 6.05958 6.88347 6.04337 7.16255C6.01096 7.72054 5.97001 8.48211 5.93588 9.29567C5.86858 10.9001 5.82415 12.7754 5.94034 13.6499C6.16725 15.3578 7.20529 19.1894 11.2187 20.9258L11.4207 21.0132L11.6216 20.9232C15.4343 19.2157 16.7095 15.7771 17.0037 13.6527C17.1521 12.5808 17.0767 10.7031 16.9723 9.14034C16.9194 8.34888 16.8577 7.62161 16.8092 7.09237C16.785 6.82764 16.7641 6.61221 16.7492 6.46276C16.7417 6.38802 16.7358 6.32977 16.7317 6.29009L16.727 6.24474L16.7257 6.233L16.7254 6.22994L16.7253 6.22913L16.7253 6.22891C16.7253 6.22884 16.7253 6.2288 16.2281 6.28162Z" fill="#E31D1C" stroke="white"/>
<mask id="mask2_270_67381" style="mask-type:luminance" maskUnits="userSpaceOnUse" x="5" y="5" width="13" height="17">
<path d="M16.2281 6.28162L16.7253 6.2288L16.6778 5.78162H16.2281H6.59865H6.13118L6.09978 6.24803L6.59865 6.28162L6.09977 6.24812L6.09976 6.24835L6.0997 6.24918L6.09949 6.25237L6.09866 6.26478L6.09549 6.31294L6.0837 6.49643C6.07366 6.65513 6.05958 6.88347 6.04337 7.16255C6.01096 7.72054 5.97001 8.48211 5.93588 9.29567C5.86858 10.9001 5.82415 12.7754 5.94034 13.6499C6.16725 15.3578 7.20529 19.1894 11.2187 20.9258L11.4207 21.0132L11.6216 20.9232C15.4343 19.2157 16.7095 15.7771 17.0037 13.6527C17.1521 12.5808 17.0767 10.7031 16.9723 9.14034C16.9194 8.34888 16.8577 7.62161 16.8092 7.09237C16.785 6.82764 16.7641 6.61221 16.7492 6.46276C16.7417 6.38802 16.7358 6.32977 16.7317 6.29009L16.727 6.24474L16.7257 6.233L16.7254 6.22994L16.7253 6.22913L16.7253 6.22891C16.7253 6.22884 16.7253 6.2288 16.2281 6.28162Z" fill="white" stroke="white"/>
</mask>
<g mask="url(#mask2_270_67381)">
<path fill-rule="evenodd" clip-rule="evenodd" d="M10.6674 6.86435C10.6674 6.86435 10.8821 7.19208 10.9783 7.69321C11.0744 8.19434 11.091 9.07237 11.091 9.07237L9.05375 8.82114V10.3683L11.1365 10.1026L11.1027 11.5711C11.1027 11.5711 10.4796 11.6358 9.96853 11.5711C9.45749 11.5064 8.45074 11.2354 8.45074 11.2354V13.0066C8.45074 13.0066 9.47358 12.6789 9.96853 12.6037C10.4635 12.5285 11.1027 12.6037 11.1027 12.6037V14.779H11.9482V12.6037C11.9482 12.6037 12.8725 12.5232 13.4239 12.6103C13.9753 12.6974 14.4983 13.0066 14.4983 13.0066V11.2354C14.4983 11.2354 13.9684 11.4998 13.4686 11.5656C12.9689 11.6314 11.9482 11.5711 11.9482 11.5711L11.9821 10.1026C11.9821 10.1026 12.6739 10.0309 13.062 10.0837C13.4502 10.1365 13.936 10.3683 13.936 10.3683V8.82114C13.936 8.82114 13.4625 9.07921 13.0899 9.12602C12.7174 9.17283 11.9365 9.07237 11.9365 9.07237C11.9365 9.07237 11.9504 8.16626 12.0305 7.72505C12.1106 7.28385 12.3374 6.86435 12.3374 6.86435H10.6674Z" fill="#F7FCFF"/>
<path fill-rule="evenodd" clip-rule="evenodd" d="M7.17328 16.9222C7.17328 16.9222 7.63035 15.9396 8.37409 15.7528C9.11783 15.5659 9.89771 16.3375 9.89771 16.3375C9.89771 16.3375 10.3739 14.7787 11.5347 14.7787C12.6954 14.7787 13.1028 16.3375 13.1028 16.3375C13.1028 16.3375 13.598 15.7528 14.3102 15.7528C15.0224 15.7528 15.6822 16.9222 15.6822 16.9222C15.6822 16.9222 13.5549 20.7903 11.4277 20.7903C9.3005 20.7903 7.17328 16.9222 7.17328 16.9222Z" fill="#2E42A5"/>
</g>
</g>
</g>
</g>
<defs>
<clipPath id="clip0_270_67381">
<rect width="25" height="25" rx="8.2" fill="white"/>
</clipPath>
</defs>
</svg>
