<svg width="512" height="512" viewBox="0 0 512 512" fill="none" xmlns="http://www.w3.org/2000/svg">
<g clip-path="url(#clip0_329_328)" filter="url(#filter0_i_329_328)">
<path d="M185.618 13.8389C186.547 13.834 187.475 13.829 188.431 13.8239C191.483 13.8093 194.534 13.8025 197.586 13.7969C198.637 13.7941 199.689 13.7913 200.772 13.7884C206.343 13.7734 211.914 13.7642 217.485 13.7598C223.191 13.7544 228.897 13.7304 234.603 13.7018C239.032 13.6831 243.461 13.678 247.89 13.6765C249.991 13.6735 252.091 13.6656 254.192 13.6523C290.938 13.4368 319.052 24.3574 346.703 48.1993C351.721 52.5035 356.939 56.5732 362.198 60.5787C363.506 61.6106 364.778 62.6886 366.026 63.7925C371.876 68.7948 376.805 70.3663 384.312 71.6251C386.792 72.1029 389.27 72.5908 391.746 73.086C392.438 73.2234 393.129 73.3609 393.842 73.5025C419.669 78.7254 445.69 85.1319 470.687 93.5001C471.842 93.8845 472.996 94.269 474.185 94.6651C489.058 99.8503 500.824 107.573 508 122C512.153 130.794 512.593 139.117 512.531 148.668C512.534 150.158 512.538 151.647 512.543 153.137C512.549 156.239 512.54 159.341 512.521 162.443C512.498 166.401 512.512 170.357 512.536 174.315C512.55 177.383 512.545 180.452 512.535 183.521C512.532 184.98 512.536 186.438 512.545 187.897C512.59 196.807 512.527 204.165 506.105 211.023C505.472 211.469 504.839 211.916 504.187 212.375C503.25 213.067 503.25 213.067 502.293 213.773C496.523 216.86 490.915 217.274 484.545 217.16C483.73 217.154 482.914 217.148 482.074 217.142C480.313 217.129 478.553 217.112 476.793 217.091C473.04 217.052 469.287 217.05 465.534 217.046C458.559 217.039 451.585 217.017 444.61 216.928C439.745 216.868 434.882 216.857 430.017 216.877C428.171 216.876 426.325 216.857 424.479 216.819C414.176 216.334 414.176 216.334 405 220.179C402.614 222.762 402.614 222.762 400.818 225.51C396.591 231.3 389.376 233.938 382.562 235.438C370.959 237.041 360.348 234.986 350.75 228.188C348.018 226.079 346.363 224.065 344.5 221.188C342.168 218.196 340.927 217.988 337.07 217.336C333.044 217.02 329.037 216.966 325 217C325.035 218.085 325.069 219.171 325.105 220.289C325.133 221.734 325.161 223.18 325.187 224.625C325.225 225.694 325.225 225.694 325.264 226.785C325.33 231.602 324.707 234.851 322 239C319.712 241.168 318.473 241.952 315.305 242.274C314.291 242.236 313.276 242.199 312.23 242.16C298.987 241.97 289.222 241.887 278.82 250.652C276.21 252.825 274.2 253.967 271 255C271 255.66 271 256.32 271 257C272.006 257.324 272.006 257.324 273.032 257.654C275.569 258.804 277.288 259.885 279.465 261.556C290.969 270.24 299.963 271.561 314.112 271.293C316.174 271.295 318.235 271.302 320.297 271.313C325.843 271.33 331.386 271.28 336.931 271.219C342.752 271.166 348.574 271.179 354.395 271.186C365.402 271.189 376.408 271.14 387.415 271.068C407.153 270.942 426.891 270.916 446.63 270.896C453.552 270.887 460.474 270.858 467.396 270.811C471.693 270.784 475.99 270.768 480.288 270.756C482.28 270.747 484.272 270.733 486.265 270.713C488.983 270.687 491.701 270.679 494.42 270.675C495.208 270.663 495.996 270.651 496.808 270.638C502.486 270.659 506.537 271.863 510.846 275.602C512.682 279.417 512.468 283.186 512.469 287.367C512.476 288.28 512.484 289.192 512.492 290.132C512.502 292.06 512.505 293.988 512.501 295.917C512.5 298.858 512.541 301.797 512.586 304.738C512.591 306.615 512.594 308.491 512.594 310.367C512.61 311.242 512.626 312.118 512.643 313.019C512.597 317.142 512.369 320.122 509.838 323.477C504.127 328.554 498.211 328.251 490.969 328.097C488.904 328.071 486.839 328.045 484.774 328.02C483.683 328.003 482.592 327.986 481.468 327.969C475.634 327.888 469.799 327.873 463.965 327.848C456.565 327.812 449.167 327.758 441.769 327.627C405.038 325.836 405.038 325.836 373.072 341.316C370.09 343.739 366.865 345.486 363.469 347.254C362.454 347.818 361.44 348.382 360.394 348.963C359.439 349.491 358.484 350.019 357.5 350.563C350.889 354.22 344.366 357.93 338 362C338.934 363.273 339.873 364.543 340.812 365.813C341.334 366.52 341.856 367.228 342.394 367.957C343.831 369.785 345.318 371.399 347 373C351.756 370.962 355.229 367.404 359.051 363.996C362.501 361.661 364.867 361.197 369 361C378.521 363.72 383.879 371.916 389.848 379.344C391.685 381.611 393.568 383.813 395.5 386C398.787 389.944 399.388 392.845 399.258 397.961C398.261 405.847 389.754 410.536 384 415C388.302 421.145 393.182 426.552 398.329 431.987C398.872 432.562 399.416 433.138 399.976 433.731C400.504 434.288 401.032 434.845 401.575 435.419C403 437 403 437 404.961 439.676C407.551 442.628 410.56 444.23 414 446C418.602 448.368 422.094 450.583 425 455C425 455.66 425 456.32 425 457C426.157 456.954 427.315 456.907 428.508 456.859C430.047 456.822 431.586 456.786 433.125 456.75C433.885 456.717 434.646 456.683 435.43 456.648C440.8 456.556 443.726 457.461 448 461C452.422 465.901 453.127 469.173 453.062 475.688C453.053 476.867 453.044 478.047 453.035 479.262C453.018 480.617 453.018 480.617 453 482C453.952 481.965 454.905 481.93 455.887 481.895C457.141 481.868 458.395 481.84 459.687 481.813C460.929 481.778 462.17 481.743 463.449 481.707C467.217 482.018 469.028 482.723 472 485C473.444 487.889 473.377 489.797 473 493C470.378 496.374 468.883 497.836 464.634 498.626C463.335 498.626 462.037 498.626 460.699 498.626C459.97 498.633 459.242 498.64 458.491 498.648C456.042 498.665 453.595 498.646 451.146 498.628C449.375 498.633 447.605 498.641 445.835 498.65C440.964 498.669 436.094 498.656 431.224 498.639C425.974 498.626 420.723 498.641 415.473 498.653C405.186 498.671 394.898 498.663 384.611 498.645C376.252 498.631 367.893 498.627 359.534 498.63C358.346 498.631 357.157 498.631 355.933 498.632C353.518 498.633 351.104 498.634 348.69 498.635C327.329 498.643 305.969 498.627 284.609 498.597C263.869 498.568 243.13 498.561 222.391 498.576C199.821 498.593 177.252 498.597 154.682 498.58C152.277 498.578 149.871 498.576 147.466 498.574C146.282 498.573 145.098 498.572 143.879 498.572C135.527 498.566 127.176 498.569 118.825 498.576C108.651 498.584 98.4769 498.577 88.3029 498.552C83.1094 498.539 77.9161 498.533 72.7226 498.544C67.9718 498.554 63.2213 498.546 58.4705 498.523C56.7485 498.517 55.0265 498.519 53.3045 498.528C50.9695 498.539 48.6359 498.526 46.301 498.506C45.0024 498.505 43.7038 498.504 42.3658 498.503C38.4386 497.916 36.7718 496.792 33.9998 494C33.1407 491.055 33.6013 489.139 33.9998 486C35.8115 483.326 36.8775 483.041 39.9998 482C41.4811 481.919 42.9657 481.892 44.4491 481.902C45.2966 481.906 46.1442 481.909 47.0174 481.912C47.8985 481.921 48.7796 481.929 49.6873 481.938C51.0264 481.944 51.0264 481.944 52.3924 481.951C54.595 481.963 56.7974 481.979 58.9998 482C58.965 481.131 58.9302 480.262 58.8944 479.367C58.6159 467.512 58.6159 467.512 61.9998 463C67.4788 457.667 71.1397 456.859 78.6248 456.938C79.8275 456.944 79.8275 456.944 81.0545 456.951C83.0363 456.963 85.0181 456.981 86.9998 457C87.2267 456.258 87.4536 455.515 87.6873 454.75C90.0035 449.897 94.5207 447.559 99.1131 445.039C100.101 444.493 101.089 443.946 102.107 443.383C103.165 442.803 104.222 442.223 105.312 441.625C113.896 436.872 122.42 432.04 130.875 427.063C139.349 422.082 147.894 417.249 156.5 412.5C168.249 406.016 179.853 399.306 191.425 392.511C195.069 390.372 198.717 388.24 202.375 386.125C203.434 385.509 204.494 384.893 205.586 384.258C208 383 208 383 210 383C210 382.34 210 381.68 210 381C209.233 380.799 208.466 380.598 207.676 380.391C202.488 378.428 197.938 375.592 193.187 372.75C184.683 367.723 176.136 362.797 167.5 358C158.097 352.768 148.771 347.418 139.492 341.969C137.69 340.91 135.88 339.865 134.062 338.834C131 337 131 337 128.232 334.954C117.01 327.253 105.909 327.932 92.6912 328.106C90.3515 328.106 88.0117 328.102 85.6719 328.094C79.5505 328.083 73.4302 328.116 67.309 328.162C57.4895 328.229 47.6698 328.231 37.8501 328.225C34.4315 328.23 31.0136 328.257 27.5952 328.287C25.4977 328.294 23.4003 328.3 21.3028 328.305C20.3588 328.319 19.4148 328.334 18.4422 328.348C11.7308 328.34 6.81552 327.452 1.59555 322.906C-0.6837 318.755 -0.574479 315.166 -0.531408 310.5C-0.535235 309.587 -0.539062 308.673 -0.543005 307.732C-0.545721 305.806 -0.538382 303.88 -0.521642 301.953C-0.500228 299.01 -0.521455 296.069 -0.547033 293.125C-0.54439 291.25 -0.539265 289.375 -0.531408 287.5C-0.539505 286.623 -0.547602 285.746 -0.555944 284.842C-0.494925 280.852 -0.312783 278.539 1.72055 275.031C5.52884 271.637 9.14309 270.753 14.1698 270.71C15.1743 270.697 16.1788 270.684 17.2138 270.671C18.8249 270.668 18.8249 270.668 20.4686 270.664C21.5817 270.657 22.6947 270.651 23.8415 270.644C26.1916 270.634 28.5418 270.629 30.8919 270.629C34.487 270.625 38.0808 270.589 41.6756 270.551C43.9608 270.545 46.2459 270.541 48.5311 270.539C50.1422 270.518 50.1422 270.518 51.7859 270.496C56.3166 270.523 59.1931 270.542 63.1854 272.81C64.9998 275 64.9998 275 65.4998 278.5C64.9882 282.082 64.6229 283.564 61.9998 286C59.1567 286.921 56.5749 287.122 53.5985 287.114C52.3076 287.113 52.3076 287.113 50.9906 287.113C50.0707 287.108 49.1508 287.103 48.203 287.098C46.7798 287.096 46.7798 287.096 45.3279 287.093C42.3019 287.088 39.2759 287.075 36.2498 287.063C34.1965 287.058 32.1431 287.053 30.0897 287.049C25.0597 287.039 20.0298 287.019 14.9998 287C14.9998 295.25 14.9998 303.5 14.9998 312C174.06 312 333.12 312 497 312C497 303.75 497 295.5 497 287C493.87 287.004 493.87 287.004 490.676 287.008C441.164 287.074 391.652 287.123 342.14 287.153C336.049 287.157 329.958 287.161 323.868 287.165C322.655 287.166 321.442 287.166 320.193 287.167C300.545 287.18 280.897 287.204 261.25 287.232C241.097 287.26 220.944 287.276 200.792 287.282C188.351 287.286 175.911 287.299 163.471 287.324C154.946 287.34 146.421 287.344 137.896 287.341C132.974 287.339 128.052 287.342 123.129 287.358C118.625 287.372 114.121 287.373 109.617 287.363C107.985 287.361 106.354 287.365 104.723 287.375C102.508 287.387 100.294 287.38 98.0788 287.369C96.2322 287.371 96.2322 287.371 94.3483 287.373C90.6156 286.957 88.1914 285.951 84.9998 284C83.5555 281.111 83.623 279.204 83.9998 276C85.7588 273.331 85.7588 273.331 88.9998 271C93.0772 270.29 97.1037 270.424 101.231 270.515C102.473 270.522 103.714 270.53 104.993 270.537C107.691 270.555 110.387 270.582 113.084 270.622C117.366 270.685 121.647 270.703 125.928 270.713C138.103 270.748 150.276 270.836 162.45 270.982C169.177 271.063 175.902 271.103 182.629 271.101C186.181 271.102 189.729 271.123 193.28 271.195C209.7 271.522 221.626 271.082 234.476 260.178C236.489 258.622 238.585 257.763 241 257C241 256.34 241 255.68 241 255C240.301 254.774 239.603 254.549 238.883 254.316C236.004 253.002 233.999 251.343 231.597 249.319C222.764 242.234 214.358 241.971 203.281 242.199C201.591 242.228 201.591 242.228 199.867 242.258C198.858 242.301 197.848 242.343 196.808 242.387C193.122 241.879 191.59 240.634 189 238C186.529 233.775 186.764 229.447 186.875 224.688C186.884 223.947 186.893 223.206 186.902 222.443C186.926 220.629 186.961 218.814 187 217C181.306 216.92 175.616 216.9 169.922 216.933C167.988 216.936 166.054 216.923 164.12 216.894C153.097 216.333 153.097 216.333 143.082 219.954C141.133 222.206 139.574 224.478 138 227C135.242 229.121 135.242 229.121 132.875 230.438C131.695 231.116 131.695 231.116 130.492 231.809C120.632 236.522 110.211 237.071 99.7772 234C91.1991 230.911 84.8461 226.035 78.9998 219C78.9998 218.34 78.9998 217.68 78.9998 217C78.204 217.016 77.4082 217.031 76.5882 217.048C72.9338 217.111 69.2796 217.149 65.6248 217.188C64.3732 217.213 63.1215 217.238 61.8319 217.264C44.1118 217.403 34.4948 210.642 22.0819 198.895C19.6581 196.601 17.1748 194.404 14.6248 192.25C7.01091 185.6 0.358835 178.543 -0.385626 168.013C-0.597531 163.042 -0.583772 158.072 -0.566564 153.098C-0.571807 151.251 -0.578086 149.405 -0.585348 147.558C-0.595722 143.699 -0.591233 139.841 -0.576574 135.982C-0.559393 131.058 -0.582888 126.135 -0.618063 121.212C-0.640116 117.402 -0.638579 113.592 -0.6303 109.782C-0.629485 107.967 -0.636262 106.153 -0.651067 104.339C-0.725997 93.4962 -0.772768 84.3459 6.93098 75.8771C12.9494 69.8728 19.8003 67.8184 28.2154 67.7581C30.5748 67.7975 32.9339 67.8488 35.2928 67.9102C37.8885 67.9318 40.4842 67.9506 43.0799 67.9669C47.1313 68.0019 51.1805 68.0573 55.2306 68.1678C73.6688 69.2962 73.6688 69.2962 89.4178 61.2852C90.8725 59.7535 92.2469 58.1887 93.5935 56.5615C96.1063 53.7716 99.1276 51.6155 102.125 49.3751C106.502 46.0014 110.715 42.5178 114.875 38.8751C134.33 22.5583 160.393 13.8717 185.618 13.8389ZM142 40.0001C142 49.2401 142 58.4801 142 68.0001C165.43 68.0001 188.86 68.0001 213 68.0001C213 55.4601 213 42.9201 213 30.0001C206.936 29.9176 200.872 29.8351 194.625 29.7501C191.817 29.6954 191.817 29.6954 188.952 29.6397C171.904 29.4477 157.396 32.7933 142 40.0001ZM229 30.0001C229 42.5401 229 55.0801 229 68.0001C242.361 68.1164 242.361 68.1164 255.723 68.1954C261.174 68.2193 266.625 68.2475 272.077 68.3018C276.473 68.3453 280.868 68.3692 285.265 68.3796C286.94 68.3869 288.615 68.4013 290.291 68.423C292.641 68.4521 294.991 68.456 297.342 68.4542C298.031 68.4685 298.72 68.4829 299.43 68.4977C304.421 68.4554 307.056 66.9278 311 64.0001C313.789 63.5301 313.789 63.5301 316.625 63.5743C317.661 63.5827 318.698 63.591 319.765 63.5997C321.366 63.6432 321.366 63.6432 323 63.6876C324.601 63.7021 324.601 63.7021 326.234 63.7169C331.245 63.7885 336.079 63.9494 341 65.0001C321.394 44.9978 296.613 30.165 268.017 29.6238C262.656 29.5996 257.298 29.6653 251.937 29.7501C249.702 29.7702 247.467 29.7884 245.232 29.8047C239.821 29.8448 234.412 29.9232 229 30.0001ZM118.187 56.6876C117.571 57.218 116.954 57.7485 116.318 58.295C112.714 61.4168 109.388 64.6116 106 68.0001C112.93 68.0001 119.86 68.0001 127 68.0001C127 62.3901 127 56.7801 127 51.0001C123.37 51.0001 120.822 54.3828 118.187 56.6876ZM318 78.0001C318 84.2701 318 90.5401 318 97.0001C326.91 97.0001 335.82 97.0001 345 97.0001C344.158 88.9695 344.158 88.9695 340 83.0001C334.425 78.703 330.67 77.8623 323.75 77.9376C320.904 77.9685 320.904 77.9685 318 78.0001ZM17.9998 87.0001C15.2052 91.3116 14.6369 94.6254 14.7069 99.711C14.7165 100.955 14.7262 102.199 14.7362 103.481C14.7613 104.766 14.7864 106.051 14.8123 107.375C14.8259 108.683 14.8394 109.992 14.8534 111.34C14.8886 114.56 14.9379 117.78 14.9998 121C16.9702 121.056 16.9702 121.056 18.9803 121.113C20.716 121.179 22.4517 121.245 24.1873 121.313C25.4838 121.346 25.4838 121.346 26.8065 121.381C31.6242 121.584 35.1235 121.831 38.9998 125C41.5104 128.766 41.5178 131.645 40.9998 136C40.1507 139.327 38.9874 142.488 37.7498 145.688C37.4495 146.516 37.1491 147.344 36.8397 148.197C34.4192 154.63 31.8571 159.404 25.5623 162.688C24.7812 163.097 24 163.507 23.1952 163.93C20.8372 165.079 18.473 166.122 15.9998 167C16.3668 173.055 20.5151 176.709 24.7537 180.617C26.0449 181.744 27.345 182.861 28.6522 183.969C30.4723 185.544 32.2443 187.141 34.0037 188.781C34.5295 189.271 35.0553 189.76 35.597 190.265C36.6342 191.233 37.6686 192.205 38.6996 193.181C43.6481 198.071 43.6481 198.071 49.9998 200C50.0144 199.27 50.029 198.54 50.044 197.788C50.1194 194.421 50.2157 191.054 50.3123 187.688C50.3349 186.54 50.3575 185.392 50.3807 184.209C50.9142 167.089 56.5269 152.954 68.9998 141C81.5837 129.515 95.1093 126.641 111.687 126.625C112.973 126.601 114.259 126.576 115.584 126.551C131.422 126.503 146.142 131.579 157.801 142.547C170.225 156.406 173.87 171.672 174.562 189.938C174.779 195.413 174.779 195.413 175 201C187.54 201 200.08 201 213 201C213.014 196.715 213.014 196.715 213.028 192.343C213.062 182.911 213.117 173.48 213.184 164.048C213.223 158.329 213.255 152.61 213.271 146.89C213.286 141.372 213.32 135.855 213.368 130.337C213.383 128.23 213.391 126.123 213.392 124.017C213.394 121.069 213.421 118.122 213.454 115.175C213.446 113.864 213.446 113.864 213.439 112.527C213.541 106.636 213.541 106.636 215.843 103.45C218.743 101.501 220.573 101.563 224 102C227 104 227 104 228 107C228.121 109.997 228.185 112.972 228.205 115.97C228.215 116.887 228.225 117.804 228.235 118.749C228.267 121.785 228.292 124.82 228.316 127.856C228.337 129.959 228.358 132.062 228.379 134.165C228.434 139.704 228.484 145.242 228.532 150.781C228.591 157.425 228.657 164.069 228.722 170.712C228.82 180.808 228.909 190.904 229 201C256.39 201 283.78 201 312 201C312.33 192.75 312.66 184.5 313 176C317.405 158.378 323.741 144.813 339.242 134.535C349.851 128.63 359.409 126.776 371.35 126.705C373.334 126.688 375.317 126.644 377.301 126.6C394.591 126.487 408.123 131.739 420.68 143.527C430.519 154.013 435.802 167.791 436.316 182.055C436.358 183.163 436.4 184.272 436.443 185.414C436.483 186.556 436.522 187.698 436.562 188.875C436.606 190.04 436.649 191.206 436.693 192.406C436.799 195.271 436.901 198.135 437 201C444.902 201.127 452.803 201.214 460.706 201.275C463.395 201.297 466.084 201.332 468.772 201.377C472.635 201.438 476.496 201.466 480.359 201.488C481.564 201.514 482.768 201.54 484.009 201.567C490.339 201.707 490.339 201.707 495.765 198.897C497.244 195.426 497.457 192.94 497.39 189.168C497.378 187.876 497.365 186.583 497.351 185.252C497.318 183.897 497.284 182.542 497.25 181.188C497.23 179.813 497.212 178.439 497.195 177.064C497.148 173.709 497.082 170.355 497 167C496.259 166.985 495.519 166.971 494.756 166.956C491.358 166.881 487.96 166.784 484.562 166.688C483.398 166.665 482.233 166.642 481.033 166.619C467.144 166.189 458.968 162.084 449 152.563C445.621 149.357 442.265 146.176 438.652 143.234C435.767 140.804 434.767 139.665 434 136C433.85 131.397 434.423 128.733 437.312 125.063C440.975 122.252 443.869 121.888 448.401 121.795C449.692 121.765 449.692 121.765 451.009 121.734C451.929 121.718 452.849 121.701 453.797 121.684C454.745 121.663 455.694 121.642 456.672 121.621C459.698 121.555 462.724 121.496 465.75 121.438C467.803 121.394 469.857 121.351 471.91 121.307C476.94 121.2 481.97 121.098 487 121C487 120.34 487 119.68 487 119C463.04 97.7334 412.849 93.858 382.656 86.9336C381.867 86.7518 381.078 86.57 380.265 86.3827C374.558 85.0837 369.01 83.8484 363.125 83.9376C362.344 83.9466 361.563 83.9556 360.758 83.9649C359.888 83.9823 359.888 83.9823 359 84.0001C359.021 84.61 359.042 85.22 359.063 85.8484C359.147 88.628 359.199 91.4072 359.25 94.1876C359.283 95.1473 359.317 96.107 359.351 97.0958C359.411 101.389 359.419 104.22 357.359 108.051C352.489 112.074 347.102 112.309 341.004 112.301C340.252 112.305 339.5 112.309 338.726 112.314C337.143 112.32 335.561 112.32 333.978 112.316C331.573 112.313 329.169 112.336 326.764 112.361C325.219 112.364 323.674 112.364 322.129 112.363C321.418 112.373 320.707 112.382 319.975 112.391C314.865 112.344 311.467 111.296 307 109C303.547 105.433 302.939 101.714 302.683 96.8907C302.642 96.1366 302.6 95.3825 302.556 94.6055C302.517 93.8282 302.478 93.0509 302.437 92.2501C302.394 91.4573 302.351 90.6645 302.306 89.8477C302.201 87.8987 302.1 85.9494 302 84.0001C266.542 83.9314 231.084 83.8785 195.626 83.8469C191.442 83.8431 187.257 83.8392 183.073 83.8353C181.823 83.8341 181.823 83.8341 180.548 83.8329C167.053 83.8198 153.557 83.7962 140.062 83.7686C126.218 83.7406 112.374 83.7239 98.5305 83.7178C89.9855 83.7137 81.4407 83.7007 72.8958 83.6763C67.0392 83.6605 61.1826 83.6556 55.326 83.6595C51.9451 83.6615 48.5645 83.6569 45.1836 83.6424C41.5199 83.6276 37.8567 83.6311 34.193 83.6393C33.122 83.6306 32.051 83.6218 30.9475 83.6128C23.9523 83.5873 23.9523 83.5873 17.9998 87.0001ZM14.9998 137C14.9998 141.62 14.9998 146.24 14.9998 151C19.9176 148.245 19.9176 148.245 22.3123 144C22.6385 143.319 22.9646 142.639 23.3006 141.938C24.1696 139.873 24.1696 139.873 23.9998 137C21.0298 137 18.0598 137 14.9998 137ZM455 137C458.191 140.191 461.327 143.261 464.687 146.25C465.838 147.279 465.838 147.279 467.012 148.328C470.404 151.181 472.509 151.119 476.883 151.098C478.633 151.093 478.633 151.093 480.418 151.088C482.253 151.075 482.253 151.075 484.125 151.063C485.971 151.056 485.971 151.056 487.855 151.049C490.904 151.037 493.952 151.021 497 151C497.027 149.229 497.046 147.458 497.062 145.688C497.074 144.701 497.086 143.715 497.098 142.699C497.123 139.9 497.123 139.9 496 137C482.47 137 468.94 137 455 137ZM75.1873 155.813C66.5858 166.321 64.6472 177.336 64.8748 190.563C64.8839 191.571 64.8929 192.58 64.9022 193.619C64.9255 196.08 64.9582 198.54 64.9998 201C67.6398 201 70.2798 201 72.9998 201C73.0256 200.189 73.0514 199.378 73.078 198.543C73.7633 185.164 77.4031 174.948 87.3123 165.75C96.5892 158.184 107.32 157.177 118.858 157.769C124.061 158.33 128.488 160.474 133 163C133.674 163.361 134.348 163.722 135.043 164.094C142.183 168.507 147.186 176.541 149.512 184.488C150.561 189.888 151 195.497 151 201C153.64 201 156.28 201 159 201C159.088 197.209 159.141 193.417 159.187 189.625C159.212 188.564 159.238 187.503 159.264 186.41C159.385 173.179 155.349 162.563 146.375 152.75C135.245 142.217 121.586 140.39 106.996 140.691C94.1836 141.274 83.914 146.523 75.1873 155.813ZM338 155C327.026 169.639 326.819 183.452 327 201C329.64 201 332.28 201 335 201C335.063 200.007 335.126 199.015 335.191 197.992C336.158 186.271 338.897 175.328 347.812 166.938C358.698 158.556 369.623 156.879 383 158C392.748 159.947 400.726 165.353 406.375 173.5C410.501 179.967 412.435 185.894 413.187 193.438C413.269 194.169 413.351 194.901 413.435 195.654C413.633 197.435 413.818 199.217 414 201C416.31 201 418.62 201 421 201C421.118 196.896 421.188 192.793 421.25 188.688C421.283 187.54 421.317 186.392 421.351 185.209C421.498 172.244 417.526 162.74 409 153C399.237 143.88 387.75 140.595 374.625 140.688C373.38 140.695 373.38 140.695 372.11 140.702C359.196 140.948 346.893 145.267 338 155ZM91.7498 182.875C87.9452 189.669 87.3972 195.494 88.9998 203C91.4967 210.667 96.4443 214.987 103.312 218.875C110.493 221.066 117.054 220.844 123.824 217.465C128.882 214.059 132.738 209.471 135.5 204.063C136.958 195.134 136.196 188.617 131 181C125.957 175.056 119.616 172.577 112 171.625C103.183 172.727 97.2518 175.845 91.7498 182.875ZM355.406 181.164C350.531 187.529 349.973 194.252 351 202C353.256 209.448 357.276 214.185 364 218C370.13 220.869 376.801 220.962 383.187 218.813C390.163 215.795 393.934 211.652 397.082 204.816C399.135 198.518 399.143 191.816 396.5 185.688C392.754 179.356 386.95 174.62 379.926 172.438C370.512 170.299 361.697 174.132 355.406 181.164ZM203 217C203 220.3 203 223.6 203 227C237.98 227 272.96 227 309 227C309 223.7 309 220.4 309 217C274.02 217 239.04 217 203 217ZM250 242C251.32 243.32 252.64 244.64 254 246C258.137 245.899 258.974 245.025 262 242C258.04 242 254.08 242 250 242ZM248 270C248 270.33 248 270.66 248 271C253.28 271 258.56 271 264 271C257.186 265.549 254.973 264.487 248 270ZM149 328C151.363 330.617 153.834 332.173 156.918 333.863C158.41 334.688 158.41 334.688 159.931 335.529C161.543 336.412 161.543 336.412 163.187 337.313C165.474 338.578 167.759 339.845 170.043 341.113C170.625 341.437 171.208 341.76 171.808 342.093C177.588 345.311 183.297 348.646 189 352C198.15 357.374 207.377 362.593 216.649 367.752C223.776 371.728 230.839 375.802 237.875 379.938C246.494 385.003 255.187 389.918 263.937 394.75C271.688 399.033 279.422 403.334 287.062 407.813C288.098 408.416 288.098 408.416 289.154 409.032C291.694 410.534 293.904 411.904 296 414C296.677 421.107 296.677 421.107 294.437 424.063C290.975 425.394 288.612 424.73 285 424C281.99 422.633 281.99 422.633 279.023 420.91C277.94 420.291 276.858 419.671 275.742 419.033C274.075 418.058 274.075 418.058 272.375 417.063C270.155 415.78 267.934 414.5 265.711 413.223C264.734 412.653 263.758 412.083 262.751 411.496C261.843 411.003 260.935 410.509 260 410C259.177 409.545 258.354 409.09 257.506 408.621C253.865 407.719 252.371 408.949 249.195 410.848C248.067 411.509 246.938 412.17 245.775 412.852C244.558 413.588 243.342 414.325 242.125 415.063C240.86 415.811 239.593 416.557 238.326 417.301C235.758 418.811 233.194 420.328 230.634 421.852C225.636 424.818 220.57 427.66 215.5 430.5C196.574 441.172 177.678 451.9 159 463C159.99 465.475 159.99 465.475 161 468C161.33 472.62 161.66 477.24 162 482C224.04 482 286.08 482 350 482C350.33 477.38 350.66 472.76 351 468C351.66 466.35 352.32 464.7 353 463C349.334 460.852 345.667 458.707 342 456.563C340.913 455.927 339.826 455.291 338.707 454.636C331.709 450.552 324.686 446.524 317.56 442.666C313.108 440.215 313.108 440.215 312 438C311.55 431.82 311.55 431.82 313.062 429.063C316.075 427.41 318.611 427.782 322 428C324.892 429.155 324.892 429.155 327.746 430.789C328.818 431.395 329.89 432.001 330.994 432.625C332.13 433.285 333.267 433.945 334.437 434.625C335.643 435.302 336.849 435.977 338.056 436.651C343.909 439.937 349.601 443.344 355.16 447.113C370.212 457.102 382.064 458.9 400 457C396.639 454.188 393.295 451.914 389.449 449.82C388.371 449.229 387.292 448.637 386.181 448.027C384.452 447.086 384.452 447.086 382.687 446.125C380.233 444.779 377.782 443.427 375.332 442.074C374.404 441.562 374.404 441.562 373.457 441.039C367.541 437.765 361.702 434.367 355.875 430.938C347.803 426.192 339.682 421.553 331.5 417C323.278 412.424 315.114 407.764 307 403C297.775 397.586 288.48 392.314 279.138 387.105C270.008 382.014 260.929 376.84 251.861 371.64C246.982 368.844 242.098 366.055 237.215 363.266C235.437 362.25 233.659 361.233 231.88 360.217C226.4 357.085 220.92 353.953 215.436 350.828C214.207 350.128 212.978 349.426 211.75 348.725C208.749 347.011 205.745 345.304 202.73 343.614C197.813 340.84 192.989 338.089 188.414 334.773C176.081 326.03 163.716 326.943 149 328ZM207 328C210.336 330.502 213.592 332.599 217.187 334.688C218.253 335.31 219.319 335.933 220.418 336.574C222.654 338.081 222.654 338.081 224 338C224 334.7 224 331.4 224 328C218.39 328 212.78 328 207 328ZM240 328C238.366 338.575 238.366 338.575 241.211 348.669C244.681 351.681 248.7 353.432 253 355C253.976 355.456 253.976 355.456 254.973 355.922C258.514 356.058 261.262 353.916 264.187 352.125C264.829 351.747 265.47 351.37 266.131 350.981C269.242 349.23 269.242 349.23 272 347C272.086 345.584 272.107 344.164 272.098 342.746C272.095 341.977 272.093 341.208 272.09 340.416C272.081 339.433 272.072 338.45 272.062 337.438C272.042 334.323 272.021 331.209 272 328C261.44 328 250.88 328 240 328ZM288 328C288 331.3 288 334.6 288 338C288.724 337.602 289.449 337.203 290.195 336.793C295.091 334.11 299.979 331.443 305 329C305 328.67 305 328.34 305 328C299.39 328 293.78 328 288 328ZM313.151 341.003C308.493 343.955 303.687 346.622 298.875 349.313C289.867 354.457 280.925 359.713 272 365C273.327 366.008 274.662 367.006 276 368C276.704 368.531 277.408 369.062 278.134 369.609C280.794 371.293 282.912 372.33 286 373C290.715 371.755 294.527 369.281 298.625 366.688C299.814 365.975 301.005 365.267 302.199 364.563C304.64 363.114 307.067 361.644 309.484 360.154C313.678 357.573 317.935 355.103 322.196 352.635C325.121 350.94 328.035 349.226 330.949 347.512C335.277 344.982 339.636 342.513 344.019 340.082C344.891 339.598 344.891 339.598 345.779 339.105C348.597 337.542 351.418 335.987 354.244 334.441C355.746 333.612 355.746 333.612 357.277 332.766C358.167 332.279 359.056 331.792 359.972 331.29C362.135 330.158 362.135 330.158 363 328C342.749 325.538 330.109 330.124 313.151 341.003ZM317.527 372.406C316.628 372.903 315.729 373.399 314.803 373.91C313.857 374.435 312.912 374.96 311.937 375.5C310.513 376.287 310.513 376.287 309.06 377.09C306.706 378.391 304.352 379.695 302 381C302 381.66 302 382.32 302 383C302.647 383.361 303.295 383.723 303.962 384.095C315.435 390.501 326.903 396.918 338.312 403.438C339.6 404.172 339.6 404.172 340.914 404.922C344.596 407.027 348.266 409.147 351.898 411.336C352.984 411.988 354.069 412.641 355.187 413.313C356.088 413.866 356.989 414.419 357.918 414.988C358.605 415.322 359.292 415.656 360 416C360.66 415.67 361.32 415.34 362 415C357.34 409.155 352.591 403.47 347.5 398C343.222 393.403 339.219 388.648 335.277 383.758C331.365 379.021 327.289 374.4 323 370C321.033 370 319.195 371.483 317.527 372.406ZM367 378C363.04 381.465 363.04 381.465 359 385C360.858 388.717 362.599 390.975 365.375 394C366.146 394.846 366.917 395.691 367.711 396.563C369.767 398.753 371.861 400.891 374 403C376.64 400.69 379.28 398.38 382 396C379.757 391.937 377.087 388.713 373.937 385.313C373.059 384.36 372.182 383.407 371.277 382.426C369.873 380.93 368.451 379.451 367 378ZM216.261 395.45C215.111 396.216 213.961 396.983 212.812 397.75C211.589 398.515 210.363 399.276 209.134 400.031C206.621 401.579 204.123 403.147 201.633 404.732C196.303 408.095 190.775 411.097 185.25 414.125C176.11 419.21 167.064 424.44 158.045 429.735C149.666 434.642 141.211 439.404 132.723 444.119C127.551 446.995 122.395 449.897 117.265 452.848C116.258 453.427 115.25 454.005 114.212 454.602C113.482 455.063 112.752 455.525 112 456C112 456.33 112 456.66 112 457C133.025 459.624 146.455 454.406 163.608 443.172C168.824 439.786 174.296 436.855 179.75 433.875C188.926 428.771 198.013 423.524 207.069 418.21C217.642 412.015 228.314 405.997 239 400C237.704 396.113 236.251 395.46 232.762 393.391C225.851 390.105 222.559 391.605 216.261 395.45ZM74.9998 472C74.9998 475.3 74.9998 478.6 74.9998 482C98.7598 482 122.52 482 147 482C147 479.03 147 476.06 147 473C145.903 471.678 145.903 471.678 143.184 471.88C141.925 471.882 140.666 471.884 139.369 471.887C138.676 471.886 137.983 471.886 137.27 471.886C134.97 471.887 132.671 471.895 130.371 471.902C128.781 471.904 127.19 471.906 125.6 471.907C121.406 471.911 117.212 471.92 113.018 471.931C108.742 471.942 104.466 471.946 100.189 471.951C91.7928 471.962 83.3963 471.979 74.9998 472ZM365 473C365 475.97 365 478.94 365 482C388.76 482 412.52 482 437 482C437 478.7 437 475.4 437 472C427.76 471.977 418.52 471.959 409.28 471.948C404.99 471.943 400.7 471.936 396.41 471.925C392.273 471.914 388.136 471.908 384 471.905C382.418 471.903 380.836 471.9 379.254 471.894C377.047 471.887 374.839 471.886 372.631 471.887C371.372 471.884 370.113 471.882 368.816 471.88C366.096 471.678 366.096 471.678 365 473Z" fill="url(#paint0_linear_329_328)"/>
<path d="M258.375 103.687C259.226 103.658 260.077 103.629 260.954 103.6C265.141 103.557 267.4 103.632 271.043 105.867C273.337 108.367 273.918 109.62 274 113C273.249 115.939 272.804 117.5 270.192 119.126C266.407 120.636 262.59 120.328 258.563 120.312C257.294 120.337 257.294 120.337 255.998 120.361C251.238 120.365 247.774 120.248 244 117C242.829 113.045 242.596 110.931 244.25 107.125C247.792 102.825 253.234 103.745 258.375 103.687Z" fill="url(#paint1_linear_329_328)"/>
<path d="M153 103.437C153.889 103.414 154.779 103.39 155.695 103.365C160.263 103.375 162.357 103.511 166.086 106.348C168 109 168 109 168.625 112C167.757 116.165 166.384 117.425 163 120C159.648 120.707 156.413 120.654 153 120.562C151.666 120.579 151.666 120.579 150.305 120.596C146.115 120.549 143.594 120.344 139.914 118.215C137.908 115.893 137.316 115.017 137.375 112C137.362 111.34 137.349 110.68 137.336 110C139.703 102.872 146.773 103.361 153 103.437Z" fill="url(#paint2_linear_329_328)"/>
<path d="M465.5 175.188C469 176 469 176 470.875 177.125C472.672 180.119 472.94 182.529 473 186C471.562 188.938 471.562 188.938 469 191C465.194 191.817 462.086 191.501 458.562 189.875C456.365 187.238 456.068 185.415 456 182C458.13 177.314 460.092 174.898 465.5 175.188Z" fill="url(#paint3_linear_329_328)"/>
</g>
<defs>
<filter id="filter0_i_329_328" x="0" y="0" width="512" height="516" filterUnits="userSpaceOnUse" color-interpolation-filters="sRGB">
<feFlood flood-opacity="0" result="BackgroundImageFix"/>
<feBlend mode="normal" in="SourceGraphic" in2="BackgroundImageFix" result="shape"/>
<feColorMatrix in="SourceAlpha" type="matrix" values="0 0 0 0 0 0 0 0 0 0 0 0 0 0 0 0 0 0 127 0" result="hardAlpha"/>
<feOffset dy="4"/>
<feGaussianBlur stdDeviation="2"/>
<feComposite in2="hardAlpha" operator="arithmetic" k2="-1" k3="1"/>
<feColorMatrix type="matrix" values="0 0 0 0 0 0 0 0 0 0 0 0 0 0 0 0 0 0 0.25 0"/>
<feBlend mode="normal" in2="shape" result="effect1_innerShadow_329_328"/>
</filter>
<linearGradient id="paint0_linear_329_328" x1="-8.85628" y1="45.1355" x2="436.5" y2="544.5" gradientUnits="userSpaceOnUse">
<stop stop-color="#2973B9"/>
<stop offset="1" stop-color="#042544"/>
</linearGradient>
<linearGradient id="paint1_linear_329_328" x1="258.533" y1="103.592" x2="468" y2="290" gradientUnits="userSpaceOnUse">
<stop stop-color="#2973B9"/>
<stop offset="1" stop-color="#162F46"/>
</linearGradient>
<linearGradient id="paint2_linear_329_328" x1="152.98" y1="103.365" x2="349.5" y2="283" gradientUnits="userSpaceOnUse">
<stop stop-color="#2973B9"/>
<stop offset="1" stop-color="#01274A"/>
</linearGradient>
<linearGradient id="paint3_linear_329_328" x1="335" y1="80.5" x2="473" y2="238" gradientUnits="userSpaceOnUse">
<stop stop-color="#2973B9"/>
<stop offset="1" stop-color="#012D56"/>
</linearGradient>
<clipPath id="clip0_329_328">
<rect width="512" height="512" fill="white"/>
</clipPath>
</defs>
</svg>
