<svg width="256" height="256" viewBox="0 0 256 256" fill="none" xmlns="http://www.w3.org/2000/svg">
<g clip-path="url(#clip0_329_333)" filter="url(#filter0_i_329_333)">
<path d="M38.234 22.0694C39.3376 22.0727 39.3376 22.0727 40.4634 22.0761C41.6274 22.0738 41.6274 22.0738 42.815 22.0714C45.4353 22.0674 48.0555 22.0706 50.6758 22.0737C52.5462 22.0724 54.4166 22.0706 56.287 22.0684C61.3819 22.0638 66.4768 22.0656 71.5717 22.0688C76.8911 22.0713 82.2104 22.069 87.5298 22.0674C96.4645 22.0656 105.399 22.068 114.334 22.0727C124.68 22.0782 135.025 22.0764 145.371 22.0709C154.236 22.0664 163.102 22.0657 171.967 22.0683C177.269 22.0699 182.572 22.0701 187.874 22.0668C192.858 22.0639 197.842 22.0659 202.826 22.0717C204.66 22.073 206.495 22.0726 208.33 22.0704C210.823 22.0677 213.317 22.0711 215.81 22.0761C216.546 22.0739 217.281 22.0717 218.039 22.0694C223.023 22.089 223.023 22.089 224.137 23.2031C224.224 24.9108 224.244 26.6221 224.234 28.332C224.231 29.3665 224.228 30.401 224.225 31.4668C224.216 32.5554 224.208 33.644 224.199 34.7656C224.195 35.8581 224.19 36.9506 224.186 38.0761C224.174 40.7852 224.157 43.4941 224.137 46.2031C225.31 46.1857 225.31 46.1857 226.508 46.1679C227.52 46.1589 228.532 46.1499 229.574 46.1406C230.584 46.129 231.593 46.1174 232.633 46.1054C235.137 46.2031 235.137 46.2031 236.137 47.2031C236.223 48.6188 236.244 50.0387 236.234 51.457C236.231 52.311 236.228 53.165 236.225 54.0449C236.216 54.9427 236.208 55.8406 236.199 56.7656C236.195 57.6673 236.19 58.569 236.186 59.498C236.174 61.7331 236.157 63.9681 236.137 66.2031C236.919 66.1915 237.702 66.1799 238.508 66.1679C239.52 66.1589 240.532 66.1499 241.574 66.1406C242.584 66.129 243.593 66.1174 244.633 66.1054C247.137 66.2031 247.137 66.2031 248.137 67.2031C248.262 70.2031 248.262 70.2031 248.137 73.2031C247.807 73.5331 247.477 73.8631 247.137 74.2031C243.507 74.2031 239.877 74.2031 236.137 74.2031C236.137 117.763 236.137 161.323 236.137 206.203C242.407 206.203 248.677 206.203 255.137 206.203C256.911 207.978 256.267 210.553 256.27 212.953C256.271 214.118 256.272 215.284 256.273 216.484C256.27 217.712 256.266 218.939 256.262 220.203C256.266 221.43 256.269 222.657 256.273 223.922C256.272 225.67 256.272 225.67 256.27 227.453C256.268 228.531 256.267 229.608 256.266 230.719C256.137 233.203 256.137 233.203 255.137 234.203C253.777 234.3 252.413 234.329 251.05 234.329C250.163 234.332 249.277 234.334 248.364 234.337C247.38 234.335 246.395 234.332 245.38 234.33C244.343 234.332 243.306 234.333 242.237 234.335C238.732 234.339 235.227 234.336 231.723 234.333C229.222 234.334 226.721 234.336 224.22 234.338C218.115 234.342 212.01 234.341 205.905 234.338C200.945 234.336 195.986 234.336 191.027 234.337C189.97 234.337 189.97 234.337 188.892 234.337C187.461 234.338 186.03 234.338 184.599 234.338C171.165 234.341 157.73 234.338 144.296 234.333C132.757 234.328 121.217 234.329 109.678 234.333C96.2933 234.339 82.9089 234.341 69.5245 234.338C68.0986 234.338 66.6728 234.337 65.2469 234.337C64.5452 234.337 63.8436 234.337 63.1207 234.336C58.1643 234.336 53.208 234.337 48.2516 234.339C41.5869 234.342 34.9222 234.34 28.2575 234.335C25.8036 234.333 23.3497 234.334 20.8958 234.336C17.5615 234.338 14.2273 234.335 10.8931 234.33C9.41601 234.333 9.41601 234.333 7.90911 234.337C7.02295 234.334 6.1368 234.332 5.22379 234.329C4.06778 234.329 4.06778 234.329 2.88842 234.328C1.13672 234.203 1.13672 234.203 0.136719 233.203C0.0370009 231.289 0.00591286 229.37 0.00390625 227.453C0.00261719 226.288 0.00132813 225.122 0 223.922C0.00386719 222.695 0.00773438 221.467 0.0117188 220.203C0.00785156 218.976 0.00398438 217.749 0 216.484C0.00128906 215.319 0.00257813 214.154 0.00390625 212.953C0.00503418 211.875 0.00616592 210.798 0.00732803 209.687C0.136723 207.203 0.136719 207.203 1.13672 206.203C7.40672 206.203 13.6767 206.203 20.1367 206.203C20.1367 162.643 20.1367 119.083 20.1367 74.2031C16.5067 74.2031 12.8767 74.2031 9.13672 74.2031C8.13672 73.2031 8.13672 73.2031 8.01172 70.2031C8.13672 67.2031 8.13672 67.2031 9.13672 66.2031C10.9896 66.1308 12.8451 66.1193 14.6992 66.1406C15.7111 66.1496 16.723 66.1586 17.7656 66.1679C18.9393 66.1853 18.9393 66.1853 20.1367 66.2031C20.1289 65.3476 20.1289 65.3476 20.1209 64.4748C20.1001 61.9051 20.0871 59.3354 20.0742 56.7656C20.0658 55.8678 20.0575 54.9699 20.0488 54.0449C20.044 52.7639 20.044 52.7639 20.0391 51.457C20.0312 50.2709 20.0312 50.2709 20.0232 49.0608C20.1367 47.2031 20.1367 47.2031 21.1367 46.2031C22.9896 46.1308 24.8451 46.1193 26.6992 46.1406C27.7111 46.1496 28.723 46.1586 29.7656 46.1679C30.9393 46.1853 30.9393 46.1853 32.1367 46.2031C32.1289 45.1658 32.1289 45.1658 32.1208 44.1076C32.1001 40.9936 32.0871 37.8796 32.0742 34.7656C32.0658 33.677 32.0575 32.5884 32.0488 31.4668C32.044 29.9151 32.044 29.9151 32.0391 28.332C32.0312 26.8945 32.0312 26.8945 32.0232 25.428C32.2395 21.1895 34.5511 22.0838 38.234 22.0694ZM40.1367 30.2031C40.1367 35.4831 40.1367 40.7631 40.1367 46.2031C44.0967 46.2031 48.0567 46.2031 52.1367 46.2031C52.1367 40.9231 52.1367 35.6431 52.1367 30.2031C48.1767 30.2031 44.2167 30.2031 40.1367 30.2031ZM60.1367 30.2031C60.1367 35.4831 60.1367 40.7631 60.1367 46.2031C66.7367 46.2031 73.3367 46.2031 80.1367 46.2031C80.1367 40.9231 80.1367 35.6431 80.1367 30.2031C73.5367 30.2031 66.9367 30.2031 60.1367 30.2031ZM88.1367 30.2031C88.1367 35.4831 88.1367 40.7631 88.1367 46.2031C94.7367 46.2031 101.337 46.2031 108.137 46.2031C108.137 40.9231 108.137 35.6431 108.137 30.2031C101.537 30.2031 94.9367 30.2031 88.1367 30.2031ZM116.137 30.2031C116.137 35.4831 116.137 40.7631 116.137 46.2031C124.057 46.2031 131.977 46.2031 140.137 46.2031C140.137 40.9231 140.137 35.6431 140.137 30.2031C132.217 30.2031 124.297 30.2031 116.137 30.2031ZM148.137 30.2031C148.137 35.4831 148.137 40.7631 148.137 46.2031C154.737 46.2031 161.337 46.2031 168.137 46.2031C168.137 40.9231 168.137 35.6431 168.137 30.2031C161.537 30.2031 154.937 30.2031 148.137 30.2031ZM176.137 30.2031C176.137 35.4831 176.137 40.7631 176.137 46.2031C182.737 46.2031 189.337 46.2031 196.137 46.2031C196.137 40.9231 196.137 35.6431 196.137 30.2031C189.537 30.2031 182.937 30.2031 176.137 30.2031ZM204.137 30.2031C204.137 35.4831 204.137 40.7631 204.137 46.2031C208.097 46.2031 212.057 46.2031 216.137 46.2031C216.137 40.9231 216.137 35.6431 216.137 30.2031C212.177 30.2031 208.217 30.2031 204.137 30.2031ZM28.1367 54.2031C28.1367 58.1631 28.1367 62.1231 28.1367 66.2031C94.1367 66.2031 160.137 66.2031 228.137 66.2031C228.137 62.2431 228.137 58.2831 228.137 54.2031C162.137 54.2031 96.1367 54.2031 28.1367 54.2031ZM28.1367 74.2031C28.1367 117.763 28.1367 161.323 28.1367 206.203C76.9767 206.203 125.817 206.203 176.137 206.203C176.137 162.643 176.137 119.083 176.137 74.2031C127.297 74.2031 78.4567 74.2031 28.1367 74.2031ZM184.137 74.2031C184.137 80.8031 184.137 87.4031 184.137 94.2031C190.737 94.2031 197.337 94.2031 204.137 94.2031C204.137 87.6031 204.137 81.0031 204.137 74.2031C197.537 74.2031 190.937 74.2031 184.137 74.2031ZM212.137 74.2031C212.137 117.763 212.137 161.323 212.137 206.203C217.417 206.203 222.697 206.203 228.137 206.203C228.137 162.643 228.137 119.083 228.137 74.2031C222.857 74.2031 217.577 74.2031 212.137 74.2031ZM184.137 102.203C184.137 108.803 184.137 115.403 184.137 122.203C190.737 122.203 197.337 122.203 204.137 122.203C204.137 115.603 204.137 109.003 204.137 102.203C197.537 102.203 190.937 102.203 184.137 102.203ZM184.137 130.203C184.137 136.803 184.137 143.403 184.137 150.203C190.737 150.203 197.337 150.203 204.137 150.203C204.137 143.603 204.137 137.003 204.137 130.203C197.537 130.203 190.937 130.203 184.137 130.203ZM184.137 158.203C184.137 164.803 184.137 171.403 184.137 178.203C190.737 178.203 197.337 178.203 204.137 178.203C204.137 171.603 204.137 165.003 204.137 158.203C197.537 158.203 190.937 158.203 184.137 158.203ZM184.137 186.203C184.137 192.803 184.137 199.403 184.137 206.203C190.737 206.203 197.337 206.203 204.137 206.203C204.137 199.603 204.137 193.003 204.137 186.203C197.537 186.203 190.937 186.203 184.137 186.203ZM8.13672 214.203C8.13672 218.163 8.13672 222.123 8.13672 226.203C87.3367 226.203 166.537 226.203 248.137 226.203C248.137 222.243 248.137 218.283 248.137 214.203C168.937 214.203 89.7367 214.203 8.13672 214.203Z" fill="url(#paint0_linear_329_333)"/>
<path d="M128.195 93.4961C132.122 94.4401 132.994 95.8286 135.261 99.1406C135.631 99.6684 136.001 100.196 136.382 100.74C137.2 101.911 138.01 103.087 138.812 104.269C140.225 106.333 141.676 108.367 143.136 110.398C161.552 136.077 161.552 136.077 160.136 152.203C157.877 159.894 152.876 166.292 146.051 170.484C137.205 175.088 126.856 175.659 117.144 173.555C108.012 170.226 101.492 163.802 97.1365 155.203C94.8742 148.416 94.8001 138.967 97.824 132.391C102.11 125.081 107.399 118.313 112.447 111.519C114.083 109.277 115.658 107.003 117.219 104.707C117.942 103.661 117.942 103.661 118.681 102.594C119.588 101.281 120.482 99.9571 121.358 98.6223C123.44 95.658 124.611 94.3247 128.195 93.4961ZM127.136 107.203C125.737 108.748 125.737 108.748 124.344 110.789C123.799 111.551 123.254 112.312 122.692 113.097C122.117 113.916 121.542 114.735 120.949 115.578C120.364 116.401 119.779 117.223 119.176 118.071C118.015 119.705 116.858 121.342 115.703 122.98C114.406 124.82 113.103 126.654 111.793 128.484C106.445 136.007 104.074 140.739 105.136 150.203C106.925 155.859 111.303 159.957 116.136 163.203C122.591 166.419 130.666 166.331 137.582 164.586C142.95 162.207 146.782 157.939 150.136 153.203C151.905 147.899 152.275 142.186 150.254 136.891C148.693 134.199 146.963 131.725 145.136 129.203C144.074 127.707 143.011 126.211 141.949 124.715C138.714 120.184 135.444 115.681 132.136 111.203C131.622 110.461 131.108 109.719 130.579 108.955C129.865 108.088 129.865 108.088 129.136 107.203C128.476 107.203 127.816 107.203 127.136 107.203Z" fill="url(#paint1_linear_329_333)"/>
<path d="M44.1367 146.078C47.1367 146.203 47.1367 146.203 48.1367 147.203C48.2379 150.294 48.2764 153.362 48.2695 156.453C48.2705 157.382 48.2715 158.31 48.2724 159.267C48.2731 161.234 48.2713 163.201 48.2671 165.168C48.2618 168.19 48.2671 171.212 48.2735 174.234C48.2728 176.141 48.2715 178.047 48.2695 179.953C48.2716 180.864 48.2736 181.774 48.2757 182.712C48.2517 189.088 48.2517 189.088 47.1367 190.203C44.1367 190.328 44.1367 190.328 41.1367 190.203C39.1881 188.254 40.0075 185.305 39.9978 182.712C39.9998 181.802 40.0018 180.891 40.0039 179.953C40.003 179.025 40.002 178.096 40.001 177.14C40.0003 175.173 40.0022 173.205 40.0064 171.238C40.0117 168.216 40.0064 165.194 40 162.172C40.0007 160.266 40.002 158.359 40.0039 156.453C40.0019 155.543 39.9999 154.632 39.9978 153.694C40.0258 146.249 40.0258 146.249 44.1367 146.078Z" fill="url(#paint2_linear_329_333)"/>
<path d="M137.137 138.203C139.136 138.161 141.137 138.162 143.137 138.203C144.687 139.753 144.381 141.24 144.449 143.391C144.382 148.088 143.306 150.617 140.137 154.203C135.778 158.055 132.589 158.62 126.992 158.441C125.137 158.203 125.137 158.203 124.137 157.203C124.096 155.204 124.094 153.203 124.137 151.203C124.74 151.019 125.343 150.834 125.965 150.645C131.044 148.81 131.044 148.81 134.625 144.934C135.587 142.712 136.429 140.518 137.137 138.203Z" fill="url(#paint3_linear_329_333)"/>
<path d="M44.1367 130.078C47.1367 130.203 47.1367 130.203 48.1367 131.203C48.2617 134.203 48.2617 134.203 48.1367 137.203C47.1367 138.203 47.1367 138.203 44.1367 138.328C41.1367 138.203 41.1367 138.203 40.1367 137.203C40.0117 134.203 40.0117 134.203 40.1367 131.203C41.1367 130.203 41.1367 130.203 44.1367 130.078Z" fill="url(#paint4_linear_329_333)"/>
</g>
<defs>
<filter id="filter0_i_329_333" x="0" y="0" width="256" height="260" filterUnits="userSpaceOnUse" color-interpolation-filters="sRGB">
<feFlood flood-opacity="0" result="BackgroundImageFix"/>
<feBlend mode="normal" in="SourceGraphic" in2="BackgroundImageFix" result="shape"/>
<feColorMatrix in="SourceAlpha" type="matrix" values="0 0 0 0 0 0 0 0 0 0 0 0 0 0 0 0 0 0 127 0" result="hardAlpha"/>
<feOffset dy="4"/>
<feGaussianBlur stdDeviation="2"/>
<feComposite in2="hardAlpha" operator="arithmetic" k2="-1" k3="1"/>
<feColorMatrix type="matrix" values="0 0 0 0 0 0 0 0 0 0 0 0 0 0 0 0 0 0 0.25 0"/>
<feBlend mode="normal" in2="shape" result="effect1_innerShadow_329_333"/>
</filter>
<linearGradient id="paint0_linear_329_333" x1="28.1367" y1="36.2031" x2="256.137" y2="247.203" gradientUnits="userSpaceOnUse">
<stop stop-color="#4444BA"/>
<stop offset="1" stop-color="#2B3A62"/>
</linearGradient>
<linearGradient id="paint1_linear_329_333" x1="102.646" y1="98.9293" x2="180.727" y2="146.962" gradientUnits="userSpaceOnUse">
<stop stop-color="#4444BA"/>
<stop offset="1" stop-color="#2B3A62"/>
</linearGradient>
<linearGradient id="paint2_linear_329_333" x1="40.7613" y1="149.036" x2="54.4043" y2="151.032" gradientUnits="userSpaceOnUse">
<stop stop-color="#4444BA"/>
<stop offset="1" stop-color="#2B3A62"/>
</linearGradient>
<linearGradient id="paint3_linear_329_333" x1="126.338" y1="139.53" x2="147.46" y2="155.755" gradientUnits="userSpaceOnUse">
<stop stop-color="#4444BA"/>
<stop offset="1" stop-color="#2B3A62"/>
</linearGradient>
<linearGradient id="paint4_linear_329_333" x1="40.9415" y1="130.63" x2="49.5041" y2="137.143" gradientUnits="userSpaceOnUse">
<stop stop-color="#4444BA"/>
<stop offset="1" stop-color="#2B3A62"/>
</linearGradient>
<clipPath id="clip0_329_333">
<rect width="256" height="256" fill="white"/>
</clipPath>
</defs>
</svg>
