<svg width="512" height="512" viewBox="0 0 512 512" fill="none" xmlns="http://www.w3.org/2000/svg">
<g clip-path="url(#clip0_329_337)" filter="url(#filter0_i_329_337)">
<path d="M204.211 -0.295166C206.229 -0.312321 208.245 -0.356199 210.262 -0.400391C211.542 -0.40877 212.822 -0.417148 214.141 -0.425781C215.311 -0.440364 216.482 -0.454946 217.688 -0.469971C223.036 0.288927 226.072 2.7961 229.312 7C232.985 13.5289 232.184 20.3654 232.187 27.6875C232.2 28.9295 232.212 30.1715 232.224 31.4512C232.237 39.5339 232.163 46.9823 228.25 54.25C226.662 56.9004 226.662 56.9004 227.822 59.3332C228.21 60.2133 228.599 61.0933 229 62C231.838 70.8233 232.418 79.0839 232.34 88.3057C232.34 89.6966 232.34 91.0875 232.342 92.4784C232.343 96.2153 232.325 99.9519 232.304 103.689C232.285 107.608 232.284 111.528 232.28 115.448C232.271 122.853 232.246 130.258 232.216 137.663C232.182 146.101 232.166 154.539 232.151 162.977C232.12 180.318 232.067 197.659 232 215C233.143 215.195 233.143 215.195 234.308 215.395C239.269 216.51 242.289 219.058 245.312 223.062C248.505 228.62 248.611 233.721 248 240C246.213 245.982 242.539 249.874 238 254C239.473 257.08 241.181 259.925 243 262.812C246.573 268.739 248 272.964 248 280C258.56 280 269.12 280 280 280C280.11 272.432 280.186 264.88 280.177 257.313C280.184 254.742 280.21 252.17 280.257 249.599C280.321 245.896 280.314 242.199 280.293 238.496C280.345 236.779 280.345 236.779 280.399 235.026C280.339 231.682 280.166 229.14 279 226C276.414 223.618 273.897 222.063 270.776 220.458C259.106 214.328 253.067 201.207 248.945 189.359C244.519 173.631 247.236 157.665 254.859 143.395C263.119 129.685 276.111 120.685 291.391 116.316C306.607 112.758 323.038 115.212 336.476 123.242C350.969 133.338 359.944 146.381 363.492 163.691C365.78 178.6 362.81 194.571 354 207C345.551 217.689 345.551 217.689 340.32 220.377C334.42 223.348 334.42 223.348 330.991 228.71C330.63 232.017 330.606 235.172 330.707 238.496C330.7 239.685 330.694 240.873 330.687 242.098C330.677 245.88 330.744 249.656 330.812 253.438C330.819 256.007 330.821 258.577 330.818 261.146C330.812 267.435 330.909 273.709 331 280C341.56 280 352.12 280 363 280C362.974 277.629 362.948 275.258 362.921 272.815C362.837 264.952 362.782 257.089 362.741 249.226C362.715 244.462 362.68 239.698 362.623 234.934C362.568 230.33 362.538 225.727 362.525 221.123C362.516 219.373 362.498 217.623 362.471 215.873C362.178 196.155 362.178 196.155 369.844 188.051C372.808 185.268 375.04 183.909 379 183C378.962 174.193 378.902 165.387 378.816 156.58C378.777 152.49 378.744 148.4 378.729 144.31C378.714 140.354 378.679 136.399 378.632 132.444C378.617 130.943 378.609 129.442 378.608 127.942C378.593 114.717 376.62 103.695 367 94C357.716 86.4909 347.933 83.0447 336 84C327.278 85.6707 320.839 89.7322 314 95.1875C308.268 99.495 303.533 100.431 296.437 99.5C289.692 98.0404 285.952 94.8626 282.125 89.25C279.633 82.0515 279.095 75.6186 282.332 68.5703C294.061 50.4959 320.181 38.9025 340.329 34.49C347.163 33.1335 353.666 32.7238 360.622 32.7729C361.725 32.7727 362.829 32.7724 363.966 32.7721C367.575 32.7734 371.184 32.7889 374.793 32.8047C377.311 32.8084 379.828 32.8113 382.346 32.8133C388.271 32.8201 394.196 32.8358 400.12 32.856C407.537 32.8806 414.953 32.8913 422.369 32.9023C435.579 32.9237 448.79 32.9574 462 33C462.133 31.9107 462.265 30.8215 462.402 29.6992C463.105 25.3522 464.12 23.3233 467 20C473.85 15.6243 479.621 15.4169 487.625 15.5625C488.731 15.5554 489.837 15.5483 490.976 15.541C497.538 15.5923 502.627 15.8519 507.644 20.5352C511.776 25.9382 512.164 29.1324 512.209 35.8208C512.218 36.7348 512.228 37.6489 512.238 38.5906C512.268 41.6255 512.29 44.6603 512.308 47.6953C512.315 48.7316 512.322 49.7679 512.328 50.8355C512.361 56.3236 512.385 61.8117 512.405 67.2998C512.423 71.8395 512.457 76.3785 512.507 80.918C512.568 86.3993 512.598 91.88 512.608 97.3616C512.617 99.4483 512.635 101.535 512.665 103.622C512.704 106.549 512.705 109.475 512.697 112.403C512.717 113.259 512.737 114.116 512.758 114.998C512.689 120.711 511.218 123.945 507.651 128.394C502.168 133.726 494.697 133.468 487.5 133.375C486.601 133.387 485.703 133.398 484.777 133.41C478.16 133.381 472.365 132.624 466.976 128.422C463.71 124.382 462.042 121.108 461 116C447.38 116.141 447.38 116.141 436.156 122.938C432.55 127.564 430.897 131.099 430.795 137.022C430.775 138.043 430.755 139.064 430.734 140.116C430.717 141.216 430.701 142.316 430.683 143.449C430.663 144.577 430.642 145.705 430.62 146.867C430.555 150.474 430.496 154.08 430.437 157.688C430.394 160.131 430.351 162.574 430.307 165.018C430.199 171.012 430.098 177.006 430 183C430.786 183.305 431.572 183.609 432.382 183.923C434.847 184.937 436.526 185.934 438.562 187.625C439.4 188.294 439.4 188.294 440.254 188.977C445.04 194.523 446.596 200.152 446.454 207.344C446.455 208.135 446.455 208.926 446.456 209.741C446.453 212.328 446.422 214.914 446.391 217.5C446.383 219.305 446.377 221.109 446.373 222.914C446.358 227.642 446.319 232.37 446.275 237.098C446.233 241.931 446.215 246.764 446.195 251.598C446.152 261.065 446.084 270.533 446 280C447.316 279.984 448.632 279.969 449.988 279.952C454.902 279.898 459.817 279.864 464.732 279.835C466.853 279.82 468.974 279.8 471.095 279.774C474.156 279.737 477.216 279.72 480.277 279.707C481.684 279.684 481.684 279.684 483.119 279.66C490.84 279.658 498.388 280.847 504.312 286.188C504.927 286.717 505.542 287.247 506.176 287.793C513.199 296.29 512.571 304.993 512.517 315.441C512.523 317.217 512.53 318.994 512.539 320.77C512.557 325.58 512.55 330.39 512.537 335.2C512.527 340.245 512.536 345.29 512.543 350.335C512.55 358.81 512.54 367.284 512.521 375.758C512.5 385.536 512.507 395.314 512.529 405.092C512.547 413.504 512.549 421.915 512.539 430.326C512.533 435.343 512.532 440.359 512.545 445.376C512.557 450.096 512.548 454.817 512.525 459.537C512.52 461.263 512.522 462.988 512.531 464.714C512.601 479.833 510.095 490.583 499.344 501.715C491.615 508.878 482.93 512.156 472.542 512.134C471.784 512.137 471.026 512.139 470.246 512.141C467.692 512.148 465.139 512.148 462.585 512.147C460.742 512.15 458.898 512.154 457.055 512.158C451.977 512.168 446.899 512.172 441.822 512.175C436.35 512.179 430.878 512.188 425.406 512.197C412.185 512.217 398.965 512.227 385.744 512.236C379.52 512.24 373.295 512.245 367.071 512.251C346.383 512.268 325.694 512.282 305.005 512.289C303.667 512.29 302.33 512.29 300.992 512.291C300.328 512.291 299.665 512.291 298.981 512.292C295.619 512.293 292.258 512.294 288.896 512.295C288.229 512.295 287.562 512.296 286.875 512.296C265.249 512.304 243.624 512.327 221.999 512.36C199.132 512.394 176.266 512.414 153.399 512.417C140.935 512.419 128.472 512.428 116.008 512.453C105.394 512.475 94.7804 512.483 84.1663 512.474C78.7513 512.469 73.3365 512.471 67.9215 512.49C62.9612 512.508 58.0013 512.507 53.041 512.491C51.2495 512.489 49.4581 512.493 47.6666 512.505C32.3848 512.6 21.5492 510.223 10.285 499.344C3.16705 491.664 -0.15005 482.993 -0.147294 472.663C-0.150971 471.922 -0.154645 471.181 -0.158433 470.418C-0.16945 467.934 -0.173313 465.45 -0.177125 462.966C-0.183391 461.185 -0.190038 459.404 -0.197038 457.624C-0.218062 451.775 -0.228438 445.927 -0.238405 440.078C-0.242453 438.064 -0.246564 436.049 -0.250749 434.035C-0.269796 424.571 -0.284028 415.108 -0.29236 405.644C-0.302133 394.724 -0.328465 383.804 -0.368867 372.884C-0.399033 364.441 -0.413834 355.998 -0.417146 347.554C-0.419496 342.512 -0.428454 337.471 -0.453615 332.429C-0.476909 327.685 -0.481112 322.941 -0.470842 318.197C-0.470347 316.459 -0.476666 314.72 -0.490404 312.982C-0.620144 295.59 -0.620144 295.59 5.8241 287.793C6.43898 287.263 7.05386 286.733 7.68738 286.188C8.28937 285.645 8.89136 285.102 9.5116 284.543C21.9582 276.825 34.0989 280 48.9999 280C48.9999 258.22 48.9999 236.44 48.9999 214C46.0299 213.67 43.0599 213.34 39.9999 213C26.0454 209.399 13.9777 198.422 6.74084 186.252C0.625823 174.829 -0.793072 164.098 -0.597047 151.347C-0.562548 148.87 -0.576512 146.396 -0.595827 143.918C-0.578731 125.986 4.32051 110.736 17.035 97.7695C31.3743 83.91 47.7501 82 66.9999 82C66.9999 98.5 66.9999 115 66.9999 132C77.5599 132 88.1199 132 98.9999 132C98.9999 115.5 98.9999 99 98.9999 82C119.737 82 135.213 85.1577 150.199 99.9492C165.574 116.075 166.491 136.201 166.089 157.194C165.526 174.961 158.313 189.648 145.5 201.898C136.791 209.219 128.137 211.818 117 215C116.67 236.45 116.34 257.9 116 280C132.17 280 148.34 280 165 280C165.33 277.03 165.66 274.06 166 271C167.305 267.602 167.305 267.602 168.875 264.625C169.388 263.627 169.901 262.63 170.43 261.602C171.793 259.343 173.034 257.731 175 256C173.666 253.076 172.158 250.874 170 248.5C165.176 243.193 164.549 239.152 164.687 232.043C165.287 226.209 167.596 222.026 171.875 218.062C175.136 215.91 177.197 215.503 181 215C180.997 214.278 180.994 213.557 180.992 212.813C180.925 195.218 180.876 177.622 180.844 160.026C180.829 151.517 180.808 143.008 180.774 134.499C180.744 127.078 180.724 119.658 180.718 112.238C180.714 108.312 180.705 104.386 180.683 100.461C180.662 96.7582 180.656 93.0559 180.661 89.3532C180.659 87.3621 180.643 85.3711 180.627 83.3801C180.656 74.7994 181.751 67.2551 185.14 59.3351C186.249 57.0283 186.249 57.0283 185.355 54.7188C184.97 53.9866 184.584 53.2544 184.187 52.5C180.477 45.3063 180.751 38.2133 180.705 30.2449C180.693 28.8786 180.673 27.5123 180.643 26.1462C180.468 18.0411 180.413 11.8508 185 5C191.162 -0.722273 196.059 -0.246886 204.211 -0.295166ZM199 17C198.919 21.2087 198.859 25.4159 198.812 29.625C198.787 30.8148 198.762 32.0046 198.736 33.2305C198.6 41.5994 198.6 41.5994 202 49C204.97 49 207.94 49 211 49C215.114 43.0183 214.336 36.6462 214.187 29.625C214.174 28.412 214.16 27.199 214.146 25.9492C214.111 22.966 214.057 19.9829 214 17C209.05 17 204.1 17 199 17ZM479 33C479 60.06 479 87.12 479 115C484.28 115 489.56 115 495 115C495 87.94 495 60.88 495 33C489.72 33 484.44 33 479 33ZM299 77C298.199 79.1448 298.199 79.1448 298 81C299.76 81.8393 299.76 81.8393 302 82C304.307 80.5212 304.307 80.5212 306.562 78.375C319.623 67.3566 334.528 65.7233 351 67C363.988 69.2836 377.384 76.761 385.166 87.6289C392.648 99.1458 395.858 110.249 396.562 123.875C396.606 124.659 396.649 125.442 396.693 126.25C396.798 128.167 396.9 130.083 397 132C402.28 132 407.56 132 413 132C413.371 130.556 413.742 129.112 414.125 127.625C417.331 117.082 423.003 108.915 432.687 103.496C439.402 100.362 445.387 99.4208 452.773 99.3359C456.431 98.9551 458.774 97.7049 462 96C462.099 89.9311 462.171 83.8627 462.22 77.7932C462.24 75.728 462.267 73.6629 462.302 71.5979C462.35 68.6315 462.373 65.6659 462.391 62.6992C462.411 61.7741 462.432 60.849 462.453 59.8959C462.453 59.0353 462.454 58.1746 462.454 57.2878C462.463 56.5306 462.472 55.7734 462.481 54.9932C462.128 52.8998 462.128 52.8998 460.575 51.2563C456.579 49.3069 452.734 49.583 448.345 49.6118C446.875 49.6039 446.875 49.6039 445.376 49.5959C442.131 49.5827 438.886 49.5914 435.641 49.6016C433.375 49.5995 431.11 49.5966 428.845 49.5929C424.087 49.5884 419.329 49.5949 414.571 49.6089C408.512 49.6259 402.454 49.6162 396.395 49.5982C391.709 49.5872 387.023 49.5908 382.337 49.5986C380.106 49.6005 377.875 49.5982 375.644 49.5911C347.349 49.5214 318.704 54.548 299 77ZM202 67C199.62 71.2213 198.626 74.2359 198.639 79.0744C198.635 80.2691 198.631 81.4637 198.627 82.6946C198.637 83.9914 198.648 85.2883 198.659 86.6245C198.66 88.0145 198.66 89.4046 198.658 90.7946C198.657 94.5566 198.675 98.3184 198.696 102.08C198.714 106.016 198.716 109.952 198.72 113.888C198.729 121.336 198.754 128.783 198.784 136.231C198.817 144.712 198.834 153.193 198.849 161.675C198.88 179.117 198.934 196.558 199 214C203.95 214 208.9 214 214 214C214.069 195.72 214.123 177.439 214.155 159.159C214.171 150.67 214.192 142.182 214.226 133.694C214.256 126.296 214.275 118.897 214.282 111.498C214.286 107.581 214.295 103.664 214.317 99.747C214.337 96.0584 214.344 92.37 214.339 88.6813C214.34 86.6857 214.357 84.6901 214.373 82.6946C214.369 81.4999 214.365 80.3053 214.361 79.0744C214.363 78.0402 214.366 77.0059 214.369 75.9403C213.933 72.4702 212.707 70.0283 211 67C208.03 67 205.06 67 202 67ZM28.5897 111.188C18.659 122.509 16.4748 134.247 16.5624 148.938C16.5424 150.123 16.5224 151.308 16.5018 152.529C16.5089 165.332 19.9632 176.493 28.8124 185.934C40.2398 196.647 51.613 198 66.9999 198C66.9999 241.56 66.9999 285.12 66.9999 330C77.5599 330 88.1199 330 98.9999 330C98.9999 286.44 98.9999 242.88 98.9999 198C102.96 198 106.92 198 111 198C121.5 196.643 131.025 191.985 138.332 184.262C146.063 173.778 148.223 163.823 148.295 151.058C148.306 149.657 148.327 148.256 148.357 146.855C148.653 132.867 145.853 121.561 136.223 111.062C130.911 106.022 123.53 101 116 101C116 116.84 116 132.68 116 149C93.8899 149 71.7799 149 48.9999 149C48.9999 133.16 48.9999 117.32 48.9999 101C41.8973 101 33.7081 106.382 28.5897 111.188ZM273.25 148.312C265.682 158.541 264.111 168.511 265 181C267.399 191.928 273.762 201.663 283 208C287.529 210.395 292.141 212.38 297 214C297.33 252.28 297.66 290.56 298 330C302.95 330 307.9 330 313 330C313.33 291.72 313.66 253.44 314 214C317.96 212.35 321.92 210.7 326 209C335.838 202.315 341.906 194.553 345.582 183.203C347.828 171.363 345.893 160.932 339.578 150.695C333.176 141.574 324.672 136.004 314 133C297.727 131.445 283.938 135.32 273.25 148.312ZM397 149C397 159.56 397 170.12 397 181C401.95 181 406.9 181 412 181C412 170.44 412 159.88 412 149C407.05 149 402.1 149 397 149ZM382.516 200.91C380.143 204.182 379.876 205.983 379.88 209.986C379.878 211.041 379.877 212.095 379.875 213.182C379.879 214.343 379.883 215.505 379.886 216.702C379.886 217.921 379.886 219.141 379.886 220.397C379.886 223.746 379.891 227.095 379.898 230.444C379.905 233.942 379.905 237.44 379.906 240.938C379.91 247.564 379.918 254.191 379.928 260.817C379.939 268.36 379.945 275.903 379.95 283.445C379.96 298.964 379.978 314.482 380 330C396.17 330 412.34 330 429 330C429.113 313.658 429.205 297.316 429.259 280.974C429.285 273.386 429.32 265.798 429.377 258.21C429.427 251.596 429.459 244.983 429.47 238.369C429.477 234.867 429.492 231.365 429.529 227.863C429.569 223.953 429.57 220.044 429.568 216.134C429.594 214.394 429.594 214.394 429.622 212.618C429.617 206.281 429.617 206.281 426.72 200.781C424.12 199.079 422.954 198.373 419.916 198.369C419.148 198.356 418.381 198.344 417.59 198.331C416.775 198.344 415.96 198.357 415.121 198.371C414.272 198.369 413.423 198.366 412.548 198.364C410.759 198.365 408.969 198.378 407.18 198.403C404.442 198.437 401.708 198.424 398.971 198.404C397.229 198.411 395.487 198.421 393.746 198.434C392.521 198.426 392.521 198.426 391.271 198.419C387.615 198.494 385.458 198.647 382.516 200.91ZM183 232C182.001 235.117 181.85 235.692 183.359 238.797C188.078 244.626 191.798 247.163 199.394 248.066C212.191 249.012 212.191 249.012 223.941 244.836C227.359 241.463 229.482 238.553 231 234C229.232 231.821 229.232 231.821 227.013 231.759C226.2 231.764 225.388 231.768 224.55 231.773C223.169 231.773 223.169 231.773 221.76 231.773C220.266 231.789 220.266 231.789 218.742 231.805C217.215 231.809 217.215 231.809 215.657 231.813C212.396 231.824 209.136 231.85 205.875 231.875C203.668 231.885 201.461 231.894 199.254 231.902C193.836 231.924 188.418 231.958 183 232ZM185.197 270.595C181.727 277.566 181.73 283.963 181.805 291.621C181.807 292.721 181.81 293.821 181.813 294.954C181.824 298.449 181.849 301.943 181.875 305.438C181.885 307.814 181.894 310.191 181.902 312.568C181.923 318.379 181.962 324.189 182 330C198.17 330 214.34 330 231 330C231.082 321.956 231.165 313.913 231.25 305.625C231.286 303.106 231.323 300.586 231.36 297.991C231.372 295.965 231.382 293.94 231.391 291.914C231.421 290.371 231.421 290.371 231.453 288.798C231.456 280.45 229.756 273.657 224.683 266.926C219.974 263.574 213.649 264.147 208.114 264.183C206.068 264.187 204.031 264.122 201.986 264.053C194.454 264.034 189.866 264.371 185.197 270.595ZM18.6561 299.656C15.9178 305.185 16.4851 310.751 16.6874 316.812C16.7905 321.164 16.8936 325.516 16.9999 330C27.5599 330 38.1199 330 48.9999 330C48.9999 319.44 48.9999 308.88 48.9999 298C44.648 297.897 40.2961 297.794 35.8124 297.688C34.4483 297.642 33.0842 297.596 31.6788 297.55C26.7959 297.493 23.0733 297.468 18.6561 299.656ZM116 298C116 308.56 116 319.12 116 330C132.17 330 148.34 330 165 330C165 319.44 165 308.88 165 298C148.83 298 132.66 298 116 298ZM248 298C248 308.56 248 319.12 248 330C258.56 330 269.12 330 280 330C280 319.44 280 308.88 280 298C269.44 298 258.88 298 248 298ZM331 298C331 308.56 331 319.12 331 330C341.56 330 352.12 330 363 330C363 319.44 363 308.88 363 298C352.44 298 341.88 298 331 298ZM446 298C446 308.56 446 319.12 446 330C462.17 330 478.34 330 495 330C495.103 325.648 495.206 321.296 495.312 316.812C495.358 315.448 495.403 314.084 495.45 312.679C495.463 311.595 495.475 310.511 495.488 309.395C495.514 308.29 495.541 307.185 495.568 306.046C494.774 301.787 493.568 300.452 490 298C486.615 297.337 483.325 297.417 479.887 297.512C478.917 297.519 477.947 297.526 476.949 297.533C473.861 297.561 470.775 297.624 467.687 297.688C465.59 297.713 463.493 297.735 461.396 297.756C456.263 297.807 451.133 297.905 446 298ZM16.9999 347C16.9999 352.28 16.9999 357.56 16.9999 363C71.1199 363 125.24 363 181 363C181 357.72 181 352.44 181 347C126.88 347 72.7599 347 16.9999 347ZM199 347C199 357.56 199 368.12 199 379C236.62 379 274.24 379 313 379C313 368.44 313 357.88 313 347C275.38 347 237.76 347 199 347ZM331 347C331 352.28 331 357.56 331 363C385.12 363 439.24 363 495 363C495 357.72 495 352.44 495 347C440.88 347 386.76 347 331 347ZM16.9999 380C16.938 395.51 16.8761 411.02 16.8124 427C16.7851 431.887 16.7578 436.774 16.7296 441.809C16.7196 446.211 16.7196 446.211 16.7135 450.614C16.709 452.566 16.6984 454.518 16.6831 456.47C16.6611 459.437 16.6582 462.404 16.6593 465.371C16.6485 466.232 16.6377 467.094 16.6266 467.981C16.6678 476.041 18.8047 482.451 24.3202 488.461C30.3356 493.973 36.4037 495.152 44.3101 495.131C45.0519 495.133 45.7936 495.136 46.5578 495.138C49.057 495.143 51.5561 495.142 54.0552 495.14C55.8597 495.143 57.6641 495.146 59.4685 495.149C64.4379 495.158 69.4073 495.159 74.3767 495.16C79.732 495.162 85.0873 495.169 90.4425 495.176C102.157 495.19 113.872 495.196 125.587 495.2C132.899 495.203 140.211 495.207 147.524 495.212C167.762 495.224 188 495.234 208.238 495.238C209.534 495.238 210.83 495.238 212.164 495.238C213.463 495.238 214.762 495.239 216.1 495.239C218.732 495.239 221.364 495.24 223.996 495.24C225.302 495.24 226.607 495.241 227.952 495.241C249.111 495.245 270.271 495.262 291.43 495.286C313.144 495.309 334.859 495.322 356.573 495.323C368.769 495.324 380.965 495.33 393.16 495.348C403.544 495.363 413.928 495.368 424.312 495.36C429.611 495.356 434.91 495.357 440.21 495.371C445.061 495.384 449.911 495.383 454.762 495.37C456.517 495.369 458.272 495.372 460.027 495.38C462.414 495.391 464.8 495.384 467.186 495.372C468.207 495.383 468.207 495.383 469.249 495.395C476.772 495.313 482.95 492.737 488.461 487.68C492.892 482.844 495.129 477.449 495.12 470.912C495.122 470.109 495.123 469.306 495.124 468.479C495.119 467.165 495.119 467.165 495.113 465.825C495.114 464.883 495.114 463.941 495.114 462.97C495.113 459.923 495.105 456.876 495.098 453.828C495.096 451.946 495.095 450.063 495.094 448.181C495.089 441.204 495.075 434.227 495.062 427.25C495.042 411.658 495.021 396.065 495 380C445.83 380 396.66 380 346 380C346 390.89 346 401.78 346 413C341.028 426.672 336.183 435.829 323.09 442.141C322.055 442.566 322.055 442.566 321 443C320.2 443.341 319.401 443.683 318.577 444.035C313.586 445.381 308.825 445.303 303.677 445.306C301.978 445.319 301.978 445.319 300.245 445.332C296.505 445.356 292.764 445.364 289.023 445.371C286.415 445.38 283.807 445.389 281.199 445.398C275.729 445.416 270.26 445.423 264.791 445.426C258.496 445.429 252.202 445.459 245.907 445.501C239.825 445.54 233.744 445.551 227.662 445.552C225.088 445.556 222.513 445.569 219.938 445.59C216.325 445.617 212.713 445.612 209.099 445.599C208.048 445.614 206.997 445.629 205.915 445.644C195.071 445.539 184.908 441.518 177 434C162.471 418.052 166 402.209 166 380C116.83 380 67.6599 380 16.9999 380ZM182 387C181.912 390.312 181.859 393.624 181.812 396.938C181.787 397.864 181.762 398.79 181.736 399.744C181.644 408.511 183.151 415.925 189.25 422.496C194.057 426.627 200.076 429.113 206.4 429.147C207.75 429.158 207.75 429.158 209.127 429.169C210.604 429.173 210.604 429.173 212.112 429.177C213.151 429.184 214.19 429.19 215.261 429.197C218.708 429.217 222.155 429.228 225.601 429.238C226.779 429.242 227.957 429.246 229.17 429.251C235.405 429.272 241.639 429.286 247.874 429.295C254.307 429.306 260.739 429.341 267.172 429.38C272.124 429.407 277.075 429.415 282.027 429.418C284.398 429.423 286.768 429.435 289.139 429.453C292.463 429.478 295.787 429.477 299.112 429.47C300.571 429.489 300.571 429.489 302.06 429.509C310.535 429.445 317.82 427.003 324 421C329.942 413.36 330.29 406.376 330.125 397.062C330.116 396.092 330.107 395.122 330.098 394.123C330.074 391.748 330.041 389.374 330 387C329.217 387.789 328.435 388.578 327.629 389.391C322.481 394.5 319.122 396.116 311.89 396.14C310.858 396.146 309.826 396.152 308.763 396.158C307.637 396.159 306.51 396.16 305.35 396.161C303.564 396.169 303.564 396.169 301.742 396.176C298.48 396.188 295.217 396.196 291.955 396.2C289.915 396.203 287.875 396.207 285.836 396.212C279.45 396.225 273.064 396.235 266.678 396.239C259.314 396.243 251.95 396.261 244.586 396.29C238.888 396.312 233.191 396.322 227.493 396.323C224.092 396.324 220.692 396.33 217.291 396.348C213.497 396.365 209.703 396.363 205.909 396.356C204.786 396.366 203.664 396.375 202.508 396.384C196.147 396.35 191.148 396.073 186.355 391.395C185.777 390.611 185.777 390.611 185.187 389.812C184.105 388.42 184.105 388.42 183 387C182.67 387 182.34 387 182 387Z" fill="url(#paint0_linear_329_337)"/>
<path d="M320 152C325.903 156.722 330.341 163.44 331.239 171.008C331.517 178.95 329.262 185.885 323.938 191.875C318.753 196.591 312.33 198.524 305.5 199.5C297.776 198.397 290.742 196.051 285.438 190.121C281.429 184.206 279.075 177.137 280 170C281.588 162.216 285.399 156.324 291.871 151.648C301.205 146.068 310.618 146.971 320 152ZM299.563 167.625C297.502 170.757 297.324 172.315 298 176C299.917 179.083 299.917 179.083 303 181C306.852 181.066 308.999 180.872 311.938 178.313C313.339 175.264 313.485 173.321 313 170C311.564 167.48 311.564 167.48 309 166C305.026 165.432 302.935 165.377 299.563 167.625Z" fill="url(#paint1_linear_329_337)"/>
</g>
<defs>
<filter id="filter0_i_329_337" x="0" y="0" width="512" height="516" filterUnits="userSpaceOnUse" color-interpolation-filters="sRGB">
<feFlood flood-opacity="0" result="BackgroundImageFix"/>
<feBlend mode="normal" in="SourceGraphic" in2="BackgroundImageFix" result="shape"/>
<feColorMatrix in="SourceAlpha" type="matrix" values="0 0 0 0 0 0 0 0 0 0 0 0 0 0 0 0 0 0 127 0" result="hardAlpha"/>
<feOffset dy="4"/>
<feGaussianBlur stdDeviation="2"/>
<feComposite in2="hardAlpha" operator="arithmetic" k2="-1" k3="1"/>
<feColorMatrix type="matrix" values="0 0 0 0 0 0 0 0 0 0 0 0 0 0 0 0 0 0 0.25 0"/>
<feBlend mode="normal" in2="shape" result="effect1_innerShadow_329_337"/>
</filter>
<linearGradient id="paint0_linear_329_337" x1="-1.00001" y1="13.5" x2="497" y2="533.5" gradientUnits="userSpaceOnUse">
<stop stop-color="#44C2A9"/>
<stop offset="1" stop-color="#0B4743"/>
</linearGradient>
<linearGradient id="paint1_linear_329_337" x1="275" y1="148" x2="401" y2="231.5" gradientUnits="userSpaceOnUse">
<stop stop-color="#37AC95"/>
<stop offset="1" stop-color="#16463C"/>
</linearGradient>
<clipPath id="clip0_329_337">
<rect width="512" height="512" fill="white"/>
</clipPath>
</defs>
</svg>
