<svg width="76" height="115" viewBox="0 0 76 115" fill="none" xmlns="http://www.w3.org/2000/svg">
<path fill-rule="evenodd" clip-rule="evenodd" d="M75.2777 81.0477C74.1995 79.7898 72.3056 79.6441 71.0476 80.7223L39.9523 107.375C38.8289 108.338 37.171 108.338 36.0476 107.375L4.95233 80.7223C3.69435 79.6441 1.80045 79.7898 0.722177 81.0477C-0.356085 82.3057 -0.210402 84.1996 1.04757 85.2779L32.1428 111.931C35.5132 114.82 40.4867 114.82 43.8571 111.931L74.9523 85.2779C76.2103 84.1996 76.356 82.3057 75.2777 81.0477ZM75.2777 41.0477C74.1995 39.7898 72.3056 39.6441 71.0476 40.7224L39.9523 67.3754C38.8289 68.3384 37.171 68.3384 36.0476 67.3754L4.95233 40.7224C3.69435 39.6441 1.80045 39.7898 0.722179 41.0477C-0.356084 42.3057 -0.2104 44.1996 1.04757 45.2779L32.1428 71.931C35.5132 74.8199 40.4867 74.8199 43.8571 71.931L74.9523 45.2779C76.2103 44.1996 76.356 42.3057 75.2777 41.0477ZM71.0476 0.722351C72.3056 -0.355911 74.1995 -0.210228 75.2777 1.04774C76.356 2.30573 76.2103 4.19962 74.9523 5.27789L43.8571 31.931C40.4867 34.8199 35.5132 34.8199 32.1428 31.931L1.04757 5.27789C-0.210399 4.19963 -0.356082 2.30572 0.722181 1.04775C1.80045 -0.210231 3.69435 -0.355914 4.95233 0.722356L36.0476 27.3754C37.171 28.3384 38.8289 28.3384 39.9523 27.3754L71.0476 0.722351Z" fill="url(#paint0_linear_33_3)"/>
<defs>
<linearGradient id="paint0_linear_33_3" x1="37.9999" y1="114.098" x2="38" y2="6.70035e-05" gradientUnits="userSpaceOnUse">
<stop stop-color="white"/>
<stop offset="1" stop-color="#A0AAFF" stop-opacity="0"/>
</linearGradient>
</defs>
</svg>
