<svg width="31" height="31" viewBox="0 0 31 31" fill="none" xmlns="http://www.w3.org/2000/svg">
<path fill-rule="evenodd" clip-rule="evenodd" d="M27.2186 18.6835C27.6896 16.9259 27.7536 15.155 27.4684 13.4705C27.0881 14.6901 26.4089 15.7435 25.5328 16.5702L25.5319 16.579C24.8762 17.2237 24.1031 17.7391 23.2532 18.0968C22.2982 18.4986 21.2681 18.6922 20.2318 18.6646C19.1955 18.6369 18.1768 18.3887 17.2439 17.9365C16.3111 17.4842 15.4855 16.8384 14.8224 16.0422C14.1592 15.2461 13.6739 14.3178 13.3988 13.3196C13.1236 12.3214 13.0651 11.2763 13.227 10.2541C13.3889 9.23187 13.7676 8.25614 14.3377 7.39216C14.8695 6.58629 15.5563 5.89495 16.3577 5.3579C17.3795 4.64516 18.5809 4.19616 19.848 4.07864C19.4175 3.90945 18.973 3.7627 18.5156 3.64014C11.954 1.88195 5.21194 5.7665 3.45687 12.3165C1.7018 18.8665 5.59829 25.6016 12.1599 27.3598C18.7216 29.118 25.4636 25.2335 27.2186 18.6835ZM24.6109 19.8699C22.542 24.2664 17.5562 26.6872 12.6896 25.3832C7.22153 23.918 3.97446 18.3054 5.43702 12.8471C6.44705 9.07759 9.43906 6.36744 12.9948 5.53379C12.8265 5.7464 12.6671 5.96654 12.5172 6.19369C11.7765 7.31628 11.2845 8.58405 11.0741 9.91224C10.8637 11.2404 10.9398 12.5984 11.2972 13.8954C11.6547 15.1923 12.2853 16.3984 13.1469 17.4329C14.0085 18.4674 15.0813 19.3065 16.2934 19.8941C17.5055 20.4817 18.829 20.8042 20.1755 20.8401C21.522 20.8761 22.8604 20.6245 24.1012 20.1024C24.2736 20.0298 24.4436 19.9523 24.6109 19.8699ZM25.4401 7.94651L24.9019 6.29455L24.3651 7.94603L22.6257 7.94526L24.0334 8.96671L23.4966 10.6182L24.9034 9.59799L26.311 10.6194L25.7728 8.96748L27.1795 7.94728L25.4401 7.94651ZM18.7526 6.29183L19.2909 7.94379L21.0303 7.94456L19.6235 8.96475L20.1617 10.6167L18.7541 9.59527L17.3473 10.6155L17.8841 8.96398L16.4765 7.94254L18.2159 7.94331L18.7526 6.29183ZM22.3673 12.0384L21.8291 10.3864L21.2923 12.0379L19.5529 12.0371L20.9606 13.0586L20.4238 14.7101L21.8305 13.6899L23.2382 14.7113L22.7 13.0593L24.1067 12.0391L22.3673 12.0384Z" fill="url(#paint0_linear_19_356)"/>
<defs>
<linearGradient id="paint0_linear_19_356" x1="18.5156" y1="3.64014" x2="12.1599" y2="27.3598" gradientUnits="userSpaceOnUse">
<stop stop-color="#F5BD52"/>
<stop offset="1" stop-color="#F5DA79"/>
</linearGradient>
</defs>
</svg>
